<?xml version="1.0" standalone="no"?>
<!DOCTYPE svg PUBLIC "-//W3C//DTD SVG 1.1//EN" "http://www.w3.org/Graphics/SVG/1.1/DTD/svg11.dtd" >
<svg>
<metadata>
Created by FontForge 20120731 at Fri Jul  5 03:29:58 2019
 By www
Published by Die Gestalten Verlag GmbH &#38; Co. KG, 2012. Copyright (c) 2011 by Sofie Beier. All rights reserved.
</metadata>
<defs>
<font id="OvinkW00-UltraBlack" horiz-adv-x="676" >
  <font-face 
    font-family="OvinkW00-UltraBlack"
    font-weight="900"
    font-stretch="normal"
    units-per-em="1000"
    panose-1="1 0 0 0 0 0 0 0 0 0"
    ascent="800"
    descent="-200"
    x-height="526"
    cap-height="694"
    bbox="-84 -389 1543 1019"
    underline-thickness="50"
    underline-position="-75"
    unicode-range="U+000D-FB02"
  />
<missing-glyph horiz-adv-x="0" 
 />
    <glyph glyph-name="onequarter" unicode="&#x31;&#x2f;&#x34;" horiz-adv-x="976" 
d="M817 692q0 -19 -21 -49l-465 -662q-8 -12 -22 -16.5t-71 -4.5q-49 0 -71.5 4t-22.5 17q0 17 21 48l460 664q10 15 27 18.5t70 3.5t74 -7t21 -16zM837 59v-45q0 -13 -18.5 -19.5t-65.5 -6.5q-86 0 -86 26v45h-125q-24 0 -32 6.5t-8 29.5q0 6 6.5 21.5t12.5 25.5l93 175
q11 21 104 21q119 0 119 -37v-128h39q11 0 17 -21t6 -37q0 -15 -6 -35.5t-17 -20.5h-39zM687 155v41q0 3 -5 4q-4 -1 -5 -4l-15 -41h25zM99 457h40v81q-36 -9 -40 -9q-8 0 -12.5 14.5t-4.5 39.5q0 19 7.5 35t20.5 24q32 20 74 34q7 2 30.5 7.5t44.5 5.5q24 0 37.5 -8
t13.5 -35v-189h35q10 0 16.5 -21.5t6.5 -37.5q0 -15 -6.5 -35.5t-16.5 -20.5h-246q-5 0 -11 8t-8.5 24.5t-2.5 23.5q0 17 5.5 38t16.5 21z" />
    <glyph glyph-name="onehalf" unicode="&#x31;&#x2f;&#x32;" horiz-adv-x="983" 
d="M725 346q84 0 128 -31t44 -81q0 -14 -8 -33t-31 -40.5t-65 -38.5h92q8 0 14.5 -21t6.5 -44q0 -14 -5 -31.5t-9.5 -21t-6.5 -3.5h-251q-36 0 -48.5 10.5t-12.5 35.5v23q0 11 8 23.5t24 21.5q61 31 94.5 60.5t33.5 45.5q0 4 -6 7.5t-16 3.5q-11 0 -34 -13.5t-26 -13.5
q-13 0 -29.5 13t-30 38t-13.5 35q0 9 22 25q17 12 51.5 21t73.5 9zM99 457h40v81q-36 -9 -40 -9q-8 0 -12.5 14.5t-4.5 39.5q0 19 7.5 35t20.5 24q32 20 74 34q7 2 30.5 7.5t44.5 5.5q24 0 37.5 -8t13.5 -35v-189h35q10 0 16.5 -21.5t6.5 -37.5q0 -15 -6.5 -35.5
t-16.5 -20.5h-246q-5 0 -11 8t-8.5 24.5t-2.5 23.5q0 17 5.5 38t16.5 21zM817 692q0 -19 -21 -49l-465 -662q-8 -12 -22 -16.5t-71 -4.5q-49 0 -71.5 4t-22.5 17q0 17 21 48l460 664q10 15 27 18.5t70 3.5t74 -7t21 -16z" />
    <glyph glyph-name="threequarters" unicode="&#x33;&#x2f;&#x34;" horiz-adv-x="967" 
d="M201 443q23 0 23 13q0 14 -39 14l-33 -1q-15 0 -15 52q0 39 18 39q25 0 41 4t16 12q0 12 -15 12q-16 0 -38 -8.5t-26 -8.5q-13 0 -26 8.5t-21 25.5t-8 27q0 11 19.5 24.5t51.5 22.5t75 9q24 0 56 -5.5t56 -18.5t34 -31t10 -37q0 -20 -8.5 -39t-23.5 -27q19 -9 33 -28.5
t14 -45.5q0 -23 -8.5 -42t-27 -35.5t-56.5 -29.5t-91 -13q-64 0 -99.5 18t-35.5 35q0 14 15 44t31 30q7 0 34.5 -10t43.5 -10zM828 59v-45q0 -13 -18.5 -19.5t-65.5 -6.5q-86 0 -86 26v45h-125q-24 0 -32 6.5t-8 29.5q0 6 6.5 21.5t12.5 25.5l93 175q11 21 104 21
q119 0 119 -37v-128h39q11 0 17 -21t6 -37q0 -15 -6 -35.5t-17 -20.5h-39zM678 155v41q0 3 -5 4q-4 -1 -5 -4l-15 -41h25zM808 692q0 -19 -21 -49l-465 -662q-8 -12 -22 -16.5t-71 -4.5q-49 0 -71.5 4t-22.5 17q0 17 21 48l460 664q10 15 27 18.5t70 3.5t74 -7t21 -16z" />
    <glyph glyph-name="onethird" unicode="&#x33;&#x2f;&#x33;" horiz-adv-x="971" 
d="M700 96q23 0 23 13q0 14 -39 14l-33 -1q-15 0 -15 52q0 39 18 39q25 0 41 4t16 12q0 12 -15 12q-16 0 -38 -8.5t-26 -8.5q-13 0 -26 8.5t-21 25.5t-8 27q0 11 19.5 24.5t51.5 22.5t75 9q24 0 56 -5.5t56 -18.5t34 -31t10 -37q0 -20 -8.5 -39t-23.5 -27q19 -9 33 -28.5
t14 -45.5q0 -23 -8.5 -42t-27 -35.5t-56.5 -29.5t-91 -13q-64 0 -99.5 18t-35.5 35q0 14 15 44t31 30q7 0 34.5 -10t43.5 -10zM99 457h40v81q-36 -9 -40 -9q-8 0 -12.5 14.5t-4.5 39.5q0 19 7.5 35t20.5 24q32 20 74 34q7 2 30.5 7.5t44.5 5.5q24 0 37.5 -8t13.5 -35v-189
h35q10 0 16.5 -21.5t6.5 -37.5q0 -15 -6.5 -35.5t-16.5 -20.5h-246q-5 0 -11 8t-8.5 24.5t-2.5 23.5q0 17 5.5 38t16.5 21zM817 692q0 -19 -21 -49l-465 -662q-8 -12 -22 -16.5t-71 -4.5q-49 0 -71.5 4t-22.5 17q0 17 21 48l460 664q10 15 27 18.5t70 3.5t74 -7t21 -16z" />
    <glyph glyph-name="twothirds" unicode="&#x32;&#x2f;&#x33;" horiz-adv-x="1019" 
d="M229 687q84 0 128 -31t44 -81q0 -14 -8 -33t-31 -40.5t-65 -38.5h92q8 0 14.5 -21t6.5 -44q0 -14 -5 -31.5t-9.5 -21t-6.5 -3.5h-251q-36 0 -48.5 10.5t-12.5 35.5v23q0 11 8 23.5t24 21.5q61 31 94.5 60.5t33.5 45.5q0 4 -6 7.5t-16 3.5q-11 0 -34 -13.5t-26 -13.5
q-13 0 -29.5 13t-30 38t-13.5 35q0 9 22 25q17 12 51.5 21t73.5 9zM865 692q0 -19 -21 -49l-465 -662q-8 -12 -22 -16.5t-71 -4.5q-49 0 -71.5 4t-22.5 17q0 17 21 48l460 664q10 15 27 18.5t70 3.5t74 -7t21 -16zM748 96q23 0 23 13q0 14 -39 14l-33 -1q-15 0 -15 52
q0 39 18 39q25 0 41 4t16 12q0 12 -15 12q-16 0 -38 -8.5t-26 -8.5q-13 0 -26 8.5t-21 25.5t-8 27q0 11 19.5 24.5t51.5 22.5t75 9q24 0 56 -5.5t56 -18.5t34 -31t10 -37q0 -20 -8.5 -39t-23.5 -27q19 -9 33 -28.5t14 -45.5q0 -23 -8.5 -42t-27 -35.5t-56.5 -29.5t-91 -13
q-64 0 -99.5 18t-35.5 35q0 14 15 44t31 30q7 0 34.5 -10t43.5 -10z" />
    <glyph glyph-name="oneeighth" unicode="&#x31;&#x2f;&#x38;" horiz-adv-x="993" 
d="M736 -11q-35 0 -78.5 10t-74 39t-30.5 68q0 26 18 49.5t51 34.5q-13 4 -25.5 13.5t-18.5 22t-6 21.5q0 32 20.5 52t58 30.5t87.5 10.5q80 0 120 -24t40 -69q0 -14 -11.5 -30t-37.5 -27q33 -8 50 -32.5t17 -51.5q0 -26 -16.5 -53t-60.5 -45.5t-103 -18.5zM733 124
q-22 0 -22 -18q0 -19 23 -19t23 19q0 18 -24 18zM721 251q0 -9 14 -9q13 0 13 9q0 10 -13 10q-14 0 -14 -10zM99 457h40v81q-36 -9 -40 -9q-8 0 -12.5 14.5t-4.5 39.5q0 19 7.5 35t20.5 24q32 20 74 34q7 2 30.5 7.5t44.5 5.5q24 0 37.5 -8t13.5 -35v-189h35
q10 0 16.5 -21.5t6.5 -37.5q0 -15 -6.5 -35.5t-16.5 -20.5h-246q-5 0 -11 8t-8.5 24.5t-2.5 23.5q0 17 5.5 38t16.5 21zM818 692q0 -19 -21 -49l-465 -662q-8 -12 -22 -16.5t-71 -4.5q-49 0 -71.5 4t-22.5 17q0 17 21 48l460 664q10 15 27 18.5t70 3.5t74 -7t21 -16z" />
    <glyph glyph-name="threeeighths" unicode="&#x33;&#x2f;&#x38;" horiz-adv-x="987" 
d="M201 443q23 0 23 13q0 14 -39 14l-33 -1q-15 0 -15 52q0 39 18 39q25 0 41 4t16 12q0 12 -15 12q-16 0 -38 -8.5t-26 -8.5q-13 0 -26 8.5t-21 25.5t-8 27q0 11 19.5 24.5t51.5 22.5t75 9q24 0 56 -5.5t56 -18.5t34 -31t10 -37q0 -20 -8.5 -39t-23.5 -27q19 -9 33 -28.5
t14 -45.5q0 -23 -8.5 -42t-27 -35.5t-56.5 -29.5t-91 -13q-64 0 -99.5 18t-35.5 35q0 14 15 44t31 30q7 0 34.5 -10t43.5 -10zM730 -11q-35 0 -78.5 10t-74 39t-30.5 68q0 26 18 49.5t51 34.5q-13 4 -25.5 13.5t-18.5 22t-6 21.5q0 32 20.5 52t58 30.5t87.5 10.5
q80 0 120 -24t40 -69q0 -14 -11.5 -30t-37.5 -27q33 -8 50 -32.5t17 -51.5q0 -26 -16.5 -53t-60.5 -45.5t-103 -18.5zM727 124q-22 0 -22 -18q0 -19 23 -19t23 19q0 18 -24 18zM715 251q0 -9 14 -9q13 0 13 9q0 10 -13 10q-14 0 -14 -10zM811 692q0 -19 -21 -49l-465 -662
q-8 -12 -22 -16.5t-71 -4.5q-49 0 -71.5 4t-22.5 17q0 17 21 48l460 664q10 15 27 18.5t70 3.5t74 -7t21 -16z" />
    <glyph glyph-name="fiveeighths" unicode="&#x35;&#x2f;&#x38;" horiz-adv-x="1008" 
d="M185 682h206q11 0 16.5 -17t5.5 -32q0 -12 -6 -31t-16 -19h-137l-1 -9q84 0 126 -24.5t42 -82.5q0 -43 -25 -71.5t-71 -44t-111 -15.5q-42 0 -76 12t-47.5 24t-13.5 18t6 26t18.5 37t21.5 21.5t16 4.5q6 0 22 -10.5t31 -15.5t31 -5q27 0 27 17q0 16 -31 16
q-13 0 -27 -2.5t-15 -2.5q-13 0 -50.5 26.5t-37.5 35.5l25 110q3 17 16 25.5t55 8.5zM751 -11q-35 0 -78.5 10t-74 39t-30.5 68q0 26 18 49.5t51 34.5q-13 4 -25.5 13.5t-18.5 22t-6 21.5q0 32 20.5 52t58 30.5t87.5 10.5q80 0 120 -24t40 -69q0 -14 -11.5 -30t-37.5 -27
q33 -8 50 -32.5t17 -51.5q0 -26 -16.5 -53t-60.5 -45.5t-103 -18.5zM748 124q-22 0 -22 -18q0 -19 23 -19t23 19q0 18 -24 18zM736 251q0 -9 14 -9q13 0 13 9q0 10 -13 10q-14 0 -14 -10zM832 692q0 -19 -21 -49l-465 -662q-8 -12 -22 -16.5t-71 -4.5q-49 0 -71.5 4
t-22.5 17q0 17 21 48l460 664q10 15 27 18.5t70 3.5t74 -7t21 -16z" />
    <glyph glyph-name="seveneighths" unicode="&#x37;&#x2f;&#x38;" horiz-adv-x="935" 
d="M403 647q0 -19 -6 -35t-9 -22l-139 -228q-5 -8 -15.5 -15t-68.5 -7q-45 0 -66.5 6.5t-21.5 24.5q0 10 14 29l123 161h-115q-10 0 -16 25t-6 42q0 16 5.5 35t16.5 19h244q30 0 45 -7.5t15 -27.5zM678 -11q-35 0 -78.5 10t-74 39t-30.5 68q0 26 18 49.5t51 34.5
q-13 4 -25.5 13.5t-18.5 22t-6 21.5q0 32 20.5 52t58 30.5t87.5 10.5q80 0 120 -24t40 -69q0 -14 -11.5 -30t-37.5 -27q33 -8 50 -32.5t17 -51.5q0 -26 -16.5 -53t-60.5 -45.5t-103 -18.5zM675 124q-22 0 -22 -18q0 -19 23 -19t23 19q0 18 -24 18zM663 251q0 -9 14 -9
q13 0 13 9q0 10 -13 10q-14 0 -14 -10zM759 692q0 -19 -21 -49l-465 -662q-8 -12 -22 -16.5t-71 -4.5q-49 0 -71.5 4t-22.5 17q0 17 21 48l460 664q10 15 27 18.5t70 3.5t74 -7t21 -16z" />
    <glyph glyph-name="uniFB01" unicode="fi" horiz-adv-x="672" 
d="M658 432v-396q0 -18 -26.5 -30t-112.5 -12q-72 0 -106.5 10t-34.5 32v271h-29v-271q0 -18 -26 -30t-112 -12q-73 0 -107.5 10t-34.5 32v275l-44 22q-9 4 -17 14.5t-8 57.5q0 38 7 49.5t23 16.5l40 13q17 73 57.5 119.5t110 71t183.5 24.5q86 0 133.5 -16.5t47.5 -51.5
q0 -23 -8 -62t-23.5 -59t-33.5 -20q-5 0 -36 4t-52 4q-37 0 -61.5 -8t-31.5 -22h236q35 0 50.5 -8t15.5 -28z" />
    <glyph glyph-name="uniFB02" unicode="fl" horiz-adv-x="732" 
d="M718 652v-616q0 -18 -26.5 -30t-112.5 -12q-72 0 -106.5 10t-34.5 32v459q-22 7 -47 7q-13 0 -23.5 -5t-10.5 -16l31 -12q15 -4 22.5 -15.5t7.5 -50.5q0 -32 -4.5 -46.5t-20.5 -23.5l-44 -23v-274q0 -18 -26 -30t-112 -12q-73 0 -107.5 10t-34.5 32v275l-44 22
q-9 5 -17 15t-8 57q0 31 5 45t25 21l40 13v27q0 35 16.5 69t56.5 60.5t104 42.5t154 16q177 0 247 -11t70 -36z" />
    <glyph glyph-name=".notdef" horiz-adv-x="0" 
 />
    <glyph glyph-name="glyph1" horiz-adv-x="0" 
 />
    <glyph glyph-name="glyph1" horiz-adv-x="0" 
 />
    <glyph glyph-name="uni000D" unicode="&#xd;" horiz-adv-x="331" 
 />
    <glyph glyph-name="space" unicode=" " horiz-adv-x="318" 
 />
    <glyph glyph-name="exclam" unicode="!" horiz-adv-x="351" 
d="M176 694q86 0 117.5 -15t31.5 -46v-35q0 -78 -19 -312q-2 -27 -33 -44.5t-97 -17.5q-122 0 -130 63q-4 40 -11.5 152t-7.5 159v35q0 21 13.5 34.5t40.5 20t95 6.5zM36 91q0 61 32 84.5t110 23.5q74 0 107.5 -24.5t33.5 -83.5q0 -53 -28 -78.5t-113 -25.5q-50 0 -79.5 7.5
t-46 28.5t-16.5 68z" />
    <glyph glyph-name="quotedbl" unicode="&#x22;" horiz-adv-x="619" 
d="M464 402q-62 0 -84.5 12t-25.5 32q-3 16 -16.5 98.5t-13.5 99.5q0 31 34.5 45t105.5 14t105.5 -14t34.5 -45q0 -24 -29 -198q-3 -20 -25.5 -32t-85.5 -12zM155 402q-62 0 -84.5 12t-25.5 32q-3 16 -16.5 98.5t-13.5 99.5q0 31 34.5 45t105.5 14t105.5 -14t34.5 -45
q0 -24 -29 -198q-3 -20 -25.5 -32t-85.5 -12z" />
    <glyph glyph-name="numbersign" unicode="#" 
d="M343 7l9 105h-70l-8 -110q-1 -9 -18 -16t-49 -7q-31 0 -47 8t-16 20q0 24 7 105h-66q-33 0 -33 56q0 31 12 54.5t29 23.5h69l4 38h-65q-14 0 -23 13.5t-9 42.5q0 30 11 54.5t28 24.5h69l10 92q0 9 16.5 14.5t48.5 5.5q36 0 51 -6t15 -17l-8 -89h69l11 92q3 20 65 20
q63 0 63 -24l-7 -88h77q15 0 24.5 -18.5t9.5 -51.5q0 -17 -13.5 -41t-28.5 -24h-82l-3 -38h69q14 0 24 -18.5t10 -49.5q0 -19 -13.5 -42.5t-28.5 -23.5h-73l-9 -109q-2 -23 -66 -23q-29 0 -47 8.5t-18 18.5zM368 284h-70l-3 -38h69z" />
    <glyph glyph-name="dollar" unicode="$" 
d="M399 805v-101q59 -4 117 -21t95.5 -45.5t37.5 -46.5q0 -26 -17 -65.5t-37.5 -64.5t-40.5 -25q-2 0 -11 1.5t-91 30.5t-124 29q-14 0 -14 -9q0 -6 14 -13t86 -21q125 -25 183.5 -79t58.5 -147q0 -73 -28.5 -124.5t-84.5 -83.5t-144 -41v-72q0 -7 -3 -13t-30 -6
q-21 0 -29 3t-8 15v69q-67 0 -137 14t-117.5 43.5t-47.5 56.5q0 19 19 61.5t41.5 70t42.5 27.5q4 0 11 -2t31 -15q44 -24 91 -38.5t78 -14.5t40.5 3t9.5 10q0 4 -7.5 7.5t-56.5 10.5q-88 13 -146.5 44.5t-91.5 84t-33 129.5q0 54 17.5 97.5t52 74t86 47.5t117.5 19v99
q0 12 4.5 17.5t27.5 5.5q19 0 28.5 -2.5t9.5 -19.5z" />
    <glyph glyph-name="percent" unicode="%" horiz-adv-x="1286" 
d="M271 701q53 0 100.5 -12.5t83.5 -36.5t56 -61t20 -84q0 -35 -13.5 -70.5t-46 -64.5t-83 -47t-117.5 -18q-52 0 -98.5 13t-82 38.5t-55.5 63.5t-20 85q0 35 13.5 70t45.5 62.5t81.5 44.5t115.5 17zM914 661q0 -29 -25 -85l-246 -540q-9 -21 -32.5 -31.5t-98.5 -10.5
q-65 0 -101.5 11t-36.5 40q0 3 1.5 9t14.5 35l255 576q8 18 32 27t100 9q44 0 77.5 -5.5t46.5 -15t13 -19.5zM273 451q16 0 16 59q0 35 -4 44t-12 9t-12.5 -11.5t-4.5 -41.5q0 -29 3 -44t14 -15zM1010 382q53 0 100.5 -12.5t83.5 -36.5t56 -61t20 -84q0 -35 -13.5 -70.5
t-46 -64.5t-83 -47t-117.5 -18q-52 0 -98.5 13t-82 38.5t-55.5 63.5t-20 85q0 35 13.5 70t45.5 62.5t81.5 44.5t115.5 17zM1012 132q16 0 16 59q0 35 -4 44t-12 9t-12.5 -11.5t-4.5 -41.5q0 -29 3 -44t14 -15z" />
    <glyph glyph-name="ampersand" unicode="&#x26;" horiz-adv-x="737" 
d="M3 173q0 41 13 82t45.5 72.5t72.5 47.5q-35 33 -51.5 66.5t-16.5 77.5q0 33 17.5 66.5t51.5 60.5t85 43.5t114 16.5q50 0 106.5 -11.5t98.5 -38.5t58.5 -60t16.5 -67q0 -75 -37.5 -120t-112.5 -69q2 -3 35 -36q4 4 8.5 14.5t6.5 12.5q8 11 22.5 16t80.5 5q55 0 76 -3.5
t25 -12.5t4 -20q0 -35 -16.5 -74t-40.5 -67l29 -22q22 -16 22 -54v-70q0 -22 -8.5 -32t-35.5 -10h-60q-26 0 -53 14l-48 38q-59 -33 -120.5 -48.5t-136.5 -15.5q-41 0 -85.5 13t-82 38t-60.5 62.5t-23 84.5zM292 152q20 0 34 6t18 9l-66 60q-11 -8 -16.5 -20.5t-5.5 -23.5
q0 -12 9.5 -21.5t26.5 -9.5zM305 507q0 -18 23 -33q37 13 37 32q0 11 -7.5 19.5t-25.5 8.5q-12 0 -19.5 -8t-7.5 -19z" />
    <glyph glyph-name="quotesingle" unicode="'" horiz-adv-x="310" 
d="M155 402q-62 0 -84.5 12t-25.5 32q-3 16 -16.5 98.5t-13.5 99.5q0 31 34.5 45t105.5 14t105.5 -14t34.5 -45q0 -24 -29 -198q-3 -20 -25.5 -32t-85.5 -12z" />
    <glyph glyph-name="parenleft" unicode="(" horiz-adv-x="411" 
d="M304 292q0 -80 7 -139t22 -107.5t54 -99.5q2 -3 13 -15t11 -20q0 -12 -16 -37t-43 -43t-54 -18q-21 0 -68 27q-79 47 -120 110t-59 150t-18 194q0 42 11.5 103.5t40.5 124t66.5 105t78.5 68.5q8 7 31.5 17t36.5 10q22 0 47.5 -14t45.5 -41t20 -43q0 -9 -11 -21t-13 -14
q-24 -28 -43.5 -77t-29.5 -111.5t-10 -108.5z" />
    <glyph glyph-name="parenright" unicode=")" horiz-adv-x="411" 
d="M107 292q0 46 -10 108.5t-29.5 111.5t-43.5 77q-3 3 -13 15t-10 20q0 9 12 31t40.5 44.5t59.5 22.5q13 0 36 -10t33 -17q66 -43 109.5 -110.5t65 -144.5t21.5 -146q0 -80 -12 -164.5t-51.5 -158.5t-132.5 -131q-14 -9 -35 -18t-34 -9q-22 0 -47 14t-45 41.5t-20 42.5
q0 8 10 19.5t13 15.5q40 50 54.5 99t21.5 107.5t7 139.5z" />
    <glyph glyph-name="asterisk" unicode="*" horiz-adv-x="438" 
d="M273 677l-7 -57q3 4 14.5 21t21 25.5t18.5 8.5q7 0 21 -9t29 -27t15 -29q0 -8 -6.5 -16.5t-25 -21.5t-23.5 -17l57 7q29 0 29 -53t-29 -53l-57 7q4 -3 21 -14t25 -21t8 -20q0 -7 -9 -21t-26.5 -29t-28.5 -15q-7 0 -15 5t-21 24t-18 25q2 -13 4 -29.5t2 -25.5
q0 -30 -53 -30q-28 0 -41 8t-13 21l8 57q-3 -4 -14.5 -21t-21 -25.5t-19.5 -8.5q-7 0 -21 9t-29 27t-15 29q0 7 5 15t24 21.5t26 18.5l-57 -7q-29 0 -29 53q0 20 6.5 36.5t22.5 16.5l57 -7q-4 3 -21 14t-25 20.5t-8 20.5q0 7 9 21t26.5 29t28.5 15q7 0 16 -6.5t22 -25
t17 -23.5l-7 57q0 29 53 29q20 0 37 -6.5t17 -22.5z" />
    <glyph glyph-name="plus" unicode="+" 
d="M432 501v-142h159q8 0 16.5 -9.5t14 -30.5t5.5 -42q0 -18 -5.5 -41t-14 -34t-16.5 -11h-159v-146q0 -8 -11 -16.5t-34.5 -13.5t-44.5 -5q-19 0 -44 5t-37 13.5t-12 16.5v146h-164q-8 0 -16.5 11t-14 34t-5.5 41q0 21 5.5 42t14 30.5t16.5 9.5h164v142q0 8 12 16.5t37 14
t44 5.5q21 0 44.5 -5.5t34.5 -14t11 -16.5z" />
    <glyph glyph-name="comma" unicode="," horiz-adv-x="311" 
d="M11 -74q0 29 9 103t15 107q12 73 69 73q20 0 51.5 -5.5t47.5 -11.5q3 -1 22 -7.5t35.5 -15.5t26 -22.5t9.5 -30.5q0 -26 -19 -67q-1 -2 -17 -35.5t-31.5 -64t-29.5 -53t-22 -26.5q-9 -5 -19 -5q-32 0 -89.5 19.5t-57.5 41.5z" />
    <glyph glyph-name="hyphen" unicode="-" horiz-adv-x="442" 
d="M39 376h364q8 0 16.5 -11.5t13.5 -36.5t5 -47q0 -19 -5 -45.5t-13 -40.5t-17 -14h-364q-9 0 -17 14t-13 40.5t-5 45.5q0 22 5 47t13.5 36.5t16.5 11.5z" />
    <glyph glyph-name="period" unicode="." horiz-adv-x="309" 
d="M13 89q0 61 32 84.5t110 23.5q74 0 107.5 -24.5t33.5 -83.5q0 -53 -28 -78.5t-113 -25.5q-50 0 -79.5 7.5t-46 28.5t-16.5 68z" />
    <glyph glyph-name="slash" unicode="/" horiz-adv-x="549" 
d="M549 658q0 -10 -5 -25t-17.5 -41.5t-13.5 -27.5l-241 -528q-10 -22 -33 -32.5t-99 -10.5q-66 0 -103 11.5t-37 40.5q0 4 1.5 10t14.5 33l263 576q8 18 33 27.5t101 9.5q43 0 76.5 -6t46.5 -16.5t13 -20.5z" />
    <glyph glyph-name="zero" unicode="0" horiz-adv-x="674" 
d="M338 -25q-83 0 -146 25t-104 72t-61 116t-20 156q0 176 82 269t249 93q166 0 247.5 -93t81.5 -269q0 -87 -20 -156t-60.5 -116t-103 -72t-145.5 -25zM338 191q25 0 36.5 27.5t11.5 126.5q0 97 -11.5 124t-36.5 27t-37.5 -28.5t-12.5 -122.5q0 -58 3.5 -88.5t14 -48
t32.5 -17.5z" />
    <glyph glyph-name="one" unicode="1" horiz-adv-x="571" 
d="M44 211l108 1v224q-93 -24 -103 -24q-11 0 -19.5 27.5t-8.5 67.5q0 31 13 59.5t35 42.5q23 15 68 36t85 32q26 8 65 16t58 8q41 0 62 -14.5t21 -59.5v-416h101q16 0 26 -37.5t10 -69.5q0 -19 -5.5 -47t-13.5 -42.5t-17 -14.5h-485q-9 0 -17 14.5t-13 42t-5 47.5
q0 22 5 50t13 42.5t17 14.5z" />
    <glyph glyph-name="two" unicode="2" horiz-adv-x="609" 
d="M284 706q73 0 131 -16.5t96 -46.5t57 -71t19 -88q0 -77 -51.5 -146t-154.5 -127h186q9 0 17 -15t13.5 -45t5.5 -53q0 -19 -5.5 -45.5t-14 -39.5t-16.5 -13h-459q-30 0 -53.5 6t-33.5 24t-10 50v41q0 45 53 80q65 40 124.5 95t91 105t31.5 79q0 13 -12 19.5t-22 6.5
q-15 0 -37.5 -8.5t-56 -28t-40.5 -19.5q-22 0 -47.5 22t-48.5 67t-23 63q0 17 37 45q33 25 93 42t130 17z" />
    <glyph glyph-name="three" unicode="3" horiz-adv-x="584" 
d="M246 187q51 0 51 47q0 23 -43.5 35t-102.5 12q-11 0 -18.5 24t-7.5 66q0 86 26 86q41 0 68.5 4.5t38 15t10.5 21.5q0 18 -29 18q-20 0 -39.5 -5.5t-40.5 -18t-27 -12.5q-27 0 -49.5 21.5t-38.5 53.5t-16 50q0 13 15.5 30.5t46 33.5t78 26.5t105.5 10.5q41 0 88 -7.5
t87 -27.5t64.5 -55t24.5 -84q0 -46 -16.5 -83.5t-45.5 -57.5v-7q34 -15 55.5 -43t32 -62t10.5 -64q0 -48 -17.5 -93.5t-58 -78t-102 -50.5t-146.5 -18q-43 0 -80.5 6t-74.5 19.5t-62 36t-25 39.5q0 19 22 67.5t46 72.5t46 24q7 0 31.5 -18t47.5 -26.5t46 -8.5z" />
    <glyph glyph-name="four" unicode="4" horiz-adv-x="700" 
d="M315 339v90q0 6 -8 6t-9 -6l-26 -90h43zM583 144v-108q0 -19 -25 -32t-110 -13q-72 0 -106 11t-34 34v108h-243q-41 0 -53 17t-12 46q0 11 11.5 39.5t22.5 49.5l184 359q10 19 49.5 30t125.5 11q190 0 190 -66v-289h80q8 0 16.5 -12.5t13.5 -39.5t5 -49q0 -28 -8 -56
t-15.5 -34t-11.5 -6h-80z" />
    <glyph glyph-name="five" unicode="5" horiz-adv-x="618" 
d="M190 688h370q8 0 16.5 -11.5t14 -36.5t5.5 -46q0 -18 -5.5 -46.5t-13.5 -43.5t-17 -15h-258l-2 -22q113 0 182 -28t99 -77t30 -114q0 -67 -29 -119.5t-79.5 -86.5t-116 -50.5t-136.5 -16.5q-50 0 -105.5 13.5t-96.5 41.5t-41 48q0 24 17 73.5t38.5 74t43.5 24.5
q10 0 40 -21t58 -31.5t60 -10.5q14 0 32.5 5.5t28 16.5t9.5 24q0 55 -73 55q-44 0 -62 -6q-4 -1 -12.5 -3.5t-12.5 -2.5q-16 0 -54 24t-63.5 46t-25.5 32l44 250q5 29 26.5 44.5t88.5 15.5z" />
    <glyph glyph-name="six" unicode="6" 
d="M549 518q-10 -3 -43 -12t-56.5 -17t-43.5 -18q57 0 105.5 -16t83 -45.5t53 -71t18.5 -90.5q0 -58 -25 -108.5t-69.5 -87.5t-105 -57.5t-127.5 -20.5q-31 0 -71.5 6.5t-83 25t-82 52t-65.5 88.5t-26 120q0 69 30.5 137.5t85.5 127t131.5 102t163.5 64.5q18 4 46.5 9.5
t39.5 5.5q14 0 29 -19.5t26.5 -59.5t11.5 -63q0 -27 -6.5 -37.5t-19.5 -14.5zM395 237q0 24 -16 36t-38 12q-10 0 -25.5 -5.5t-24 -18.5t-8.5 -29q0 -14 6.5 -27t21 -20t27.5 -7q22 0 39.5 15t17.5 44z" />
    <glyph glyph-name="seven" unicode="7" horiz-adv-x="553" 
d="M571 627q0 -20 -6.5 -50t-18.5 -52l-261 -487q-12 -22 -34 -32.5t-103 -10.5q-73 0 -112 13t-39 43q0 8 6 23.5t16 31.5l236 362h-224q-8 0 -16 17t-13.5 49.5t-5.5 50.5q0 31 10 67t25 36h445q48 0 71.5 -13t23.5 -48z" />
    <glyph glyph-name="eight" unicode="8" horiz-adv-x="659" 
d="M331 -26q-78 0 -139 19t-101.5 53t-60.5 79.5t-20 97.5q0 103 117 173q-35 19 -58 49t-23 72q0 60 35 101t99 64t153 23q56 0 106.5 -10.5t89.5 -33t61.5 -59t22.5 -85.5q0 -37 -22 -70t-58 -50q26 -13 53.5 -37.5t45 -62t17.5 -74.5q0 -52 -18.5 -97.5t-57 -79.5
t-100 -53t-142.5 -19zM329 270q-28 0 -37 -12t-9 -34q0 -20 10 -32.5t38 -12.5q22 0 34 9.5t12 35.5q0 21 -9.5 33.5t-38.5 12.5zM303 525q0 -10 8 -16t21 -6t21 6t8 16q0 24 -27 24q-31 0 -31 -24z" />
    <glyph glyph-name="nine" unicode="9" horiz-adv-x="677" 
d="M127 162q10 3 43 12t56.5 17t43.5 18q-57 0 -105.5 16t-83 45.5t-53 71t-18.5 90.5q0 58 25 108.5t69.5 87.5t105 57.5t127.5 20.5q31 0 71.5 -6.5t83 -25t82 -52t65.5 -88.5t26 -120q0 -69 -30.5 -137.5t-85.5 -127t-131.5 -102t-163.5 -64.5q-18 -4 -46.5 -9.5
t-39.5 -5.5q-14 0 -29 19.5t-26.5 59.5t-11.5 63q0 27 6.5 37.5t19.5 14.5zM281 443q0 -24 16 -36t38 -12q10 0 25.5 5.5t24 18.5t8.5 29q0 14 -6.5 27t-21 20t-27.5 7q-22 0 -39.5 -15t-17.5 -44z" />
    <glyph glyph-name="colon" unicode=":" horiz-adv-x="309" 
d="M13 432q0 61 32 84.5t110 23.5q74 0 107.5 -24.5t33.5 -83.5q0 -53 -28 -78.5t-113 -25.5q-50 0 -79.5 7.5t-46 28.5t-16.5 68zM13 91q0 61 32 84.5t110 23.5q74 0 107.5 -24.5t33.5 -83.5q0 -53 -28 -78.5t-113 -25.5q-50 0 -79.5 7.5t-46 28.5t-16.5 68z" />
    <glyph glyph-name="semicolon" unicode=";" horiz-adv-x="318" 
d="M1 -74q0 29 9 103t15 107q12 73 69 73q20 0 51.5 -5.5t47.5 -11.5q3 -1 22 -7.5t35.5 -15.5t26 -22.5t9.5 -30.5q0 -26 -19 -67q-1 -2 -17 -35.5t-31.5 -64t-29.5 -53t-22 -26.5q-9 -5 -19 -5q-32 0 -89.5 19.5t-57.5 41.5zM22 432q0 61 32 84.5t110 23.5
q74 0 107.5 -24.5t33.5 -83.5q0 -53 -28 -78.5t-113 -25.5q-50 0 -79.5 7.5t-46 28.5t-16.5 68z" />
    <glyph glyph-name="less" unicode="&#x3c;" horiz-adv-x="647" 
d="M11 280q0 27 43 69q38 34 179.5 141t159.5 107q31 0 82 -47q21 -22 32.5 -37t11.5 -32q0 -10 -12 -20.5t-51.5 -36.5t-66.5 -47h198q17 0 27.5 -24t10.5 -73q0 -48 -10.5 -74.5t-27.5 -26.5h-204q9 -3 38.5 -21t64 -46t34.5 -41q0 -11 -6 -23.5t-39 -46.5
q-22 -20 -41 -33t-40 -13q-16 0 -144 97t-196 156q-17 14 -30 33t-13 39z" />
    <glyph glyph-name="equal" unicode="=" 
d="M91 264h493q8 0 16.5 -9.5t14 -30.5t5.5 -42q0 -18 -5.5 -41t-14 -34t-16.5 -11h-493q-8 0 -16.5 11t-14 34t-5.5 41q0 21 5.5 42t14 30.5t16.5 9.5zM91 498h493q8 0 16.5 -9.5t14 -30.5t5.5 -42q0 -18 -5.5 -41t-14 -34t-16.5 -11h-493q-8 0 -16.5 11t-14 34t-5.5 41
q0 21 5.5 42t14 30.5t16.5 9.5z" />
    <glyph glyph-name="greater" unicode="&#x3e;" horiz-adv-x="647" 
d="M636 280q0 -15 -10 -34t-33 -38q-50 -44 -186 -148.5t-154 -104.5q-10 0 -27 6t-54 40q-21 21 -33 37t-12 33q0 9 20.5 29t61.5 47.5t55 31.5h-204q-17 0 -27.5 26.5t-10.5 74.5q0 49 10.5 73t27.5 24h198q-13 10 -28 21t-38.5 26t-32 21t-15.5 12t-11.5 12t-4.5 12
q0 11 5.5 23.5t38.5 46.5q22 20 41 33t41 13q18 0 159.5 -107t179.5 -141q43 -42 43 -69z" />
    <glyph glyph-name="question" unicode="?" horiz-adv-x="576" 
d="M263 504q-17 0 -39.5 -7t-66.5 -26t-58 -19q-25 0 -49.5 29.5t-35 63.5t-10.5 59q0 26 40 48q37 22 98.5 38t120.5 16q148 0 225 -47t77 -138q0 -25 -8 -55t-27 -55t-43 -39.5t-49 -22.5q-46 -14 -53.5 -18t-10.5 -10t-3 -16l2 -35q0 -20 -24 -33t-108 -13
q-52 0 -84.5 4.5t-45.5 15t-14 25.5l-1 54q0 47 23 80t61 51.5t82 24.5q24 4 24 16q0 9 -23 9zM93 91q0 61 32 84.5t110 23.5q74 0 107.5 -24.5t33.5 -83.5q0 -53 -28 -78.5t-113 -25.5q-50 0 -79.5 7.5t-46 28.5t-16.5 68z" />
    <glyph glyph-name="at" unicode="@" horiz-adv-x="1240" 
d="M1232 324q0 -70 -24.5 -131t-69.5 -105.5t-108 -69t-137 -24.5q-110 0 -174 57q-24 -24 -59.5 -39.5t-95.5 -15.5q-42 0 -85 12.5t-81.5 45.5t-56.5 81.5t-18 95.5q0 43 12.5 85t42 77.5t82.5 57.5t128 22q34 0 62.5 -6t54 -19.5t31.5 -13.5t11 2.5t12 8.5q12 11 69 11
q48 0 75 -7.5t27 -21.5q0 -8 -6 -40.5t-17 -85t-13 -59.5q-4 -21 -4 -32q0 -29 10 -29q26 0 46 34.5t20 108.5q0 69 -29.5 119t-94 76t-171.5 26q-91 0 -164.5 -22t-124 -63.5t-76.5 -101.5t-26 -132q0 -59 20.5 -108t61 -84.5t102.5 -54.5t141 -19q52 0 119 9t73 9
q23 0 38 -24t22.5 -60.5t7.5 -69.5q0 -14 -6.5 -23t-26.5 -16q-30 -9 -96.5 -18t-146.5 -9t-158.5 13.5t-158 49.5t-141.5 101t-92.5 145.5t-30.5 153.5q0 135 52.5 236t144.5 165t214 95t258 31q82 0 175 -22.5t177 -76t129.5 -117.5t59.5 -115t14 -93zM652 213
q8 17 13.5 39.5t5.5 36.5q0 6 -11 9.5t-22 3.5q-68 0 -68 -78q0 -46 33 -46q16 0 29 10t20 25z" />
    <glyph glyph-name="A" unicode="A" horiz-adv-x="677" 
d="M677 165v-121q0 -22 -12.5 -33t-46.5 -11h-131q-22 0 -40.5 3.5t-27.5 13.5t-16 32l-27 113h-87l-26 -115q-6 -20 -16 -33.5t-38 -13.5h-172q-37 0 -37 38v132q0 30 20 82l164 406q9 21 41.5 28t108.5 7q85 0 118 -5t42 -26l172 -432q11 -26 11 -65zM351 348q-4 23 -8 34
t-12 11q-7 0 -11 -8.5t-8 -36.5h39z" />
    <glyph glyph-name="B" unicode="B" horiz-adv-x="646" 
d="M308 0h-239q-50 0 -50 63v560q0 31 11.5 47.5t39.5 16.5h236q151 0 219.5 -36.5t68.5 -123.5q0 -24 -9 -50t-29 -47t-43 -35q65 -24 96.5 -66t31.5 -105q0 -51 -23.5 -93t-67.5 -71t-106 -44.5t-136 -15.5zM317 267h-19v-81q0 -6 6 -6q31 0 45.5 12t14.5 30q0 21 -9.5 33
t-37.5 12zM307 517q-3 0 -6 -2t-3 -6v-44q14 0 21.5 6.5t7.5 26.5q0 19 -20 19z" />
    <glyph glyph-name="C" unicode="C" horiz-adv-x="656" 
d="M384 706q131 0 206 -46q66 -41 66 -65q0 -20 -31 -67.5t-60 -70.5t-49 -23q-8 0 -33 16.5t-47.5 24t-44.5 7.5q-25 0 -47.5 -14.5t-34.5 -49.5t-12 -74q0 -65 26.5 -103.5t75.5 -38.5q34 0 63 9t60.5 27t42.5 18q13 0 31.5 -25t38.5 -75t20 -67q0 -20 -18 -38t-53 -34
t-97.5 -29.5t-115.5 -13.5q-81 0 -148.5 24t-115.5 71t-74 117.5t-26 158.5t25.5 156.5t74 113.5t119 68t158.5 23z" />
    <glyph glyph-name="D" unicode="D" horiz-adv-x="741" 
d="M330 490h-16l-3 -4v-272l3 -2h13q37 0 63 9.5t40 36.5t14 98q0 53 -9.5 80t-34 40.5t-70.5 13.5zM327 0h-257q-50 0 -50 63v561q0 65 50 65h264q89 0 162.5 -20.5t126.5 -62.5t81.5 -107t28.5 -150q0 -90 -31 -157.5t-86 -109.5t-129 -62t-160 -20z" />
    <glyph glyph-name="E" unicode="E" horiz-adv-x="617" 
d="M503 255l-186 -27q-4 0 -4 -5v-8q0 -3 3 -3h265q9 0 17 -15.5t13.5 -46t5.5 -52.5q0 -19 -5.5 -45.5t-14 -39.5t-16.5 -13h-510q-51 0 -51 63v561q0 31 13.5 47.5t37.5 16.5h482q8 0 16.5 -12t14 -37t5.5 -46q0 -19 -5.5 -50.5t-13.5 -48.5t-17 -17h-236q-3 0 -4 -3v-9
q0 -3 6 -5l184 -24q8 -1 16 -13.5t13 -36.5t5 -44q0 -22 -5 -44t-13.5 -32t-15.5 -11z" />
    <glyph glyph-name="F" unicode="F" horiz-adv-x="583" 
d="M503 248l-186 -26q-4 0 -5 -4v-180q0 -20 -27.5 -33t-116.5 -13q-75 0 -111.5 11t-36.5 35v585q0 31 13.5 47.5t37.5 16.5h481q8 0 17 -11.5t14 -36.5t5 -46q0 -30 -10 -73t-26 -43h-245l-5 -4v-11q0 -2 0.5 -4t6.5 -3l194 -25q7 -1 15 -13t13 -36t5 -44q0 -22 -5 -44.5
t-13 -33t-15 -11.5z" />
    <glyph glyph-name="G" unicode="G" horiz-adv-x="695" 
d="M297 344q0 -82 19 -117.5t58 -35.5q21 0 39 6v33h-50q-33 0 -33 73q0 106 33 106h265q24 0 39 -11.5t15 -34.5v-262q0 -18 -16.5 -38t-62.5 -43q-93 -46 -222 -46q-86 0 -155.5 24t-118.5 71t-74.5 117.5t-25.5 160.5q0 177 99 268t291 91q120 0 194 -39q27 -14 46 -34
t19 -33q0 -19 -31 -65.5t-59.5 -69.5t-48.5 -23q-8 0 -30.5 13.5t-44.5 20t-50 6.5q-25 0 -47.5 -14.5t-35 -50t-12.5 -73.5z" />
    <glyph glyph-name="H" unicode="H" horiz-adv-x="765" 
d="M746 649v-610q0 -23 -34 -34t-110 -11t-113 11t-37 34v210l-63 -29l-8 -2l-8 2l-61 29v-210q0 -23 -33.5 -34t-109.5 -11t-113 11t-37 34v610q0 23 37 34t113 11t109.5 -11t33.5 -34v-184l64 28l10 2l10 -3l56 -27v184q0 19 30 32t119 13q76 0 110.5 -11t34.5 -34z" />
    <glyph glyph-name="I" unicode="I" horiz-adv-x="331" 
d="M312 649v-610q0 -23 -34 -34t-110 -11t-112.5 11t-36.5 34v610q0 19 30 32t119 13q76 0 110 -11t34 -34z" />
    <glyph glyph-name="J" unicode="J" horiz-adv-x="411" 
d="M32 686h309q26 0 36 -8.5t13.5 -23.5t3.5 -32v-441q0 -89 -44 -152t-129.5 -95t-187.5 -32q-10 0 -19.5 13.5t-15 40t-5.5 44.5q0 53 10.5 84.5t24.5 32.5q37 5 53 17.5t16 33.5v308h-65q-12 0 -20.5 26t-11.5 52.5t-3 37.5q0 22 5 46.5t13.5 36t16.5 11.5z" />
    <glyph glyph-name="K" unicode="K" horiz-adv-x="710" 
d="M567 362l116 -110q13 -12 20 -30t7 -37v-138q0 -47 -57 -47h-113q-30 0 -54.5 7.5t-37.5 31.5l-79 171q-1 3 -6.5 9t-15.5 8.5t-35 4.5v-193q0 -23 -34 -34t-110 -11t-112.5 11t-36.5 34v609q0 24 36.5 35t112.5 11t110 -11t34 -35v-154q42 0 58 28l64 125q9 19 24.5 31
t64.5 12h115q26 0 42.5 -9.5t16.5 -37.5v-118q0 -59 -11.5 -81.5t-31.5 -28.5l-85 -27q-9 -4 -9 -13q0 -6 7 -13z" />
    <glyph glyph-name="L" unicode="L" horiz-adv-x="592" 
d="M313 648v-432q0 -3 6 -3h238q9 0 17 -15t13 -44t5 -51q0 -30 -7.5 -58t-14.5 -36.5t-13 -8.5h-486q-24 0 -37.5 16t-13.5 47v585q0 19 30 32t119 13q77 0 110.5 -11t33.5 -34z" />
    <glyph glyph-name="M" unicode="M" horiz-adv-x="928" 
d="M299 281v-242q0 -23 -32 -34t-106 -11q-73 0 -107.5 11t-34.5 34v585q0 29 9 43t29.5 18.5t69.5 4.5h163q49 0 81 -6.5t44 -38.5l37 -101q2 -6 15 -6q9 0 12 7l43 107q8 18 30.5 28t87.5 10h160q49 0 69.5 -4.5t30 -18.5t9.5 -43v-585q0 -19 -26 -32t-112 -13
q-73 0 -107.5 11t-34.5 34v242q0 4 -8 4q-9 0 -11 -4l-28 -51q-8 -14 -32.5 -19.5t-80.5 -5.5q-61 0 -86 4.5t-34 19.5l-31 52q-3 4 -12 4q-7 0 -7 -4z" />
    <glyph glyph-name="N" unicode="N" horiz-adv-x="816" 
d="M795 648l1 -581q0 -30 -9.5 -44t-30.5 -18.5t-73 -4.5h-128q-68 0 -88 11.5t-32 33.5l-104 192q-8 16 -18 16q-13 0 -13 -11v-203q0 -23 -32 -34t-107 -11q-73 0 -107 11t-34 34v584q0 30 8.5 44t28 18.5t68.5 4.5h153q59 0 83.5 -10t38.5 -42l85 -189q6 -12 15 -12
q14 0 14 9v202q0 23 34.5 34t107.5 11q75 0 107 -11t32 -34z" />
    <glyph glyph-name="O" unicode="O" horiz-adv-x="760" 
d="M380 -26q-85 0 -155 24t-118.5 71t-74 117t-25.5 158t25.5 157t74 114.5t118 68.5t155.5 23q85 0 154.5 -23t118 -69t74.5 -114.5t26 -156.5t-26 -158t-74.5 -117t-118 -71t-154.5 -24zM380 493q-43 0 -63 -33.5t-20 -113.5q0 -76 18 -113t65 -37q44 0 64 35.5t20 114.5
q0 75 -18 111t-66 36z" />
    <glyph glyph-name="P" unicode="P" horiz-adv-x="644" 
d="M317 491q-6 0 -6 -6v-102q21 0 34 17t13 49q0 20 -9 31t-32 11zM70 688h232q88 0 153.5 -16t106.5 -46t60.5 -72.5t19.5 -96.5q0 -61 -23 -114.5t-66 -93t-105 -61t-136 -21.5v-128q0 -23 -33.5 -34t-110.5 -11q-75 0 -111.5 11t-36.5 34v585q0 31 13 47.5t37 16.5z" />
    <glyph glyph-name="Q" unicode="Q" horiz-adv-x="761" 
d="M381 -26q-85 0 -155 24t-118.5 71t-74 117t-25.5 158t25.5 157t74 114.5t118 68.5t155.5 23q85 0 154.5 -23t118 -69t74.5 -114.5t26 -156.5q0 -45 -10 -100t-38 -105.5t-69 -84.5l48 -54q10 -11 20 -25.5t10 -35.5q0 -2 -2.5 -10t-22.5 -30t-69 -48.5t-87 -26.5
q-10 0 -21 7.5t-23 31t-44 115.5q-42 -4 -65 -4zM381 493q-43 0 -63 -33.5t-20 -113.5q0 -76 18 -113t65 -37q44 0 64 35.5t20 114.5q0 75 -18 111t-66 36z" />
    <glyph glyph-name="R" unicode="R" horiz-adv-x="664" 
d="M383 29l-64 162h-6v-153q0 -24 -37 -35t-116 -11q-72 0 -106 11t-34 35v585q0 32 13.5 48.5t37.5 16.5h218q189 0 278 -53.5t89 -172.5q0 -132 -103 -181l66 -29q35 -15 35 -69v-134q0 -49 -58 -49h-109q-45 0 -70 5.5t-34 23.5zM315 488q-3 0 -3 -4v-86q29 0 44 10.5
t15 43.5q0 17 -7.5 26.5t-48.5 9.5z" />
    <glyph glyph-name="S" unicode="S" horiz-adv-x="629" 
d="M321 706q35 0 84.5 -5.5t101 -24t82 -44t30.5 -41.5q0 -26 -17 -63.5t-37.5 -61t-40.5 -23.5q-2 0 -11 1.5t-91 27t-124 25.5q-5 0 -9.5 -3t-4.5 -8q0 -6 13 -11.5t87 -20.5q125 -25 183.5 -79t58.5 -147q0 -67 -24 -116t-67 -79t-102 -44t-130 -14q-68 0 -126 11
t-98 28.5t-61 37.5t-21 37q0 19 19 61.5t41.5 70t42.5 27.5q4 0 11 -2t31 -15q44 -24 91 -38.5t78 -14.5t40.5 3t9.5 10q0 4 -7.5 7.5t-56.5 10.5q-88 13 -146.5 44.5t-91.5 84t-33 129.5q0 115 75.5 177t219.5 62z" />
    <glyph glyph-name="T" unicode="T" horiz-adv-x="675" 
d="M36 688h603q8 0 17 -11.5t14 -35.5t5 -45q0 -30 -10 -73t-26 -43h-148q-7 0 -7 -5v-436q0 -23 -34 -34t-110 -11t-112.5 11t-36.5 34v436q0 5 -7 5h-148q-16 0 -26 43t-10 73q0 21 5 45t14 35.5t17 11.5z" />
    <glyph glyph-name="U" unicode="U" horiz-adv-x="711" 
d="M698 648v-326q0 -90 -23 -155t-67 -105t-108 -58t-148 -18q-124 0 -196.5 37t-107.5 109t-35 185v331q0 24 36.5 35t112.5 11q77 0 110.5 -11t33.5 -35v-295q0 -58 3.5 -85t14 -40t32.5 -13q18 0 30 11t15.5 40t3.5 87v295q0 24 36.5 35t111.5 11q77 0 111 -11t34 -35z
" />
    <glyph glyph-name="V" unicode="V" horiz-adv-x="696" 
d="M367 352l56 288q6 32 28 40t54 8h133q26 0 42 -9t16 -37v-118q0 -37 -11 -63l-181 -435q-7 -17 -33.5 -24.5t-126.5 -7.5q-61 0 -86.5 2t-41.5 9t-22 22l-173 410q-21 48 -21 82v117q0 52 60 52h150q18 0 32 -7t22 -40l70 -290q3 -16 17 -16q12 0 16 17z" />
    <glyph glyph-name="W" unicode="W" horiz-adv-x="1023" 
d="M706 390l45 251q4 21 14 34t41 13h159q25 0 41.5 -9t16.5 -36v-119q0 -24 -3.5 -43.5t-13.5 -43.5l-157 -407q-6 -16 -34 -26t-118 -10q-98 0 -127.5 8.5t-32.5 23.5l-31 157l-31 -153q-7 -36 -157 -36q-77 0 -113.5 6t-43.5 26l-140 403q-21 60 -21 90v117q0 52 60 52
h155q47 0 54 -47l34 -252q3 -16 16 -16q15 0 18 17l53 251q11 48 62 48h122q43 0 52 -49l46 -251q4 -16 15 -16q17 0 19 17z" />
    <glyph glyph-name="X" unicode="X" horiz-adv-x="714" 
d="M19 213l141 127l-118 81q-33 23 -33 83v133q0 53 56 53h142q76 0 100 -49l52 -103q1 -3 7 -4q5 0 9 5l49 102q12 25 35 37t70 12h114q26 0 42.5 -9.5t16.5 -36.5v-122q0 -60 -33 -88l-95 -90l107 -82q33 -33 33 -68v-144q0 -24 -12.5 -37t-45.5 -13h-150
q-32 0 -53.5 11.5t-33.5 37.5l-51 105q-2 3 -8 3q-4 0 -8 -4l-48 -104q-27 -49 -82 -49h-167q-21 0 -38 12.5t-17 39.5v80q0 64 19 81z" />
    <glyph glyph-name="Y" unicode="Y" horiz-adv-x="658" 
d="M469 282v-243q0 -19 -27.5 -32t-117.5 -13q-74 0 -109 11t-35 34v247l-156 172q-22 30 -22 81v97q0 53 60 53h106q30 0 51 -8t40 -40l56 -96q8 -8 12 -8q2 0 6.5 3t6.5 6l54 95q15 25 34.5 36.5t57.5 11.5h112q26 0 42 -9t16 -37v-105q0 -22 -5.5 -43.5t-14.5 -34.5z" />
    <glyph glyph-name="Z" unicode="Z" horiz-adv-x="603" 
d="M552 464l-209 -238q-1 -1 -3.5 -4t-3.5 -5t-1 -3q2 -3 7 -3h226q16 0 25.5 -38.5t9.5 -71.5q0 -29 -9 -65t-25 -36h-488q-37 0 -54 7t-22 24.5t-5 39.5q0 86 3.5 120.5t18.5 51.5l194 219l5 7l-7 2h-169q-9 0 -16.5 17t-12.5 48.5t-5 50.5q0 21 5 48t13.5 39.5t16.5 12.5
h494q20 0 31 -11.5t11 -64.5q0 -76 -5 -100.5t-25 -46.5z" />
    <glyph glyph-name="bracketleft" unicode="[" horiz-adv-x="407" 
d="M292 530v-464h57q12 0 19.5 -22t7.5 -64q0 -82 -27 -82h-254q-47 0 -55 11.5t-8 34.5v708q0 31 12 39t51 8h254q27 0 27 -83q0 -42 -7.5 -64t-19.5 -22h-57z" />
    <glyph glyph-name="backslash" unicode="\" horiz-adv-x="524" 
d="M265 28l-269 592q-9 18 -9 41q0 41 138 41q77 0 100.5 -11t33.5 -32l270 -596q11 -22 11 -38q0 -11 -13.5 -20t-46.5 -13t-83 -4q-75 0 -100 10.5t-32 29.5z" />
    <glyph glyph-name="bracketright" unicode="]" horiz-adv-x="407" 
d="M115 66v464h-57q-12 0 -19 21.5t-7 64.5q0 83 26 83h255q46 0 54.5 -12t8.5 -35v-708q0 -15 -4 -26.5t-17 -15.5t-42 -4h-255q-26 0 -26 82q0 43 7 64.5t19 21.5h57z" />
    <glyph glyph-name="asciicircum" unicode="^" horiz-adv-x="663" 
d="M334 697q39 0 69 -2t40 -13l173 -192q30 -33 30 -44q0 -17 -47.5 -36.5t-95.5 -19.5q-71 0 -117 51q-39 41 -54 60q-39 -46 -54 -60q-57 -51 -117 -51q-23 0 -55.5 7t-60 21.5t-27.5 27.5q0 12 23 37l181 199q14 15 112 15z" />
    <glyph glyph-name="underscore" unicode="_" horiz-adv-x="530" 
d="M24 16h483q8 0 16.5 -10t13.5 -32t5 -43q0 -18 -5 -41.5t-13.5 -35t-16.5 -11.5h-483q-8 0 -16.5 11.5t-14 35t-5.5 41.5q0 22 5 43.5t14 31.5t17 10z" />
    <glyph glyph-name="grave" unicode="`" horiz-adv-x="350" 
d="M50 562q-30 19 -40 28.5t-10 23.5q0 29 38 77.5t64 48.5q34 0 72 -34q83 -65 112 -94q1 -1 17.5 -16.5t26.5 -27.5t10 -23q0 -15 -10.5 -34.5t-32.5 -34.5t-38 -15q-10 0 -32 7.5t-48 21.5q-96 52 -129 72z" />
    <glyph glyph-name="a" unicode="a" horiz-adv-x="562" 
d="M224 180q0 -13 24 -13q33 0 67 10v18q-20 0 -68 -4q-9 -1 -16 -3.5t-7 -7.5zM445 -13q-23 0 -45.5 5t-29.5 15l-14 22q-8 13 -15 13q-8 0 -23 -10q-31 -20 -55 -32t-63 -12q-59 0 -103 19.5t-69 59.5t-25 90q0 169 289 169q8 0 12.5 4t4.5 8q0 12 -30 12
q-34 0 -104.5 -14t-76.5 -14q-16 0 -29 21t-21.5 52.5t-8.5 50.5q0 15 6 24t28 23q33 21 94.5 33t123.5 12q51 0 97.5 -11t83 -35.5t57.5 -64.5t21 -94v-310q0 -18 -18.5 -27t-86.5 -9z" />
    <glyph glyph-name="b" unicode="b" horiz-adv-x="615" 
d="M300 259q0 33 -2 53t-14 20q-6 0 -10 -9.5t-4 -42.5v-86q17 0 23.5 14t6.5 51zM368 540q120 0 180 -62.5t60 -194.5q0 -70 -23.5 -126t-66 -94t-102 -57t-128.5 -19q-167 0 -229 13q-23 5 -34 13t-11 33v605q0 22 33.5 32.5t109.5 10.5q73 0 105 -10.5t32 -32.5v-117
q45 6 74 6z" />
    <glyph glyph-name="c" unicode="c" horiz-adv-x="567" 
d="M357 341q-29 0 -48.5 -18.5t-19.5 -47.5t15.5 -45.5t34 -21t31.5 -4.5q18 0 37.5 6.5t47 21.5t36.5 15q11 0 28 -27t32.5 -70.5t15.5 -74.5q0 -8 -12.5 -22t-40 -28.5t-75 -24.5t-112.5 -10q-59 0 -117 19.5t-103.5 56.5t-72.5 91.5t-27 120.5q0 65 25 115t69.5 82.5
t104.5 48t130 15.5q54 0 102 -11t79 -28q18 -9 29 -17t11 -21t-19.5 -61.5t-38 -73t-32.5 -24.5q-7 0 -45.5 19t-64.5 19z" />
    <glyph glyph-name="d" unicode="d" horiz-adv-x="614" 
d="M240 -14q-40 0 -81.5 17t-75.5 51.5t-55 88.5t-21 123q0 134 59 204t171 70q11 0 39.5 -2t43.5 -5v118q0 22 34 32.5t110 10.5q71 0 103.5 -10.5t32.5 -32.5v-629q0 -18 -21 -27t-92 -9q-26 0 -48 5.5t-28 15.5l-13 22q-6 13 -17 13q-9 0 -22 -11q-54 -45 -119 -45z
M330 197q9 0 14 15t5 55q0 43 -4.5 54t-14.5 11t-15 -13.5t-5 -51.5q0 -35 4 -52.5t16 -17.5z" />
    <glyph glyph-name="e" unicode="e" horiz-adv-x="605" 
d="M284 336h49q2 0 5.5 1.5t3.5 10.5t-7.5 15t-21.5 6q-10 0 -19.5 -10t-9.5 -23zM364 171q40 0 101 11.5t77 11.5q18 0 33 -41.5t15 -93.5q0 -13 -36 -31.5t-95.5 -28t-122.5 -9.5q-73 0 -134 18t-104.5 54t-67 88.5t-23.5 119.5q0 66 23.5 117.5t66 85t99 50t121.5 16.5
q54 0 105 -16.5t90.5 -49.5t62.5 -81t23 -108q0 -38 -7.5 -53t-25.5 -18t-42 -3h-229q0 -18 20 -28.5t50 -10.5z" />
    <glyph glyph-name="f" unicode="f" horiz-adv-x="509" 
d="M356 480l102 -17q18 -3 27 -11.5t9 -37.5q0 -71 -25 -76l-120 -28v-274q0 -18 -26 -30t-112 -12q-73 0 -107.5 10t-34.5 32v275l-44 22q-9 4 -17 14.5t-8 57.5q0 31 5.5 45t25.5 21l39 13v27q0 97 67 142.5t208 45.5q52 0 96 -6.5t71 -21.5t27 -40q0 -38 -11.5 -78
t-25.5 -53.5t-28 -13.5q-5 0 -36 5t-52 5q-14 0 -22 -3t-8 -13z" />
    <glyph glyph-name="g" unicode="g" horiz-adv-x="622" 
d="M622 467q0 -96 -29 -96l-43 4q-11 0 -11 -7q0 -8 8 -12q16 -8 24.5 -22.5t8.5 -29.5q0 -121 -256 -121l-63 1q-2 -1 -3 -13q0 -9 37 -9h109q102 0 157.5 -41.5t55.5 -119.5q0 -101 -83.5 -144t-243.5 -43q-91 0 -156.5 12.5t-99.5 40t-34 72.5q0 33 22 54.5t65 26.5
q-35 12 -57 39t-22 51q0 27 21.5 60t77.5 62q-39 19 -59.5 51.5t-20.5 68.5q0 96 68.5 142t212.5 46q23 0 66.5 -4t59.5 -4q27 0 73 3.5t76 3.5q18 0 28.5 -10.5t10.5 -61.5zM367 -20q0 9 -24 9h-90q-7 -7 -7 -13t9 -10.5t51 -4.5q29 0 45 3t16 16zM275 360q0 -7 5.5 -11.5
t33.5 -4.5q36 0 36 17q0 19 -39 19q-16 0 -26 -4t-10 -16z" />
    <glyph glyph-name="h" unicode="h" horiz-adv-x="615" 
d="M359 538q59 0 104 -13t76.5 -41t47.5 -74.5t16 -112.5v-262q0 -21 -33 -31t-105 -10q-73 0 -107.5 10t-34.5 31v214q0 33 -2 51t-14 18q-10 0 -11.5 -16.5t-1.5 -51.5v-215q0 -18 -26.5 -29.5t-112.5 -11.5q-72 0 -106.5 10t-34.5 31v617q0 18 27.5 30t114.5 12
q72 0 105 -10t33 -32v-124q7 3 25 6.5t40 3.5z" />
    <glyph glyph-name="i" unicode="i" horiz-adv-x="319" 
d="M307 489v-450q0 -23 -34 -34t-110 -11t-112.5 11t-36.5 34v450q0 19 30 32t119 13q76 0 110 -11t34 -34zM7 644q0 30 10 50t38 29t105 9q58 0 89 -6.5t46.5 -26t15.5 -55.5q0 -46 -30.5 -64.5t-120.5 -18.5q-53 0 -87.5 5.5t-50 24.5t-15.5 53z" />
    <glyph glyph-name="j" unicode="j" horiz-adv-x="323" 
d="M31 111v382q0 18 28 30t115 12q73 0 105 -10t32 -32v-405q0 -52 -18 -100.5t-59.5 -88t-111.5 -63t-166 -23.5q-11 0 -20.5 13.5t-14.5 45.5t-5 72q0 73 30 81q56 14 68.5 30.5t14.5 30.5t2 25zM21 645q0 30 10 50t38 29t105 9q58 0 89 -6.5t46.5 -26t15.5 -55.5
q0 -46 -30.5 -64.5t-120.5 -18.5q-53 0 -87.5 5.5t-50 24.5t-15.5 53z" />
    <glyph glyph-name="k" unicode="k" horiz-adv-x="663" 
d="M611 301l-94 -15q-12 -1 -12 -9q0 -5 10 -8l110 -24q25 -7 25 -56v-139q0 -29 -8.5 -39.5t-33.5 -10.5h-172q-50 0 -58 26l-36 118q-10 32 -48 32v-140q0 -18 -26.5 -30t-113.5 -12q-72 0 -106 10t-34 31v617q0 18 27 30t114 12q139 0 139 -42v-245q26 1 34 5t14 14
l45 73q8 13 20 20t37 7h155q22 0 33.5 -10t11.5 -39v-122q0 -24 -8.5 -38t-24.5 -16z" />
    <glyph glyph-name="l" unicode="l" horiz-adv-x="307" 
d="M293 652v-616q0 -18 -26 -30t-112 -12q-72 0 -106.5 10t-34.5 31v617q0 18 27.5 30t114.5 12q73 0 105 -10t32 -32z" />
    <glyph glyph-name="m" unicode="m" horiz-adv-x="916" 
d="M373 538q33 0 63 -9.5t67 -36.5q27 20 64.5 34t71.5 14q62 0 100 -7.5t68.5 -24.5t52.5 -45.5t33 -67t11 -90.5v-270q0 -18 -26 -30t-112 -12q-73 0 -107.5 10t-34.5 32v214q0 32 -2.5 50t-14.5 18q-8 0 -10.5 -11.5t-2.5 -55.5v-215q0 -18 -25 -30t-108 -12
q-71 0 -104 10t-33 32v214q0 32 -2.5 50t-13.5 18q-9 0 -11.5 -11.5t-2.5 -55.5v-215q0 -18 -26 -30t-112 -12q-73 0 -107.5 10t-34.5 32v469q0 18 21 27.5t93 9.5q26 0 48.5 -6t27.5 -15l12 -23q6 -12 19 -12q7 0 22 11q35 27 59.5 34.5t56.5 7.5z" />
    <glyph glyph-name="n" unicode="n" horiz-adv-x="615" 
d="M256 496q54 42 103 42q59 0 104 -13t76.5 -41t47.5 -74.5t16 -112.5v-262q0 -18 -26.5 -30t-111.5 -12q-73 0 -107.5 10t-34.5 32v214q0 32 -2 50t-14 18q-4 0 -7.5 -3t-4.5 -22t-1 -42v-215q0 -18 -26.5 -30t-112.5 -12q-72 0 -106.5 10t-34.5 32v469q0 18 21 27.5
t92 9.5q26 0 49 -6t28 -15l11 -23q7 -12 18 -12q9 0 23 11z" />
    <glyph glyph-name="o" unicode="o" horiz-adv-x="658" 
d="M330 -9q-64 0 -122 15t-103 47.5t-71.5 86t-26.5 125.5q0 53 18 104t59 89t103 60t143 22q64 0 122 -15.5t102.5 -48.5t70.5 -86.5t26 -124.5q0 -54 -17.5 -105t-58 -88.5t-102 -59t-143.5 -21.5zM330 197q9 0 14 15t5 55q0 43 -4.5 54t-14.5 11t-15 -13.5t-5 -51.5
q0 -35 4 -52.5t16 -17.5z" />
    <glyph glyph-name="p" unicode="p" horiz-adv-x="615" 
d="M293 -16l1 -129q0 -43 -139 -43q-72 0 -106.5 10.5t-34.5 32.5v649q0 18 21 27.5t92 9.5q25 0 43.5 -5.5t23.5 -15.5l12 -23q6 -12 18 -12q9 0 22 11q24 18 54.5 30t76.5 12q121 0 176 -59.5t55 -195.5q0 -77 -28 -135t-74 -93.5t-101.5 -52.5t-111.5 -18zM300 259
q0 33 -2 53t-14 20q-6 0 -10 -9.5t-4 -42.5v-86q17 0 23.5 14t6.5 51z" />
    <glyph glyph-name="q" unicode="q" horiz-adv-x="636" 
d="M247 540q31 0 62 -9t72 -36q13 -10 22 -10q10 0 16 13l15 22q4 8 21 14t44 6q74 0 94 -8.5t20 -27.5v-405q0 -32 4.5 -49.5t32.5 -24.5q30 -8 30 -81q0 -40 -5.5 -72t-15 -45.5t-20.5 -13.5h-76q-105 0 -163 43t-58 120v22q-20 -3 -84 -3q-117 0 -184 68.5t-67 202.5
q0 62 16 113t47 87t76 55t101 19zM330 197q9 0 14 15t5 55q0 43 -4.5 54t-14.5 11t-15 -13.5t-5 -51.5q0 -35 4 -52.5t16 -17.5z" />
    <glyph glyph-name="r" unicode="r" horiz-adv-x="441" 
d="M387 541l20 -1q13 0 19.5 -15t6.5 -64q0 -66 -9.5 -113t-27.5 -47h-33q-41 0 -55 -13t-14 -39v-214q0 -18 -26.5 -30t-112.5 -12q-72 0 -106.5 10t-34.5 32v469q0 18 21 27.5t93 9.5q26 0 49 -5.5t27 -15.5l18 -30q5 -12 15 -12q7 0 21 12q45 36 72.5 43.5t56.5 7.5z" />
    <glyph glyph-name="s" unicode="s" horiz-adv-x="536" 
d="M263 -10q-34 0 -80.5 3.5t-91.5 16t-68 30.5t-23 31q0 36 21.5 87.5t43.5 51.5q2 0 20.5 -9t35.5 -16t37 -13t40 -8.5t35 -2.5q24 0 24 9q0 13 -24 17q-95 12 -127 27t-52 47.5t-20 86.5q0 62 30.5 103.5t88 64.5t142.5 23q123 0 200 -43q28 -15 28 -33q0 -12 -9 -40.5
t-28.5 -58.5t-37.5 -30q-1 0 -5.5 0.5t-63.5 15t-80 14.5q-16 0 -16 -9q0 -11 25 -14q108 -17 151.5 -41t60 -51.5t16.5 -58.5q0 -62 -31.5 -105.5t-92 -69t-149.5 -25.5z" />
    <glyph glyph-name="t" unicode="t" horiz-adv-x="581" 
d="M97 231v117l-70 25q-13 1 -20 23.5t-7 58.5q0 34 9.5 54.5t25.5 22.5l63 20v34q0 18 30.5 35t91.5 29.5t94 12.5q36 0 49.5 -8.5t13.5 -23.5v-75l134 -23q20 -4 30 -18.5t10 -50.5q0 -79 -39 -88l-134 -29v-55q0 -22 8.5 -39t24 -25t29.5 -8q15 0 41 4.5t32 4.5
q12 0 27.5 -21.5t29.5 -67.5t14 -74q0 -16 -14.5 -28.5t-41.5 -23t-77.5 -18.5t-99.5 -8q-82 0 -140.5 30.5t-86 85t-27.5 127.5z" />
    <glyph glyph-name="u" unicode="u" horiz-adv-x="615" 
d="M359 31q-23 -19 -47 -30.5t-56 -11.5q-59 0 -104 13t-76.5 41t-47.5 74.5t-16 112.5v262q0 18 26.5 30t111.5 12q73 0 107.5 -10t34.5 -32v-214q0 -33 2 -50.5t14 -17.5q4 0 7.5 3t4.5 22t1 42v215q0 18 26.5 30t112.5 12q72 0 106.5 -10t34.5 -32v-469q0 -18 -21 -27.5
t-92 -9.5q-26 0 -49 6t-28 15l-11 23q-6 12 -18 12q-10 0 -23 -11z" />
    <glyph glyph-name="v" unicode="v" horiz-adv-x="603" 
d="M0 346v128q0 52 60 52h117q72 0 84 -39l27 -147q2 -12 7 -20.5t11 -8.5q10 0 14 29l22 147q5 17 21 28t63 11h121q56 0 56 -47v-133q0 -29 -18 -68l-143 -250q-4 -9 -23 -17.5t-53.5 -14t-61.5 -5.5q-59 0 -100 11t-48 27l-136 249q-6 12 -13 27.5t-7 40.5z" />
    <glyph glyph-name="w" unicode="w" horiz-adv-x="872" 
d="M0 348v126q0 52 61 52h116q37 0 58 -10t25 -33l11 -144q1 -22 17 -22q6 0 9.5 6t3.5 14l5 150q3 17 9 25.5t20.5 11t33.5 2.5h138q27 0 42.5 -7.5t20.5 -31.5l11 -148q1 -22 17 -22q4 0 8.5 5t4.5 15l5 150q2 17 16 28t62 11h123q55 0 55 -47v-113q0 -16 -3.5 -43.5
t-8.5 -38.5l-132 -256q-9 -17 -52 -27t-81 -10q-61 0 -98.5 10t-43.5 28l-16 76l-18 -77q-3 -9 -21.5 -17.5t-51.5 -14t-60 -5.5q-61 0 -99 10t-44 28l-130 274q-8 17 -10.5 24t-2.5 21z" />
    <glyph glyph-name="x" unicode="x" horiz-adv-x="584" 
d="M271 101l-35 -74q-15 -27 -49 -27h-121q-26 0 -42.5 8.5t-16.5 35.5v131q0 41 18 55l82 38l-73 35q-19 14 -19 46v125q0 52 61 52h148q36 0 54 -27l19 -52q2 -4 9 -9q2 0 4.5 3.5t3.5 5.5l14 54q13 25 51 25h135q55 0 55 -48v-117q0 -31 -17 -47l-71 -37l77 -50
q19 -19 19 -52v-132q0 -22 -12.5 -32.5t-47.5 -10.5h-152q-34 0 -48 27l-27 73q-5 8 -10 8t-9 -7z" />
    <glyph glyph-name="y" unicode="y" horiz-adv-x="625" 
d="M625 479v-131q0 -36 -18 -68l-236 -437q-7 -14 -35.5 -23t-118.5 -9q-136 0 -136 45q0 14 13 42q4 6 34 67.5t34 74.5l-144 240q-6 10 -12 24.5t-6 43.5v127q0 51 59 51h117q39 0 58.5 -8t25.5 -30l40 -148q9 -29 17 -29q7 0 14 29l34 147q5 22 25 30.5t59 8.5h120
q56 0 56 -47z" />
    <glyph glyph-name="z" unicode="z" horiz-adv-x="559" 
d="M362 201h164q28 0 28 -101q0 -100 -28 -100h-455q-31 0 -48.5 10t-17.5 59q0 46 2 70t18 38l169 146h-143q-28 0 -28 96q0 107 28 107h423q24 0 40 -6t20.5 -21.5t4.5 -49.5q0 -59 -4 -77t-17 -30z" />
    <glyph glyph-name="braceleft" unicode="{" horiz-adv-x="472" 
d="M261 317v-22q4 -1 16.5 -6.5t37.5 -21.5t47 -46t22 -62v-74q0 -19 9 -30t17 -11h28q22 0 22 -75q0 -74 -25 -74h-147q-94 0 -138 49.5t-44 147.5v70q0 23 -16.5 46t-46.5 43q-20 7 -26 17.5t-6 37.5q0 20 4 33t28 22q30 20 46.5 43t16.5 46v70q0 98 44 147.5t138 49.5
h147q25 0 25 -74q0 -75 -22 -75h-28q-8 0 -17 -11t-9 -30v-74q0 -22 -15.5 -48.5t-47.5 -52.5t-60 -35z" />
    <glyph glyph-name="bar" unicode="|" horiz-adv-x="333" 
d="M302 713v-857q0 -18 -25 -30t-108 -12q-73 0 -105 10t-32 32v857q0 18 26 30t111 12q71 0 102 -10t31 -32z" />
    <glyph glyph-name="braceright" unicode="}" horiz-adv-x="472" 
d="M211 295v22q-28 9 -60 35t-47.5 52.5t-15.5 48.5v74q0 18 -8 29.5t-18 11.5h-28q-22 0 -22 75q0 74 25 74h147q94 0 138 -49.5t44 -147.5v-70q0 -23 16.5 -46t46.5 -43q20 -7 26 -17.5t6 -37.5q0 -20 -4 -33t-28 -22q-30 -20 -46.5 -43t-16.5 -46v-70q0 -98 -44 -147.5
t-138 -49.5h-147q-25 0 -25 74q0 75 22 75h28q10 0 18 11.5t8 29.5v74q0 31 22 61.5t50.5 49t50.5 25.5z" />
    <glyph glyph-name="cent" unicode="&#xa2;" 
d="M409 335q-29 0 -48.5 -18.5t-19.5 -47.5t15.5 -45.5t34 -21t31.5 -4.5q18 0 37.5 6.5t47 21.5t36.5 15q11 0 28 -27t32.5 -70.5t15.5 -74.5q0 -13 -23 -32t-67 -33.5t-110 -18.5v-55q0 -7 -3 -13t-30 -6q-21 0 -29 3t-8 15v56q-56 5 -108.5 26t-93.5 58t-64.5 89
t-23.5 114q0 76 33 131t97.5 89t161.5 40v69q0 12 4.5 17.5t27.5 5.5q19 0 28.5 -2.5t9.5 -19.5v-70q44 -3 82.5 -13.5t65.5 -24.5q18 -9 29 -17t11 -21t-19.5 -61.5t-38 -73t-32.5 -24.5q-7 0 -45.5 19t-64.5 19z" />
    <glyph glyph-name="sterling" unicode="&#xa3;" 
d="M103 421l1 40q2 119 73.5 180.5t219.5 61.5q45 0 91 -11.5t82 -36t59 -59t23 -70.5q0 -9 -22.5 -25.5t-69 -33.5t-73.5 -17q-22 0 -38.5 18t-25 21t-13.5 3q-15 0 -22 -14.5t-7 -57.5h174q8 0 16.5 -12.5t13.5 -38t5 -46.5q0 -20 -5 -43.5t-13.5 -34t-16.5 -10.5h-174
v-32h252q16 0 25.5 -36t9.5 -69q0 -21 -5 -47t-13.5 -38.5t-16.5 -12.5h-559q-8 0 -17 12.5t-14 38t-5 46.5q0 30 5 57t14 38t17 11h30v32h-37q-8 0 -16.5 10.5t-13.5 34t-5 43.5q0 21 5 47t13.5 38.5t16.5 12.5h36z" />
    <glyph glyph-name="section" unicode="&#xa7;" horiz-adv-x="741" 
d="M483 509q-31 0 -70 -8.5t-62 -33.5t-23 -59q0 -22 9.5 -63.5t9.5 -83.5q0 -51 -20.5 -89.5t-58 -62t-87.5 -23.5q-45 0 -95 21.5t-50 44.5q0 8 15.5 20.5t22.5 26t9.5 29.5t2.5 32q0 43 -14 98.5t-14 91.5q0 43 13 87t52 82.5t116 64t219 25.5q65 0 120.5 -10.5
t84.5 -25.5q45 -23 45 -55q0 -35 -24.5 -82t-45.5 -47q-4 0 -56.5 10t-98.5 10zM258 14q31 0 70 8.5t62 33.5t23 59q0 22 -9.5 63.5t-9.5 83.5q0 51 20.5 89.5t58 62t87.5 23.5q45 0 95 -21.5t50 -44.5q0 -8 -15.5 -20.5t-22.5 -26t-9.5 -29.5t-2.5 -32q0 -43 14 -98.5
t14 -91.5q0 -43 -13 -87t-52 -82.5t-116 -64t-219 -25.5q-65 0 -120.5 10.5t-84.5 25.5q-45 23 -45 55q0 35 24.5 82t45.5 47q4 0 56.5 -10t98.5 -10z" />
    <glyph glyph-name="dieresis" unicode="&#xa8;" horiz-adv-x="506" 
d="M37 627q0 35 10 49.5t31.5 17.5t55.5 3q45 0 65 -6.5t25.5 -23.5t5.5 -40q0 -26 -6 -43t-25.5 -23t-64.5 -6q-47 0 -66.5 6t-25 22.5t-5.5 43.5zM270 627q0 35 10 49.5t31.5 17.5t54.5 3q71 0 84 -17.5t13 -52.5q0 -26 -6 -43t-25.5 -23t-65.5 -6q-47 0 -66 6t-24.5 22.5
t-5.5 43.5z" />
    <glyph glyph-name="copyright" unicode="&#xa9;" horiz-adv-x="760" 
d="M382 646q81 0 147 -21.5t112.5 -64t71.5 -107t25 -147.5q0 -74 -26.5 -134.5t-75 -102.5t-116 -64t-146.5 -22q-83 0 -149 22t-111 63.5t-68.5 102t-23.5 135.5q0 82 25.5 146.5t72.5 107.5t114 64.5t148 21.5zM421 362q-16 0 -31 -9.5t-15 -26.5q0 -25 14.5 -36
t33.5 -11q15 0 39 11t31 11q22 0 44 -45q18 -36 18 -60q0 -10 -22 -23.5t-62.5 -25.5t-84.5 -12q-41 0 -78.5 12.5t-66.5 37t-45.5 60.5t-16.5 80q0 53 26 91.5t73 61t108 22.5q88 0 140 -28q11 -6 17.5 -13t6.5 -17q0 -5 -8.5 -26t-24 -45.5t-27.5 -24.5q-8 0 -28 8t-41 8z
M382 571q-61 0 -111.5 -17t-86 -50t-54 -82.5t-18.5 -112.5q0 -118 68.5 -184t194.5 -66q60 0 111 17t88 49.5t57 79.5t20 104q0 128 -70 195t-199 67z" />
    <glyph glyph-name="guillemotleft" unicode="&#xab;" horiz-adv-x="790" 
d="M653 277l2 -2t39.5 -40t69 -78t30.5 -56q0 -18 -38 -32.5t-96 -14.5q-42 0 -74.5 5.5t-53.5 25.5q-41 39 -124 137q-34 38 -34 55q0 7 8 21.5t26 33.5q86 97 124 137q15 16 43 23t85 7q43 0 76 -8t45.5 -19t12.5 -20q0 -16 -27 -50.5t-70 -78.5t-44 -46zM296 277l2 -2
t39.5 -40t69 -78t30.5 -56q0 -18 -38 -32.5t-96 -14.5q-42 0 -74.5 5.5t-53.5 25.5q-41 39 -124 137q-34 38 -34 55q0 7 8 21.5t26 33.5q86 97 124 137q15 16 43 23t85 7q43 0 76 -8t45.5 -19t12.5 -20q0 -16 -27 -50.5t-70 -78.5t-44 -46z" />
    <glyph glyph-name="registered" unicode="&#xae;" horiz-adv-x="504" 
d="M256 261q-52 0 -96.5 16.5t-75.5 45.5t-48 69t-17 85q0 34 10.5 71t41.5 73.5t81 55t104 18.5q53 0 97.5 -16.5t75 -46t46.5 -69.5t16 -86q0 -33 -11 -70t-42.5 -73t-80.5 -54.5t-101 -18.5zM287 404l-30 41h-4v-39q0 -11 -41 -11q-40 0 -40 11v155q0 5 3.5 10.5
t10.5 5.5h63q54 0 78.5 -13.5t24.5 -44.5q0 -15 -9 -28t-25 -18l31 -13q5 -5 5 -21v-31q0 -11 -15 -11h-21q-24 0 -31 7zM245 531l-1 -34h7q7 0 13 4t6 11q0 19 -18 19h-7zM253 332q43 0 76.5 17.5t55.5 50.5t22 78q0 64 -42 105.5t-112 41.5q-69 0 -111 -42t-42 -105
q0 -37 19 -72.5t55.5 -54.5t78.5 -19z" />
    <glyph glyph-name="macron" unicode="&#xaf;" horiz-adv-x="463" 
d="M28 691h406q17 0 26 -22.5t9 -51.5q0 -19 -5 -39t-13.5 -29.5t-16.5 -9.5h-406q-8 0 -16.5 9.5t-14 30t-5.5 38.5q0 20 5.5 39t14 27t16.5 8z" />
    <glyph glyph-name="degree" unicode="&#xb0;" horiz-adv-x="493" 
d="M424 521q0 -34 -16 -68t-44.5 -60t-67 -41.5t-81.5 -15.5q-54 0 -102.5 23t-74 66t-25.5 89q0 37 14 67t36.5 54.5t63.5 44.5t94 20q89 0 146 -51t57 -128zM349 520q0 22 -12 48.5t-43 44.5t-71 18q-25 0 -56 -11.5t-53.5 -40.5t-22.5 -63t21 -61.5t50.5 -38.5t55.5 -11
t56.5 12.5t52.5 42t22 60.5z" />
    <glyph glyph-name="uni00B2" unicode="&#xb2;" horiz-adv-x="377" 
d="M178 687q84 0 128 -31t44 -81q0 -14 -8 -33t-31 -40.5t-65 -38.5h92q8 0 14.5 -21t6.5 -44q0 -14 -5 -31.5t-9.5 -21t-6.5 -3.5h-251q-36 0 -48.5 10.5t-12.5 35.5v23q0 11 8 23.5t24 21.5q61 31 94.5 60.5t33.5 45.5q0 4 -6 7.5t-16 3.5q-11 0 -34 -13.5t-26 -13.5
q-13 0 -29.5 13t-30 38t-13.5 35q0 9 22 25q17 12 51.5 21t73.5 9z" />
    <glyph glyph-name="uni00B3" unicode="&#xb3;" horiz-adv-x="363" 
d="M150 443q23 0 23 13q0 14 -39 14l-33 -1q-15 0 -15 52q0 39 18 39q25 0 41 4t16 12q0 12 -15 12q-16 0 -38 -8.5t-26 -8.5q-13 0 -26 8.5t-21 25.5t-8 27q0 11 19.5 24.5t51.5 22.5t75 9q24 0 56 -5.5t56 -18.5t34 -31t10 -37q0 -20 -8.5 -39t-23.5 -27q19 -9 33 -28.5
t14 -45.5q0 -23 -8.5 -42t-27 -35.5t-56.5 -29.5t-91 -13q-64 0 -99.5 18t-35.5 35q0 14 15 44t31 30q7 0 34.5 -10t43.5 -10z" />
    <glyph glyph-name="acute" unicode="&#xb4;" horiz-adv-x="298" 
d="M269 562q-33 -20 -129 -72q-56 -29 -80 -29q-16 0 -38 15t-32.5 34.5t-10.5 34.5q0 7 6.5 17.5t26.5 29.5t21 20q24 24 111 94q40 34 72 34q20 0 47.5 -28.5t41.5 -56t14 -41.5q0 -11 -7 -20t-43 -32z" />
    <glyph glyph-name="paragraph" unicode="&#xb6;" horiz-adv-x="930" 
d="M792 527v-503q0 -17 -24.5 -25.5t-83.5 -8.5q-110 0 -110 34v503h-48v-503q0 -17 -24 -25.5t-83 -8.5q-110 0 -110 34v264q-33 0 -71.5 4.5t-73 16.5t-62 34.5t-43 60.5t-15.5 87q0 86 28.5 125.5t93.5 56t184 16.5h521q9 0 14 -16.5t5 -63.5t-5 -64.5t-14 -17.5h-79z
" />
    <glyph glyph-name="periodcentered" unicode="&#xb7;" horiz-adv-x="327" 
d="M22 363q0 61 32 84.5t110 23.5q74 0 107.5 -24.5t33.5 -83.5q0 -53 -28 -78.5t-113 -25.5q-50 0 -79.5 7.5t-46 28.5t-16.5 68z" />
    <glyph glyph-name="cedilla" unicode="&#xb8;" horiz-adv-x="271" 
d="M26 34l102 15q57 -11 101.5 -39.5t44.5 -65.5q0 -59 -53.5 -96t-138.5 -37q-53 0 -75 3.5t-28.5 16t-6.5 49.5q0 32 7.5 58t17.5 26q2 0 13 -2t21 -2q16 0 24 9t8 20q0 3 -3 10.5t-34 34.5z" />
    <glyph glyph-name="uni00B9" unicode="&#xb9;" horiz-adv-x="313" 
d="M33 457h40v81q-36 -9 -40 -9q-8 0 -12.5 14.5t-4.5 39.5q0 19 7.5 35t20.5 24q32 20 74 34q7 2 30.5 7.5t44.5 5.5q24 0 37.5 -8t13.5 -35v-189h35q10 0 16.5 -21.5t6.5 -37.5q0 -15 -6.5 -35.5t-16.5 -20.5h-246q-5 0 -11 8t-8.5 24.5t-2.5 23.5q0 17 5.5 38t16.5 21z
" />
    <glyph glyph-name="ordmasculine" unicode="&#xba;" horiz-adv-x="514" 
d="M257 678q119 0 183.5 -49.5t64.5 -144.5q0 -98 -65 -149.5t-183 -51.5q-119 0 -183.5 51.5t-64.5 149.5q0 95 64.5 144.5t183.5 49.5zM259 435q8 0 12.5 10t4.5 39q0 39 -17 39t-17 -39q0 -18 4 -33.5t13 -15.5z" />
    <glyph glyph-name="guillemotright" unicode="&#xbb;" horiz-adv-x="787" 
d="M495 277q-1 1 -4.5 5t-47 48.5t-66.5 76.5t-23 45q0 9 12.5 20t45.5 19t75 8q43 0 76 -5t52 -25q24 -26 74 -81t50 -56q12 -13 23 -29.5t11 -25.5q0 -7 -8 -21.5t-26 -33.5q-75 -85 -124 -137q-16 -16 -44 -23.5t-84 -7.5q-57 0 -95 14.5t-38 32.5q0 11 12.5 31
t34.5 45.5t39.5 44t35.5 36.5zM141 277q-1 1 -4.5 5t-47 48.5t-66.5 76.5t-23 45q0 9 12.5 20t45.5 19t75 8q43 0 76 -5t52 -25q24 -26 74 -81t50 -56q12 -13 23 -29.5t11 -25.5q0 -7 -8 -21.5t-26 -33.5q-75 -85 -124 -137q-16 -16 -44 -23.5t-84 -7.5q-57 0 -95 14.5
t-38 32.5q0 11 12.5 31t34.5 45.5t39.5 44t35.5 36.5z" />
    <glyph glyph-name="Agrave" unicode="&#xc0;" horiz-adv-x="677" 
d="M677 165v-121q0 -22 -12.5 -33t-46.5 -11h-131q-22 0 -40.5 3.5t-27.5 13.5t-16 32l-27 113h-87l-26 -115q-6 -20 -16 -33.5t-38 -13.5h-172q-37 0 -37 38v132q0 30 20 82l164 406q9 21 41.5 28t108.5 7q85 0 118 -5t42 -26l172 -432q11 -26 11 -65zM351 348q-4 23 -8 34
t-12 11q-7 0 -11 -8.5t-8 -36.5h39zM207 827q-30 19 -40 28.5t-10 23.5q0 29 38 77.5t64 48.5q34 0 72 -34q83 -65 112 -94q1 -1 17.5 -16.5t26.5 -27.5t10 -23q0 -15 -10.5 -34.5t-32.5 -34.5t-38 -15q-10 0 -32 7.5t-48 21.5q-96 52 -129 72z" />
    <glyph glyph-name="Aacute" unicode="&#xc1;" horiz-adv-x="677" 
d="M677 165v-121q0 -22 -12.5 -33t-46.5 -11h-131q-22 0 -40.5 3.5t-27.5 13.5t-16 32l-27 113h-87l-26 -115q-6 -20 -16 -33.5t-38 -13.5h-172q-37 0 -37 38v132q0 30 20 82l164 406q9 21 41.5 28t108.5 7q85 0 118 -5t42 -26l172 -432q11 -26 11 -65zM351 348q-4 23 -8 34
t-12 11q-7 0 -11 -8.5t-8 -36.5h39zM498 813q-33 -20 -129 -72q-56 -29 -80 -29q-16 0 -38 15t-32.5 34.5t-10.5 34.5q0 7 6.5 17.5t26.5 29.5t21 20q24 24 111 94q40 34 72 34q20 0 47.5 -28.5t41.5 -56t14 -41.5q0 -11 -7 -20t-43 -32z" />
    <glyph glyph-name="Acircumflex" unicode="&#xc2;" horiz-adv-x="677" 
d="M677 165v-121q0 -22 -12.5 -33t-46.5 -11h-131q-22 0 -40.5 3.5t-27.5 13.5t-16 32l-27 113h-87l-26 -115q-6 -20 -16 -33.5t-38 -13.5h-172q-37 0 -37 38v132q0 30 20 82l164 406q9 21 41.5 28t108.5 7q85 0 118 -5t42 -26l172 -432q11 -26 11 -65zM351 348q-4 23 -8 34
t-12 11q-7 0 -11 -8.5t-8 -36.5h39zM334 946q26 0 59 -6t62 -33q93 -90 93 -108q0 -16 -17.5 -34t-51 -33t-53.5 -15q-50 0 -71 44l-21 41l-23 -41q-10 -18 -24.5 -31t-42.5 -13q-13 0 -41 9t-56 30t-28 43q0 18 93 108q23 22 52.5 30.5t69.5 8.5z" />
    <glyph glyph-name="Atilde" unicode="&#xc3;" horiz-adv-x="677" 
d="M677 165v-121q0 -22 -12.5 -33t-46.5 -11h-131q-22 0 -40.5 3.5t-27.5 13.5t-16 32l-27 113h-87l-26 -115q-6 -20 -16 -33.5t-38 -13.5h-172q-37 0 -37 38v132q0 30 20 82l164 406q9 21 41.5 28t108.5 7q85 0 118 -5t42 -26l172 -432q11 -26 11 -65zM351 348q-4 23 -8 34
t-12 11q-7 0 -11 -8.5t-8 -36.5h39zM259 899q25 0 73 -19.5t72 -19.5q16 0 31 8.5t29.5 27t19.5 18.5q10 0 31.5 -22.5t32.5 -46t11 -38.5q0 -31 -40 -63.5t-97 -32.5q-27 0 -70.5 20.5t-66.5 20.5q-13 0 -27 -7t-31 -22.5t-23 -15.5q-12 0 -31 9.5t-36 26.5q-31 27 -31 64
q0 24 27 47.5t62.5 34t63.5 10.5z" />
    <glyph glyph-name="Adieresis" unicode="&#xc4;" horiz-adv-x="677" 
d="M677 165v-121q0 -22 -12.5 -33t-46.5 -11h-131q-22 0 -40.5 3.5t-27.5 13.5t-16 32l-27 113h-87l-26 -115q-6 -20 -16 -33.5t-38 -13.5h-172q-37 0 -37 38v132q0 30 20 82l164 406q9 21 41.5 28t108.5 7q85 0 118 -5t42 -26l172 -432q11 -26 11 -65zM351 348q-4 23 -8 34
t-12 11q-7 0 -11 -8.5t-8 -36.5h39zM118 815q0 35 10 49.5t31.5 17.5t55.5 3q45 0 65 -6.5t25.5 -23.5t5.5 -40q0 -26 -6 -43t-25.5 -23t-64.5 -6q-47 0 -66.5 6t-25 22.5t-5.5 43.5zM351 815q0 35 10 49.5t31.5 17.5t54.5 3q71 0 84 -17.5t13 -52.5q0 -26 -6 -43t-25.5 -23
t-65.5 -6q-47 0 -66 6t-24.5 22.5t-5.5 43.5z" />
    <glyph glyph-name="Aring" unicode="&#xc5;" horiz-adv-x="677" 
d="M179 744q0 41 19 70.5t55 45.5t82 16q31 0 61 -8t51.5 -24t34 -41.5t12.5 -58.5q0 -35 -15 -63q7 -4 39 -82.5t148 -368.5q11 -26 11 -65v-121q0 -22 -12.5 -33t-46.5 -11h-131q-35 0 -55.5 7t-28.5 42l-27 113h-87l-26 -115q-4 -20 -14 -33.5t-40 -13.5h-172
q-37 0 -37 38v132q0 30 20 82q76 193 122 303t56 118q-19 30 -19 71zM289 744q0 -24 13.5 -37t34.5 -13q22 0 35.5 13t13.5 37t-13.5 36t-35.5 12q-21 0 -34.5 -12t-13.5 -36zM351 348q-4 23 -8 34t-12 11q-7 0 -11 -8.5t-8 -36.5h39z" />
    <glyph glyph-name="AE" unicode="&#xc6;" horiz-adv-x="875" 
d="M351 346l-10 33q-1 6 -8 6q-8 0 -9 -7l-9 -32h36zM840 0h-325q-33 0 -51.5 6.5t-28.5 39.5l-50 116h-104l-33 -114q-6 -21 -15.5 -34.5t-39.5 -13.5h-158q-20 0 -27.5 9t-7.5 26v134q0 35 21 83l164 401q5 12 19 21.5t43 12t89 2.5h308q8 0 17.5 -15t17 -45.5t7.5 -53.5
q0 -42 -8.5 -70.5t-19.5 -28.5h-95q-3 0 -4 -3l6 -16l149 -20q8 -1 16 -13t13 -36.5t5 -45.5q0 -13 -3 -32t-11 -35.5t-17 -17.5l-83 -16l7 -26q2 -3 8 -3h188q16 0 27 -41t11 -73q0 -25 -9.5 -61.5t-25.5 -36.5z" />
    <glyph glyph-name="Ccedilla" unicode="&#xc7;" horiz-adv-x="656" 
d="M384 706q131 0 206 -46q66 -41 66 -65q0 -20 -31 -67.5t-60 -70.5t-49 -23q-8 0 -33 16.5t-47.5 24t-44.5 7.5q-25 0 -47.5 -14.5t-34.5 -49.5t-12 -74q0 -65 26.5 -103.5t75.5 -38.5q34 0 63 9t60.5 27t42.5 18q13 0 31.5 -25t38.5 -75t20 -67q0 -24 -23.5 -43.5
t-66 -35.5t-95.5 -26q24 -14 39 -33t15 -39q0 -59 -53.5 -96t-138.5 -37q-53 0 -75 3.5t-28.5 16t-6.5 49.5q0 32 7.5 58t17.5 26q2 0 13 -2t21 -2q16 0 24 9t8 20t-12 22q-66 9 -121 37.5t-93.5 74.5t-59 110.5t-20.5 143.5q0 88 25.5 156.5t74 113.5t119 68t158.5 23z" />
    <glyph glyph-name="Egrave" unicode="&#xc8;" horiz-adv-x="617" 
d="M503 255l-186 -27q-4 0 -4 -5v-8q0 -3 3 -3h265q9 0 17 -15.5t13.5 -46t5.5 -52.5q0 -19 -5.5 -45.5t-14 -39.5t-16.5 -13h-510q-51 0 -51 63v561q0 31 13.5 47.5t37.5 16.5h482q8 0 16.5 -12t14 -37t5.5 -46q0 -19 -5.5 -50.5t-13.5 -48.5t-17 -17h-236q-3 0 -4 -3v-9
q0 -3 6 -5l184 -24q8 -1 16 -13.5t13 -36.5t5 -44q0 -22 -5 -44t-13.5 -32t-15.5 -11zM159 815q-30 19 -40 28.5t-10 23.5q0 29 38 77.5t64 48.5q34 0 72 -34q83 -65 112 -94q1 -1 17.5 -16.5t26.5 -27.5t10 -23q0 -15 -10.5 -34.5t-32.5 -34.5t-38 -15q-10 0 -32 7.5
t-48 21.5q-96 52 -129 72z" />
    <glyph glyph-name="Eacute" unicode="&#xc9;" horiz-adv-x="617" 
d="M503 255l-186 -27q-4 0 -4 -5v-8q0 -3 3 -3h265q9 0 17 -15.5t13.5 -46t5.5 -52.5q0 -19 -5.5 -45.5t-14 -39.5t-16.5 -13h-510q-51 0 -51 63v561q0 31 13.5 47.5t37.5 16.5h482q8 0 16.5 -12t14 -37t5.5 -46q0 -19 -5.5 -50.5t-13.5 -48.5t-17 -17h-236q-3 0 -4 -3v-9
q0 -3 6 -5l184 -24q8 -1 16 -13.5t13 -36.5t5 -44q0 -22 -5 -44t-13.5 -32t-15.5 -11zM454 813q-33 -20 -129 -72q-56 -29 -80 -29q-16 0 -38 15t-32.5 34.5t-10.5 34.5q0 7 6.5 17.5t26.5 29.5t21 20q24 24 111 94q40 34 72 34q20 0 47.5 -28.5t41.5 -56t14 -41.5
q0 -11 -7 -20t-43 -32z" />
    <glyph glyph-name="Ecircumflex" unicode="&#xca;" horiz-adv-x="617" 
d="M503 255l-186 -27q-4 0 -4 -5v-8q0 -3 3 -3h265q9 0 17 -15.5t13.5 -46t5.5 -52.5q0 -19 -5.5 -45.5t-14 -39.5t-16.5 -13h-510q-51 0 -51 63v561q0 31 13.5 47.5t37.5 16.5h482q8 0 16.5 -12t14 -37t5.5 -46q0 -19 -5.5 -50.5t-13.5 -48.5t-17 -17h-236q-3 0 -4 -3v-9
q0 -3 6 -5l184 -24q8 -1 16 -13.5t13 -36.5t5 -44q0 -22 -5 -44t-13.5 -32t-15.5 -11zM307 944q26 0 59 -6t62 -33q93 -90 93 -108q0 -16 -17.5 -34t-51 -33t-53.5 -15q-50 0 -71 44l-21 41l-23 -41q-10 -18 -24.5 -31t-42.5 -13q-13 0 -41 9t-56 30t-28 43q0 18 93 108
q23 22 52.5 30.5t69.5 8.5z" />
    <glyph glyph-name="Edieresis" unicode="&#xcb;" horiz-adv-x="617" 
d="M503 255l-186 -27q-4 0 -4 -5v-8q0 -3 3 -3h265q9 0 17 -15.5t13.5 -46t5.5 -52.5q0 -19 -5.5 -45.5t-14 -39.5t-16.5 -13h-510q-51 0 -51 63v561q0 31 13.5 47.5t37.5 16.5h482q8 0 16.5 -12t14 -37t5.5 -46q0 -19 -5.5 -50.5t-13.5 -48.5t-17 -17h-236q-3 0 -4 -3v-9
q0 -3 6 -5l184 -24q8 -1 16 -13.5t13 -36.5t5 -44q0 -22 -5 -44t-13.5 -32t-15.5 -11zM89 803q0 35 10 49.5t31.5 17.5t55.5 3q45 0 65 -6.5t25.5 -23.5t5.5 -40q0 -26 -6 -43t-25.5 -23t-64.5 -6q-47 0 -66.5 6t-25 22.5t-5.5 43.5zM322 803q0 35 10 49.5t31.5 17.5t54.5 3
q71 0 84 -17.5t13 -52.5q0 -26 -6 -43t-25.5 -23t-65.5 -6q-47 0 -66 6t-24.5 22.5t-5.5 43.5z" />
    <glyph glyph-name="Igrave" unicode="&#xcc;" horiz-adv-x="331" 
d="M312 649v-610q0 -23 -34 -34t-110 -11t-112.5 11t-36.5 34v610q0 19 30 32t119 13q76 0 110 -11t34 -34zM12 815q-30 19 -40 28.5t-10 23.5q0 29 38 77.5t64 48.5q34 0 72 -34q83 -65 112 -94q1 -1 17.5 -16.5t26.5 -27.5t10 -23q0 -15 -10.5 -34.5t-32.5 -34.5t-38 -15
q-10 0 -32 7.5t-48 21.5q-96 52 -129 72z" />
    <glyph glyph-name="Iacute" unicode="&#xcd;" horiz-adv-x="331" 
d="M312 649v-610q0 -23 -34 -34t-110 -11t-112.5 11t-36.5 34v610q0 19 30 32t119 13q76 0 110 -11t34 -34zM328 814q-33 -20 -129 -72q-56 -29 -80 -29q-16 0 -38 15t-32.5 34.5t-10.5 34.5q0 7 6.5 17.5t26.5 29.5t21 20q24 24 111 94q40 34 72 34q20 0 47.5 -28.5
t41.5 -56t14 -41.5q0 -11 -7 -20t-43 -32z" />
    <glyph glyph-name="Icircumflex" unicode="&#xce;" horiz-adv-x="309" 
d="M306 649v-610q0 -23 -34 -34t-110 -11t-112.5 11t-36.5 34v610q0 19 30 32t119 13q76 0 110 -11t34 -34zM160 947q26 0 59 -6t62 -33q93 -90 93 -108q0 -16 -17.5 -34t-51 -33t-53.5 -15q-50 0 -71 44l-21 41l-23 -41q-10 -18 -24.5 -31t-42.5 -13q-13 0 -41 9t-56 30
t-28 43q0 18 93 108q23 22 52.5 30.5t69.5 8.5z" />
    <glyph glyph-name="Idieresis" unicode="&#xcf;" horiz-adv-x="331" 
d="M312 649v-610q0 -23 -34 -34t-110 -11t-112.5 11t-36.5 34v610q0 19 30 32t119 13q76 0 110 -11t34 -34zM-46 815q0 35 10 49.5t31.5 17.5t55.5 3q45 0 65 -6.5t25.5 -23.5t5.5 -40q0 -26 -6 -43t-25.5 -23t-64.5 -6q-47 0 -66.5 6t-25 22.5t-5.5 43.5zM187 815
q0 35 10 49.5t31.5 17.5t54.5 3q71 0 84 -17.5t13 -52.5q0 -26 -6 -43t-25.5 -23t-65.5 -6q-47 0 -66 6t-24.5 22.5t-5.5 43.5z" />
    <glyph glyph-name="Eth" unicode="&#xd0;" horiz-adv-x="788" 
d="M374 0h-257q-50 0 -50 63v217h-34q-28 0 -28 62q0 30 6 46t22 16h34v220q0 65 50 65h264q89 0 162.5 -20.5t126.5 -62.5t81.5 -107t28.5 -150q0 -90 -31 -157.5t-86 -109.5t-129 -62t-160 -20zM377 490h-16l-3 -4v-82h36q30 0 30 -62q0 -26 -7 -44t-23 -18h-36v-66l3 -2
h13q37 0 63 9.5t40 36.5t14 98q0 53 -9.5 80t-34 40.5t-70.5 13.5z" />
    <glyph glyph-name="Ntilde" unicode="&#xd1;" horiz-adv-x="816" 
d="M795 648l1 -581q0 -30 -9.5 -44t-30.5 -18.5t-73 -4.5h-128q-68 0 -88 11.5t-32 33.5l-104 192q-8 16 -18 16q-13 0 -13 -11v-203q0 -23 -32 -34t-107 -11q-73 0 -107 11t-34 34v584q0 30 8.5 44t28 18.5t68.5 4.5h153q59 0 83.5 -10t38.5 -42l85 -189q6 -12 15 -12
q14 0 14 9v202q0 23 34.5 34t107.5 11q75 0 107 -11t32 -34zM356 903q25 0 73 -19.5t72 -19.5q16 0 31 8.5t29.5 27t19.5 18.5q10 0 31.5 -22.5t32.5 -46t11 -38.5q0 -31 -40 -63.5t-97 -32.5q-27 0 -70.5 20.5t-66.5 20.5q-13 0 -27 -7t-31 -22.5t-23 -15.5q-12 0 -31 9.5
t-36 26.5q-31 27 -31 64q0 24 27 47.5t62.5 34t63.5 10.5z" />
    <glyph glyph-name="Ograve" unicode="&#xd2;" horiz-adv-x="760" 
d="M380 -26q-85 0 -155 24t-118.5 71t-74 117t-25.5 158t25.5 157t74 114.5t118 68.5t155.5 23q85 0 154.5 -23t118 -69t74.5 -114.5t26 -156.5t-26 -158t-74.5 -117t-118 -71t-154.5 -24zM380 493q-43 0 -63 -33.5t-20 -113.5q0 -76 18 -113t65 -37q44 0 64 35.5t20 114.5
q0 75 -18 111t-66 36zM240 825q-30 19 -40 28.5t-10 23.5q0 29 38 77.5t64 48.5q34 0 72 -34q83 -65 112 -94q1 -1 17.5 -16.5t26.5 -27.5t10 -23q0 -15 -10.5 -34.5t-32.5 -34.5t-38 -15q-10 0 -32 7.5t-48 21.5q-96 52 -129 72z" />
    <glyph glyph-name="Oacute" unicode="&#xd3;" horiz-adv-x="760" 
d="M380 -26q-85 0 -155 24t-118.5 71t-74 117t-25.5 158t25.5 157t74 114.5t118 68.5t155.5 23q85 0 154.5 -23t118 -69t74.5 -114.5t26 -156.5t-26 -158t-74.5 -117t-118 -71t-154.5 -24zM380 493q-43 0 -63 -33.5t-20 -113.5q0 -76 18 -113t65 -37q44 0 64 35.5t20 114.5
q0 75 -18 111t-66 36zM574 824q-33 -20 -129 -72q-56 -29 -80 -29q-16 0 -38 15t-32.5 34.5t-10.5 34.5q0 7 6.5 17.5t26.5 29.5t21 20q24 24 111 94q40 34 72 34q20 0 47.5 -28.5t41.5 -56t14 -41.5q0 -11 -7 -20t-43 -32z" />
    <glyph glyph-name="Ocircumflex" unicode="&#xd4;" horiz-adv-x="760" 
d="M380 -26q-85 0 -155 24t-118.5 71t-74 117t-25.5 158t25.5 157t74 114.5t118 68.5t155.5 23q85 0 154.5 -23t118 -69t74.5 -114.5t26 -156.5t-26 -158t-74.5 -117t-118 -71t-154.5 -24zM380 493q-43 0 -63 -33.5t-20 -113.5q0 -76 18 -113t65 -37q44 0 64 35.5t20 114.5
q0 75 -18 111t-66 36zM381 958q26 0 59 -6t62 -33q93 -90 93 -108q0 -16 -17.5 -34t-51 -33t-53.5 -15q-50 0 -71 44l-21 41l-23 -41q-10 -18 -24.5 -31t-42.5 -13q-13 0 -41 9t-56 30t-28 43q0 18 93 108q23 22 52.5 30.5t69.5 8.5z" />
    <glyph glyph-name="Otilde" unicode="&#xd5;" horiz-adv-x="760" 
d="M380 -26q-85 0 -155 24t-118.5 71t-74 117t-25.5 158t25.5 157t74 114.5t118 68.5t155.5 23q85 0 154.5 -23t118 -69t74.5 -114.5t26 -156.5t-26 -158t-74.5 -117t-118 -71t-154.5 -24zM380 493q-43 0 -63 -33.5t-20 -113.5q0 -76 18 -113t65 -37q44 0 64 35.5t20 114.5
q0 75 -18 111t-66 36zM307 899q25 0 73 -19.5t72 -19.5q16 0 31 8.5t29.5 27t19.5 18.5q10 0 31.5 -22.5t32.5 -46t11 -38.5q0 -31 -40 -63.5t-97 -32.5q-27 0 -70.5 20.5t-66.5 20.5q-13 0 -27 -7t-31 -22.5t-23 -15.5q-12 0 -31 9.5t-36 26.5q-31 27 -31 64q0 24 27 47.5
t62.5 34t63.5 10.5z" />
    <glyph glyph-name="Odieresis" unicode="&#xd6;" horiz-adv-x="760" 
d="M380 -26q-85 0 -155 24t-118.5 71t-74 117t-25.5 158t25.5 157t74 114.5t118 68.5t155.5 23q85 0 154.5 -23t118 -69t74.5 -114.5t26 -156.5t-26 -158t-74.5 -117t-118 -71t-154.5 -24zM380 493q-43 0 -63 -33.5t-20 -113.5q0 -76 18 -113t65 -37q44 0 64 35.5t20 114.5
q0 75 -18 111t-66 36zM179 815q0 35 10 49.5t31.5 17.5t55.5 3q45 0 65 -6.5t25.5 -23.5t5.5 -40q0 -26 -6 -43t-25.5 -23t-64.5 -6q-47 0 -66.5 6t-25 22.5t-5.5 43.5zM412 815q0 35 10 49.5t31.5 17.5t54.5 3q71 0 84 -17.5t13 -52.5q0 -26 -6 -43t-25.5 -23t-65.5 -6
q-47 0 -66 6t-24.5 22.5t-5.5 43.5z" />
    <glyph glyph-name="Oslash" unicode="&#xd8;" horiz-adv-x="760" 
d="M380 -26q-68 0 -125 15l-1 -4q-9 -19 -21.5 -30.5t-39.5 -11.5q-69 0 -69 20q0 12 12.5 36.5t16.5 32.5q-71 45 -108.5 124t-37.5 188q0 88 25.5 157t74 114.5t118 68.5t155.5 23q54 0 102 -9l8 16q9 19 21 31t40 12q69 0 69 -20q0 -3 -1.5 -10.5t-14.5 -32t-17 -32.5
q80 -43 123 -123t43 -195q0 -88 -26 -158t-74.5 -117t-118 -71t-154.5 -24zM380 493q-43 0 -63 -33.5t-20 -113.5q0 -76 18 -113t65 -37q44 0 64 35.5t20 114.5q0 75 -18 111t-66 36z" />
    <glyph glyph-name="Ugrave" unicode="&#xd9;" horiz-adv-x="711" 
d="M698 648v-326q0 -90 -23 -155t-67 -105t-108 -58t-148 -18q-124 0 -196.5 37t-107.5 109t-35 185v331q0 24 36.5 35t112.5 11q77 0 110.5 -11t33.5 -35v-295q0 -58 3.5 -85t14 -40t32.5 -13q18 0 30 11t15.5 40t3.5 87v295q0 24 36.5 35t111.5 11q77 0 111 -11t34 -35z
M226 815q-30 19 -40 28.5t-10 23.5q0 29 38 77.5t64 48.5q34 0 72 -34q83 -65 112 -94q1 -1 17.5 -16.5t26.5 -27.5t10 -23q0 -15 -10.5 -34.5t-32.5 -34.5t-38 -15q-10 0 -32 7.5t-48 21.5q-96 52 -129 72z" />
    <glyph glyph-name="Uacute" unicode="&#xda;" horiz-adv-x="711" 
d="M698 648v-326q0 -90 -23 -155t-67 -105t-108 -58t-148 -18q-124 0 -196.5 37t-107.5 109t-35 185v331q0 24 36.5 35t112.5 11q77 0 110.5 -11t33.5 -35v-295q0 -58 3.5 -85t14 -40t32.5 -13q18 0 30 11t15.5 40t3.5 87v295q0 24 36.5 35t111.5 11q77 0 111 -11t34 -35z
M537 815q-33 -20 -129 -72q-56 -29 -80 -29q-16 0 -38 15t-32.5 34.5t-10.5 34.5q0 7 6.5 17.5t26.5 29.5t21 20q24 24 111 94q40 34 72 34q20 0 47.5 -28.5t41.5 -56t14 -41.5q0 -11 -7 -20t-43 -32z" />
    <glyph glyph-name="Ucircumflex" unicode="&#xdb;" horiz-adv-x="711" 
d="M698 648v-326q0 -90 -23 -155t-67 -105t-108 -58t-148 -18q-124 0 -196.5 37t-107.5 109t-35 185v331q0 24 36.5 35t112.5 11q77 0 110.5 -11t33.5 -35v-295q0 -58 3.5 -85t14 -40t32.5 -13q18 0 30 11t15.5 40t3.5 87v295q0 24 36.5 35t111.5 11q77 0 111 -11t34 -35z
M363 947q26 0 59 -6t62 -33q93 -90 93 -108q0 -16 -17.5 -34t-51 -33t-53.5 -15q-50 0 -71 44l-21 41l-23 -41q-10 -18 -24.5 -31t-42.5 -13q-13 0 -41 9t-56 30t-28 43q0 18 93 108q23 22 52.5 30.5t69.5 8.5z" />
    <glyph glyph-name="Udieresis" unicode="&#xdc;" horiz-adv-x="711" 
d="M698 648v-326q0 -90 -23 -155t-67 -105t-108 -58t-148 -18q-124 0 -196.5 37t-107.5 109t-35 185v331q0 24 36.5 35t112.5 11q77 0 110.5 -11t33.5 -35v-295q0 -58 3.5 -85t14 -40t32.5 -13q18 0 30 11t15.5 40t3.5 87v295q0 24 36.5 35t111.5 11q77 0 111 -11t34 -35z
M153 815q0 35 10 49.5t31.5 17.5t55.5 3q45 0 65 -6.5t25.5 -23.5t5.5 -40q0 -26 -6 -43t-25.5 -23t-64.5 -6q-47 0 -66.5 6t-25 22.5t-5.5 43.5zM386 815q0 35 10 49.5t31.5 17.5t54.5 3q71 0 84 -17.5t13 -52.5q0 -26 -6 -43t-25.5 -23t-65.5 -6q-47 0 -66 6t-24.5 22.5
t-5.5 43.5z" />
    <glyph glyph-name="Yacute" unicode="&#xdd;" horiz-adv-x="658" 
d="M469 282v-243q0 -19 -27.5 -32t-117.5 -13q-74 0 -109 11t-35 34v247l-156 172q-22 30 -22 81v97q0 53 60 53h106q30 0 51 -8t40 -40l56 -96q8 -8 12 -8q2 0 6.5 3t6.5 6l54 95q15 25 34.5 36.5t57.5 11.5h112q26 0 42 -9t16 -37v-105q0 -22 -5.5 -43.5t-14.5 -34.5z
M517 809q-33 -20 -129 -72q-56 -29 -80 -29q-16 0 -38 15t-32.5 34.5t-10.5 34.5q0 7 6.5 17.5t26.5 29.5t21 20q24 24 111 94q40 34 72 34q20 0 47.5 -28.5t41.5 -56t14 -41.5q0 -11 -7 -20t-43 -32z" />
    <glyph glyph-name="Thorn" unicode="&#xde;" horiz-adv-x="644" 
d="M312 648v-41h25q38 0 82 -5.5t83.5 -21.5t71.5 -44t50 -73t18 -100q0 -51 -17.5 -94t-43.5 -75t-65 -56t-91 -38t-113 -14v-47q0 -23 -33.5 -34t-109.5 -11t-112.5 11t-36.5 34v609q0 24 36.5 35t111.5 11q77 0 110.5 -11t33.5 -35zM317 411q-6 0 -6 -7v-101
q21 0 34 16.5t13 48.5q0 21 -9 32t-32 11z" />
    <glyph glyph-name="germandbls" unicode="&#xdf;" horiz-adv-x="662" 
d="M332 513q-18 0 -28 -13t-10 -46v-418q0 -22 -32 -32.5t-107 -10.5q-72 0 -106.5 10t-34.5 32v455q0 42 18.5 81.5t60 68t102.5 44.5t137 16q85 0 149.5 -26t100.5 -70.5t36 -105.5q0 -64 -64 -115v-13q49 -18 75 -51t26 -88q0 -51 -19.5 -95t-58 -75.5t-96 -49
t-129.5 -17.5q-12 0 -17.5 16.5t-5.5 70.5q0 79 17 92q3 2 16.5 6.5t17 6.5t8.5 7.5t8.5 14.5t3.5 23q0 23 -14 32.5t-38 9.5q-11 0 -17.5 16.5t-6.5 70.5t5 72t13 19q25 5 25 32q0 30 -35 30z" />
    <glyph glyph-name="agrave" unicode="&#xe0;" horiz-adv-x="562" 
d="M224 180q0 -13 24 -13q33 0 67 10v18q-20 0 -68 -4q-9 -1 -16 -3.5t-7 -7.5zM445 -13q-23 0 -45.5 5t-29.5 15l-14 22q-8 13 -15 13q-8 0 -23 -10q-31 -20 -55 -32t-63 -12q-59 0 -103 19.5t-69 59.5t-25 90q0 169 289 169q8 0 12.5 4t4.5 8q0 12 -30 12
q-34 0 -104.5 -14t-76.5 -14q-16 0 -29 21t-21.5 52.5t-8.5 50.5q0 15 6 24t28 23q33 21 94.5 33t123.5 12q51 0 97.5 -11t83 -35.5t57.5 -64.5t21 -94v-310q0 -18 -18.5 -27t-86.5 -9zM161 658q-30 19 -40 28.5t-10 23.5q0 29 38 77.5t64 48.5q34 0 72 -34q83 -65 112 -94
q1 -1 17.5 -16.5t26.5 -27.5t10 -23q0 -15 -10.5 -34.5t-32.5 -34.5t-38 -15q-10 0 -32 7.5t-48 21.5q-96 52 -129 72z" />
    <glyph glyph-name="aacute" unicode="&#xe1;" horiz-adv-x="562" 
d="M224 180q0 -13 24 -13q33 0 67 10v18q-20 0 -68 -4q-9 -1 -16 -3.5t-7 -7.5zM445 -13q-23 0 -45.5 5t-29.5 15l-14 22q-8 13 -15 13q-8 0 -23 -10q-31 -20 -55 -32t-63 -12q-59 0 -103 19.5t-69 59.5t-25 90q0 169 289 169q8 0 12.5 4t4.5 8q0 12 -30 12
q-34 0 -104.5 -14t-76.5 -14q-16 0 -29 21t-21.5 52.5t-8.5 50.5q0 15 6 24t28 23q33 21 94.5 33t123.5 12q51 0 97.5 -11t83 -35.5t57.5 -64.5t21 -94v-310q0 -18 -18.5 -27t-86.5 -9zM456 658q-33 -20 -129 -72q-56 -29 -80 -29q-16 0 -38 15t-32.5 34.5t-10.5 34.5
q0 7 6.5 17.5t26.5 29.5t21 20q24 24 111 94q40 34 72 34q20 0 47.5 -28.5t41.5 -56t14 -41.5q0 -11 -7 -20t-43 -32z" />
    <glyph glyph-name="acircumflex" unicode="&#xe2;" horiz-adv-x="562" 
d="M224 180q0 -13 24 -13q33 0 67 10v18q-20 0 -68 -4q-9 -1 -16 -3.5t-7 -7.5zM445 -13q-23 0 -45.5 5t-29.5 15l-14 22q-8 13 -15 13q-8 0 -23 -10q-31 -20 -55 -32t-63 -12q-59 0 -103 19.5t-69 59.5t-25 90q0 169 289 169q8 0 12.5 4t4.5 8q0 12 -30 12
q-34 0 -104.5 -14t-76.5 -14q-16 0 -29 21t-21.5 52.5t-8.5 50.5q0 15 6 24t28 23q33 21 94.5 33t123.5 12q51 0 97.5 -11t83 -35.5t57.5 -64.5t21 -94v-310q0 -18 -18.5 -27t-86.5 -9zM294 780q26 0 59 -6t62 -33q93 -90 93 -108q0 -16 -17.5 -34t-51 -33t-53.5 -15
q-50 0 -71 44l-21 41l-23 -41q-10 -18 -24.5 -31t-42.5 -13q-13 0 -41 9t-56 30t-28 43q0 18 93 108q23 22 52.5 30.5t69.5 8.5z" />
    <glyph glyph-name="atilde" unicode="&#xe3;" horiz-adv-x="562" 
d="M224 180q0 -13 24 -13q33 0 67 10v18q-20 0 -68 -4q-9 -1 -16 -3.5t-7 -7.5zM445 -13q-23 0 -45.5 5t-29.5 15l-14 22q-8 13 -15 13q-8 0 -23 -10q-31 -20 -55 -32t-63 -12q-59 0 -103 19.5t-69 59.5t-25 90q0 169 289 169q8 0 12.5 4t4.5 8q0 12 -30 12
q-34 0 -104.5 -14t-76.5 -14q-16 0 -29 21t-21.5 52.5t-8.5 50.5q0 15 6 24t28 23q33 21 94.5 33t123.5 12q51 0 97.5 -11t83 -35.5t57.5 -64.5t21 -94v-310q0 -18 -18.5 -27t-86.5 -9zM216 750q25 0 73 -19.5t72 -19.5q16 0 31 8.5t29.5 27t19.5 18.5q10 0 31.5 -22.5
t32.5 -46t11 -38.5q0 -31 -40 -63.5t-97 -32.5q-27 0 -70.5 20.5t-66.5 20.5q-13 0 -27 -7t-31 -22.5t-23 -15.5q-12 0 -31 9.5t-36 26.5q-31 27 -31 64q0 24 27 47.5t62.5 34t63.5 10.5z" />
    <glyph glyph-name="adieresis" unicode="&#xe4;" horiz-adv-x="562" 
d="M224 180q0 -13 24 -13q33 0 67 10v18q-20 0 -68 -4q-9 -1 -16 -3.5t-7 -7.5zM445 -13q-23 0 -45.5 5t-29.5 15l-14 22q-8 13 -15 13q-8 0 -23 -10q-31 -20 -55 -32t-63 -12q-59 0 -103 19.5t-69 59.5t-25 90q0 169 289 169q8 0 12.5 4t4.5 8q0 12 -30 12
q-34 0 -104.5 -14t-76.5 -14q-16 0 -29 21t-21.5 52.5t-8.5 50.5q0 15 6 24t28 23q33 21 94.5 33t123.5 12q51 0 97.5 -11t83 -35.5t57.5 -64.5t21 -94v-310q0 -18 -18.5 -27t-86.5 -9zM73 644q0 35 10 49.5t31.5 17.5t55.5 3q45 0 65 -6.5t25.5 -23.5t5.5 -40q0 -26 -6 -43
t-25.5 -23t-64.5 -6q-47 0 -66.5 6t-25 22.5t-5.5 43.5zM306 644q0 35 10 49.5t31.5 17.5t54.5 3q71 0 84 -17.5t13 -52.5q0 -26 -6 -43t-25.5 -23t-65.5 -6q-47 0 -66 6t-24.5 22.5t-5.5 43.5z" />
    <glyph glyph-name="aring" unicode="&#xe5;" horiz-adv-x="562" 
d="M123 587q0 41 19 70.5t55 45.5t82 16q31 0 61 -8t51.5 -24t34 -41.5t12.5 -58.5q0 -39 -19 -69q60 -22 95.5 -68.5t35.5 -116.5v-310q0 -18 -18.5 -27t-86.5 -9q-23 0 -45.5 5t-29.5 15l-14 22q-8 13 -15 13q-8 0 -23 -10q-31 -20 -55 -32t-63 -12q-59 0 -103 19.5
t-69 59.5t-25 90q0 39 16.5 70t52 53t92 34t132.5 12q4 0 8.5 0.5t4.5 6.5q0 12 -31 12q-34 0 -104 -11.5t-76 -11.5q-16 0 -29 21t-21.5 52.5t-8.5 50.5q0 15 6 24t28 23q25 16 67 27q-17 28 -17 67zM233 587q0 -21 10.5 -34t27.5 -15h20h2q17 3 27 15.5t10 33.5
q0 24 -13.5 36t-35.5 12q-21 0 -34.5 -12t-13.5 -36zM224 180q0 -13 24 -13q33 0 67 10v18q-20 0 -68 -4q-9 -1 -16 -3.5t-7 -7.5z" />
    <glyph glyph-name="ae" unicode="&#xe6;" horiz-adv-x="814" 
d="M213 180q0 -13 24 -13q36 0 67 10v18q-45 0 -68 -2q-8 -1 -15.5 -4.5t-7.5 -8.5zM496 339h42q8 0 8 12q0 8 -7 13t-19 5q-8 0 -16 -9t-8 -21zM572 -10q-67 0 -107.5 6.5t-80.5 26.5q-7 -2 -59 -18.5t-107 -16.5q-71 0 -122 19t-77 57t-26 90q0 172 292 172q4 0 8.5 1
t4.5 8q0 10 -31 10q-36 0 -107 -11.5t-73 -11.5q-13 0 -26.5 17.5t-23 52.5t-9.5 54q0 16 5.5 25t27.5 22q21 12 57 23.5t77.5 16.5t63.5 5q18 0 42 -2t96 -14q65 16 146 16q123 0 192 -67.5t69 -186.5q0 -38 -8 -53t-25.5 -18t-41.5 -3h-229q0 -18 18 -28.5t43 -10.5
q40 0 105.5 11.5t81.5 11.5q13 0 25.5 -24t17.5 -55.5t5 -55.5q0 -12 -29.5 -29t-79 -28.5t-115.5 -11.5z" />
    <glyph glyph-name="ccedilla" unicode="&#xe7;" horiz-adv-x="567" 
d="M357 341q-29 0 -48.5 -18.5t-19.5 -47.5t15.5 -45.5t34 -21t31.5 -4.5q18 0 37.5 6.5t47 21.5t36.5 15q11 0 28 -27t32.5 -70.5t15.5 -74.5q0 -10 -17 -26.5t-50.5 -31t-82.5 -21.5q26 -24 26 -52q0 -59 -53.5 -96t-138.5 -37q-53 0 -75 3.5t-28.5 16t-6.5 49.5
q0 32 7.5 58t17.5 26q2 0 13 -2t21 -2q16 0 24 9t8 20q0 8 -6 15q-70 20 -118.5 60.5t-74.5 94.5t-26 119t25 115t69.5 82.5t104.5 48t130 15.5q54 0 102 -11t79 -28q18 -9 29 -17t11 -21t-19.5 -61.5t-38 -73t-32.5 -24.5q-7 0 -45.5 19t-64.5 19z" />
    <glyph glyph-name="egrave" unicode="&#xe8;" horiz-adv-x="605" 
d="M284 336h49q2 0 5.5 1.5t3.5 10.5t-7.5 15t-21.5 6q-10 0 -19.5 -10t-9.5 -23zM364 171q40 0 101 11.5t77 11.5q18 0 33 -41.5t15 -93.5q0 -13 -36 -31.5t-95.5 -28t-122.5 -9.5q-73 0 -134 18t-104.5 54t-67 88.5t-23.5 119.5q0 66 23.5 117.5t66 85t99 50t121.5 16.5
q54 0 105 -16.5t90.5 -49.5t62.5 -81t23 -108q0 -38 -7.5 -53t-25.5 -18t-42 -3h-229q0 -18 20 -28.5t50 -10.5zM178 658q-30 19 -40 28.5t-10 23.5q0 29 38 77.5t64 48.5q34 0 72 -34q83 -65 112 -94q1 -1 17.5 -16.5t26.5 -27.5t10 -23q0 -15 -10.5 -34.5t-32.5 -34.5
t-38 -15q-10 0 -32 7.5t-48 21.5q-96 52 -129 72z" />
    <glyph glyph-name="eacute" unicode="&#xe9;" horiz-adv-x="605" 
d="M284 336h49q2 0 5.5 1.5t3.5 10.5t-7.5 15t-21.5 6q-10 0 -19.5 -10t-9.5 -23zM364 171q40 0 101 11.5t77 11.5q18 0 33 -41.5t15 -93.5q0 -13 -36 -31.5t-95.5 -28t-122.5 -9.5q-73 0 -134 18t-104.5 54t-67 88.5t-23.5 119.5q0 66 23.5 117.5t66 85t99 50t121.5 16.5
q54 0 105 -16.5t90.5 -49.5t62.5 -81t23 -108q0 -38 -7.5 -53t-25.5 -18t-42 -3h-229q0 -18 20 -28.5t50 -10.5zM473 658q-33 -20 -129 -72q-56 -29 -80 -29q-16 0 -38 15t-32.5 34.5t-10.5 34.5q0 7 6.5 17.5t26.5 29.5t21 20q24 24 111 94q40 34 72 34q20 0 47.5 -28.5
t41.5 -56t14 -41.5q0 -11 -7 -20t-43 -32z" />
    <glyph glyph-name="ecircumflex" unicode="&#xea;" horiz-adv-x="605" 
d="M284 336h49q2 0 5.5 1.5t3.5 10.5t-7.5 15t-21.5 6q-10 0 -19.5 -10t-9.5 -23zM364 171q40 0 101 11.5t77 11.5q18 0 33 -41.5t15 -93.5q0 -13 -36 -31.5t-95.5 -28t-122.5 -9.5q-73 0 -134 18t-104.5 54t-67 88.5t-23.5 119.5q0 66 23.5 117.5t66 85t99 50t121.5 16.5
q54 0 105 -16.5t90.5 -49.5t62.5 -81t23 -108q0 -38 -7.5 -53t-25.5 -18t-42 -3h-229q0 -18 20 -28.5t50 -10.5zM313 779q26 0 59 -6t62 -33q93 -90 93 -108q0 -16 -17.5 -34t-51 -33t-53.5 -15q-50 0 -71 44l-21 41l-23 -41q-10 -18 -24.5 -31t-42.5 -13q-13 0 -41 9
t-56 30t-28 43q0 18 93 108q23 22 52.5 30.5t69.5 8.5z" />
    <glyph glyph-name="edieresis" unicode="&#xeb;" horiz-adv-x="605" 
d="M284 336h49q2 0 5.5 1.5t3.5 10.5t-7.5 15t-21.5 6q-10 0 -19.5 -10t-9.5 -23zM364 171q40 0 101 11.5t77 11.5q18 0 33 -41.5t15 -93.5q0 -13 -36 -31.5t-95.5 -28t-122.5 -9.5q-73 0 -134 18t-104.5 54t-67 88.5t-23.5 119.5q0 66 23.5 117.5t66 85t99 50t121.5 16.5
q54 0 105 -16.5t90.5 -49.5t62.5 -81t23 -108q0 -38 -7.5 -53t-25.5 -18t-42 -3h-229q0 -18 20 -28.5t50 -10.5zM107 643q0 35 10 49.5t31.5 17.5t55.5 3q45 0 65 -6.5t25.5 -23.5t5.5 -40q0 -26 -6 -43t-25.5 -23t-64.5 -6q-47 0 -66.5 6t-25 22.5t-5.5 43.5zM340 643
q0 35 10 49.5t31.5 17.5t54.5 3q71 0 84 -17.5t13 -52.5q0 -26 -6 -43t-25.5 -23t-65.5 -6q-47 0 -66 6t-24.5 22.5t-5.5 43.5z" />
    <glyph glyph-name="igrave" unicode="&#xec;" horiz-adv-x="319" 
d="M307 489v-450q0 -23 -34 -34t-110 -11t-112.5 11t-36.5 34v450q0 19 30 32t119 13q76 0 110 -11t34 -34zM6 658q-30 19 -40 28.5t-10 23.5q0 29 38 77.5t64 48.5q34 0 72 -34q83 -65 112 -94q1 -1 17.5 -16.5t26.5 -27.5t10 -23q0 -15 -10.5 -34.5t-32.5 -34.5t-38 -15
q-10 0 -32 7.5t-48 21.5q-96 52 -129 72z" />
    <glyph glyph-name="iacute" unicode="&#xed;" horiz-adv-x="319" 
d="M307 489v-450q0 -23 -34 -34t-110 -11t-112.5 11t-36.5 34v450q0 19 30 32t119 13q76 0 110 -11t34 -34zM341 658q-33 -20 -129 -72q-56 -29 -80 -29q-16 0 -38 15t-32.5 34.5t-10.5 34.5q0 7 6.5 17.5t26.5 29.5t21 20q24 24 111 94q40 34 72 34q20 0 47.5 -28.5
t41.5 -56t14 -41.5q0 -11 -7 -20t-43 -32z" />
    <glyph glyph-name="icircumflex" unicode="&#xee;" horiz-adv-x="319" 
d="M307 489v-450q0 -23 -34 -34t-110 -11t-112.5 11t-36.5 34v450q0 19 30 32t119 13q76 0 110 -11t34 -34zM160 780q26 0 59 -6t62 -33q93 -90 93 -108q0 -16 -17.5 -34t-51 -33t-53.5 -15q-50 0 -71 44l-21 41l-23 -41q-10 -18 -24.5 -31t-42.5 -13q-13 0 -41 9t-56 30
t-28 43q0 18 93 108q23 22 52.5 30.5t69.5 8.5z" />
    <glyph glyph-name="idieresis" unicode="&#xef;" horiz-adv-x="319" 
d="M-54 635q0 35 10 49.5t31.5 17.5t55.5 3q45 0 65 -6.5t25.5 -23.5t5.5 -40q0 -26 -6 -43t-25.5 -23t-64.5 -6q-47 0 -66.5 6t-25 22.5t-5.5 43.5zM179 635q0 35 10 49.5t31.5 17.5t54.5 3q71 0 84 -17.5t13 -52.5q0 -26 -6 -43t-25.5 -23t-65.5 -6q-47 0 -66 6
t-24.5 22.5t-5.5 43.5zM307 489v-450q0 -23 -34 -34t-110 -11t-112.5 11t-36.5 34v450q0 19 30 32t119 13q76 0 110 -11t34 -34z" />
    <glyph glyph-name="eth" unicode="&#xf0;" horiz-adv-x="641" 
d="M146 579l53 19q-39 31 -39 42q0 20 28 35.5t70.5 25t70.5 9.5q54 0 80 -22l11 -10l84 28q9 0 17.5 -7t13 -22t4.5 -30t-8 -18l-46 -16q65 -71 107 -159.5t42 -183.5q0 -131 -84 -205t-234 -74q-61 0 -116 13t-98.5 43t-69 82.5t-25.5 125.5q0 52 18.5 101.5t58.5 84.5
t96.5 54.5t122.5 19.5q-10 13 -30 27l-108 -34q-10 0 -17.5 17t-7.5 33q0 7 2 13.5t4 7.5zM325 197q9 0 14 15t5 55q0 44 -4.5 54.5t-14.5 10.5t-14.5 -13.5t-4.5 -51.5q0 -35 3.5 -52.5t15.5 -17.5z" />
    <glyph glyph-name="ntilde" unicode="&#xf1;" horiz-adv-x="615" 
d="M256 496q54 42 103 42q59 0 104 -13t76.5 -41t47.5 -74.5t16 -112.5v-262q0 -18 -26.5 -30t-111.5 -12q-73 0 -107.5 10t-34.5 32v214q0 32 -2 50t-14 18q-4 0 -7.5 -3t-4.5 -22t-1 -42v-215q0 -18 -26.5 -30t-112.5 -12q-72 0 -106.5 10t-34.5 32v469q0 18 21 27.5
t92 9.5q26 0 49 -6t28 -15l11 -23q7 -12 18 -12q9 0 23 11zM253 750q25 0 73 -19.5t72 -19.5q16 0 31 8.5t29.5 27t19.5 18.5q10 0 31.5 -22.5t32.5 -46t11 -38.5q0 -31 -40 -63.5t-97 -32.5q-27 0 -70.5 20.5t-66.5 20.5q-13 0 -27 -7t-31 -22.5t-23 -15.5q-12 0 -31 9.5
t-36 26.5q-31 27 -31 64q0 24 27 47.5t62.5 34t63.5 10.5z" />
    <glyph glyph-name="ograve" unicode="&#xf2;" horiz-adv-x="658" 
d="M330 -9q-64 0 -122 15t-103 47.5t-71.5 86t-26.5 125.5q0 53 18 104t59 89t103 60t143 22q64 0 122 -15.5t102.5 -48.5t70.5 -86.5t26 -124.5q0 -54 -17.5 -105t-58 -88.5t-102 -59t-143.5 -21.5zM330 197q9 0 14 15t5 55q0 43 -4.5 54t-14.5 11t-15 -13.5t-5 -51.5
q0 -35 4 -52.5t16 -17.5zM198 658q-30 19 -40 28.5t-10 23.5q0 29 38 77.5t64 48.5q34 0 72 -34q83 -65 112 -94q1 -1 17.5 -16.5t26.5 -27.5t10 -23q0 -15 -10.5 -34.5t-32.5 -34.5t-38 -15q-10 0 -32 7.5t-48 21.5q-96 52 -129 72z" />
    <glyph glyph-name="oacute" unicode="&#xf3;" horiz-adv-x="658" 
d="M330 -9q-64 0 -122 15t-103 47.5t-71.5 86t-26.5 125.5q0 53 18 104t59 89t103 60t143 22q64 0 122 -15.5t102.5 -48.5t70.5 -86.5t26 -124.5q0 -54 -17.5 -105t-58 -88.5t-102 -59t-143.5 -21.5zM330 197q9 0 14 15t5 55q0 43 -4.5 54t-14.5 11t-15 -13.5t-5 -51.5
q0 -35 4 -52.5t16 -17.5zM513 658q-33 -20 -129 -72q-56 -29 -80 -29q-16 0 -38 15t-32.5 34.5t-10.5 34.5q0 7 6.5 17.5t26.5 29.5t21 20q24 24 111 94q40 34 72 34q20 0 47.5 -28.5t41.5 -56t14 -41.5q0 -11 -7 -20t-43 -32z" />
    <glyph glyph-name="ocircumflex" unicode="&#xf4;" horiz-adv-x="658" 
d="M330 -9q-64 0 -122 15t-103 47.5t-71.5 86t-26.5 125.5q0 53 18 104t59 89t103 60t143 22q64 0 122 -15.5t102.5 -48.5t70.5 -86.5t26 -124.5q0 -54 -17.5 -105t-58 -88.5t-102 -59t-143.5 -21.5zM330 197q9 0 14 15t5 55q0 43 -4.5 54t-14.5 11t-15 -13.5t-5 -51.5
q0 -35 4 -52.5t16 -17.5zM330 781q26 0 59 -6t62 -33q93 -90 93 -108q0 -16 -17.5 -34t-51 -33t-53.5 -15q-50 0 -71 44l-21 41l-23 -41q-10 -18 -24.5 -31t-42.5 -13q-13 0 -41 9t-56 30t-28 43q0 18 93 108q23 22 52.5 30.5t69.5 8.5z" />
    <glyph glyph-name="otilde" unicode="&#xf5;" horiz-adv-x="658" 
d="M330 -9q-64 0 -122 15t-103 47.5t-71.5 86t-26.5 125.5q0 53 18 104t59 89t103 60t143 22q64 0 122 -15.5t102.5 -48.5t70.5 -86.5t26 -124.5q0 -54 -17.5 -105t-58 -88.5t-102 -59t-143.5 -21.5zM330 197q9 0 14 15t5 55q0 43 -4.5 54t-14.5 11t-15 -13.5t-5 -51.5
q0 -35 4 -52.5t16 -17.5zM256 750q25 0 73 -19.5t72 -19.5q16 0 31 8.5t29.5 27t19.5 18.5q10 0 31.5 -22.5t32.5 -46t11 -38.5q0 -31 -40 -63.5t-97 -32.5q-27 0 -70.5 20.5t-66.5 20.5q-13 0 -27 -7t-31 -22.5t-23 -15.5q-12 0 -31 9.5t-36 26.5q-31 27 -31 64
q0 24 27 47.5t62.5 34t63.5 10.5z" />
    <glyph glyph-name="odieresis" unicode="&#xf6;" horiz-adv-x="658" 
d="M330 -9q-64 0 -122 15t-103 47.5t-71.5 86t-26.5 125.5q0 53 18 104t59 89t103 60t143 22q64 0 122 -15.5t102.5 -48.5t70.5 -86.5t26 -124.5q0 -54 -17.5 -105t-58 -88.5t-102 -59t-143.5 -21.5zM330 197q9 0 14 15t5 55q0 43 -4.5 54t-14.5 11t-15 -13.5t-5 -51.5
q0 -35 4 -52.5t16 -17.5zM114 631q0 35 10 49.5t31.5 17.5t55.5 3q45 0 65 -6.5t25.5 -23.5t5.5 -40q0 -26 -6 -43t-25.5 -23t-64.5 -6q-47 0 -66.5 6t-25 22.5t-5.5 43.5zM347 631q0 35 10 49.5t31.5 17.5t54.5 3q71 0 84 -17.5t13 -52.5q0 -26 -6 -43t-25.5 -23t-65.5 -6
q-47 0 -66 6t-24.5 22.5t-5.5 43.5z" />
    <glyph glyph-name="oslash" unicode="&#xf8;" horiz-adv-x="658" 
d="M330 -8q-49 0 -88 8l-18 -33q-3 -6 -9 -11.5t-37 -5.5q-65 0 -65 20q0 3 1.5 8t5.5 13.5t11.5 21.5t10.5 18q-61 31 -98 89t-37 145q0 53 18 104t59 89t103 60t143 22q27 0 79 -9l17 38q1 4 7.5 10t38.5 6q65 0 65 -20q0 -13 -25 -62q49 -22 82 -60.5t45 -85.5t12 -92
q0 -72 -26 -125t-70.5 -85.5t-102.5 -47.5t-122 -15zM330 197q9 0 14 15t5 55q0 44 -4.5 54.5t-14.5 10.5t-15 -13.5t-5 -51.5q0 -34 4 -52t16 -18z" />
    <glyph glyph-name="ugrave" unicode="&#xf9;" horiz-adv-x="615" 
d="M359 31q-23 -19 -47 -30.5t-56 -11.5q-59 0 -104 13t-76.5 41t-47.5 74.5t-16 112.5v262q0 18 26.5 30t111.5 12q73 0 107.5 -10t34.5 -32v-214q0 -33 2 -50.5t14 -17.5q4 0 7.5 3t4.5 22t1 42v215q0 18 26.5 30t112.5 12q72 0 106.5 -10t34.5 -32v-469q0 -18 -21 -27.5
t-92 -9.5q-26 0 -49 6t-28 15l-11 23q-6 12 -18 12q-10 0 -23 -11zM178 658q-30 19 -40 28.5t-10 23.5q0 29 38 77.5t64 48.5q34 0 72 -34q83 -65 112 -94q1 -1 17.5 -16.5t26.5 -27.5t10 -23q0 -15 -10.5 -34.5t-32.5 -34.5t-38 -15q-10 0 -32 7.5t-48 21.5q-96 52 -129 72
z" />
    <glyph glyph-name="uacute" unicode="&#xfa;" horiz-adv-x="615" 
d="M359 31q-23 -19 -47 -30.5t-56 -11.5q-59 0 -104 13t-76.5 41t-47.5 74.5t-16 112.5v262q0 18 26.5 30t111.5 12q73 0 107.5 -10t34.5 -32v-214q0 -33 2 -50.5t14 -17.5q4 0 7.5 3t4.5 22t1 42v215q0 18 26.5 30t112.5 12q72 0 106.5 -10t34.5 -32v-469q0 -18 -21 -27.5
t-92 -9.5q-26 0 -49 6t-28 15l-11 23q-6 12 -18 12q-10 0 -23 -11zM493 658q-33 -20 -129 -72q-56 -29 -80 -29q-16 0 -38 15t-32.5 34.5t-10.5 34.5q0 7 6.5 17.5t26.5 29.5t21 20q24 24 111 94q40 34 72 34q20 0 47.5 -28.5t41.5 -56t14 -41.5q0 -11 -7 -20t-43 -32z" />
    <glyph glyph-name="ucircumflex" unicode="&#xfb;" horiz-adv-x="615" 
d="M359 31q-23 -19 -47 -30.5t-56 -11.5q-59 0 -104 13t-76.5 41t-47.5 74.5t-16 112.5v262q0 18 26.5 30t111.5 12q73 0 107.5 -10t34.5 -32v-214q0 -33 2 -50.5t14 -17.5q4 0 7.5 3t4.5 22t1 42v215q0 18 26.5 30t112.5 12q72 0 106.5 -10t34.5 -32v-469q0 -18 -21 -27.5
t-92 -9.5q-26 0 -49 6t-28 15l-11 23q-6 12 -18 12q-10 0 -23 -11zM346 782q26 0 59 -6t62 -33q93 -90 93 -108q0 -16 -17.5 -34t-51 -33t-53.5 -15q-50 0 -71 44l-21 41l-23 -41q-10 -18 -24.5 -31t-42.5 -13q-13 0 -41 9t-56 30t-28 43q0 18 93 108q23 22 52.5 30.5
t69.5 8.5z" />
    <glyph glyph-name="udieresis" unicode="&#xfc;" horiz-adv-x="615" 
d="M359 31q-23 -19 -47 -30.5t-56 -11.5q-59 0 -104 13t-76.5 41t-47.5 74.5t-16 112.5v262q0 18 26.5 30t111.5 12q73 0 107.5 -10t34.5 -32v-214q0 -33 2 -50.5t14 -17.5q4 0 7.5 3t4.5 22t1 42v215q0 18 26.5 30t112.5 12q72 0 106.5 -10t34.5 -32v-469q0 -18 -21 -27.5
t-92 -9.5q-26 0 -49 6t-28 15l-11 23q-6 12 -18 12q-10 0 -23 -11zM120 638q0 35 10 49.5t31.5 17.5t55.5 3q45 0 65 -6.5t25.5 -23.5t5.5 -40q0 -26 -6 -43t-25.5 -23t-64.5 -6q-47 0 -66.5 6t-25 22.5t-5.5 43.5zM353 638q0 35 10 49.5t31.5 17.5t54.5 3q71 0 84 -17.5
t13 -52.5q0 -26 -6 -43t-25.5 -23t-65.5 -6q-47 0 -66 6t-24.5 22.5t-5.5 43.5z" />
    <glyph glyph-name="yacute" unicode="&#xfd;" horiz-adv-x="625" 
d="M625 479v-131q0 -36 -18 -68l-236 -437q-7 -14 -35.5 -23t-118.5 -9q-136 0 -136 45q0 14 13 42q4 6 34 67.5t34 74.5l-144 240q-6 10 -12 24.5t-6 43.5v127q0 51 59 51h117q39 0 58.5 -8t25.5 -30l40 -148q9 -29 17 -29q7 0 14 29l34 147q5 22 25 30.5t59 8.5h120
q56 0 56 -47zM509 647q-33 -20 -129 -72q-56 -29 -80 -29q-16 0 -38 15t-32.5 34.5t-10.5 34.5q0 7 6.5 17.5t26.5 29.5t21 20q24 24 111 94q40 34 72 34q20 0 47.5 -28.5t41.5 -56t14 -41.5q0 -11 -7 -20t-43 -32z" />
    <glyph glyph-name="thorn" unicode="&#xfe;" horiz-adv-x="617" 
d="M380 538q50 0 92.5 -15t73 -46t47.5 -81t17 -116q0 -57 -18.5 -112t-60 -95t-102 -62.5t-135.5 -22.5v-133q0 -42 -137 -42q-73 0 -108 10t-35 32v800q0 18 27.5 29.5t115.5 11.5q73 0 105 -10t32 -31v-117h86zM300 259q0 33 -2 53t-14 20q-6 0 -10 -9.5t-4 -42.5v-86
q17 0 23.5 14t6.5 51z" />
    <glyph glyph-name="ydieresis" unicode="&#xff;" horiz-adv-x="625" 
d="M625 479v-131q0 -36 -18 -68l-236 -437q-7 -14 -35.5 -23t-118.5 -9q-136 0 -136 45q0 14 13 42q4 6 34 67.5t34 74.5l-144 240q-6 10 -12 24.5t-6 43.5v127q0 51 59 51h117q39 0 58.5 -8t25.5 -30l40 -148q9 -29 17 -29q7 0 14 29l34 147q5 22 25 30.5t59 8.5h120
q56 0 56 -47zM104 635q0 35 10 49.5t31.5 17.5t55.5 3q45 0 65 -6.5t25.5 -23.5t5.5 -40q0 -26 -6 -43t-25.5 -23t-64.5 -6q-47 0 -66.5 6t-25 22.5t-5.5 43.5zM337 635q0 35 10 49.5t31.5 17.5t54.5 3q71 0 84 -17.5t13 -52.5q0 -26 -6 -43t-25.5 -23t-65.5 -6q-47 0 -66 6
t-24.5 22.5t-5.5 43.5z" />
    <glyph glyph-name="Amacron" unicode="&#x100;" horiz-adv-x="677" 
d="M677 165v-121q0 -22 -12.5 -33t-46.5 -11h-131q-22 0 -40.5 3.5t-27.5 13.5t-16 32l-27 113h-87l-26 -115q-6 -20 -16 -33.5t-38 -13.5h-172q-37 0 -37 38v132q0 30 20 82l164 406q9 21 41.5 28t108.5 7q85 0 118 -5t42 -26l172 -432q11 -26 11 -65zM351 348q-4 23 -8 34
t-12 11q-7 0 -11 -8.5t-8 -36.5h39zM128 879h406q17 0 26 -22.5t9 -51.5q0 -19 -5 -39t-13.5 -29.5t-16.5 -9.5h-406q-8 0 -16.5 9.5t-14 30t-5.5 38.5q0 20 5.5 39t14 27t16.5 8z" />
    <glyph glyph-name="amacron" unicode="&#x101;" horiz-adv-x="562" 
d="M224 180q0 -13 24 -13q33 0 67 10v18q-20 0 -68 -4q-9 -1 -16 -3.5t-7 -7.5zM445 -13q-23 0 -45.5 5t-29.5 15l-14 22q-8 13 -15 13q-8 0 -23 -10q-31 -20 -55 -32t-63 -12q-59 0 -103 19.5t-69 59.5t-25 90q0 169 289 169q8 0 12.5 4t4.5 8q0 12 -30 12
q-34 0 -104.5 -14t-76.5 -14q-16 0 -29 21t-21.5 52.5t-8.5 50.5q0 15 6 24t28 23q33 21 94.5 33t123.5 12q51 0 97.5 -11t83 -35.5t57.5 -64.5t21 -94v-310q0 -18 -18.5 -27t-86.5 -9zM86 723h406q17 0 26 -22.5t9 -51.5q0 -19 -5 -39t-13.5 -29.5t-16.5 -9.5h-406
q-8 0 -16.5 9.5t-14 30t-5.5 38.5q0 20 5.5 39t14 27t16.5 8z" />
    <glyph glyph-name="Aogonek" unicode="&#x104;" horiz-adv-x="677" 
d="M677 165v-121q0 -21 -11.5 -32t-42.5 -12l-3 -18q0 -9 9.5 -14.5t25.5 -5.5q14 0 31 6t21 6q15 0 15 -49q0 -56 -9 -75q-4 -8 -24 -18.5t-49.5 -16t-57.5 -5.5q-97 0 -139 30.5t-42 87.5q0 44 50 74q-17 3 -29 11t-19 36l-27 113h-87l-26 -115q-4 -20 -14 -33.5
t-40 -13.5h-172q-37 0 -37 38v132q0 30 20 82l164 406q9 21 41.5 28t108.5 7q85 0 118 -5t42 -26l172 -432q11 -26 11 -65zM351 348q-4 23 -8 34t-12 11q-7 0 -11 -8.5t-8 -36.5h39z" />
    <glyph glyph-name="aogonek" unicode="&#x105;" horiz-adv-x="558" 
d="M547 333v-310q0 -12 -10 -21.5t-42 -12.5q0 -13 9 -20t26 -7q13 0 37 8t27 8q15 0 15 -49q0 -56 -9 -75q-7 -14 -50.5 -29t-92.5 -15q-97 0 -139 30.5t-42 87.5q0 56 84 90q-7 12 -12 18t-10 6q-8 0 -23 -10q-31 -20 -55 -32t-63 -12q-59 0 -103 19.5t-69 59.5t-25 90
q0 169 289 169q8 0 12.5 4t4.5 8q0 12 -30 12q-34 0 -104.5 -14t-76.5 -14q-16 0 -29 21t-21.5 52.5t-8.5 50.5q0 15 6 24t28 23q33 21 94.5 33t123.5 12q51 0 97.5 -11t83 -35.5t57.5 -64.5t21 -94zM221 180q0 -13 24 -13q33 0 67 10v18q-20 0 -68 -4q-9 -1 -16 -3.5
t-7 -7.5z" />
    <glyph glyph-name="Cacute" unicode="&#x106;" horiz-adv-x="656" 
d="M384 706q131 0 206 -46q66 -41 66 -65q0 -20 -31 -67.5t-60 -70.5t-49 -23q-8 0 -33 16.5t-47.5 24t-44.5 7.5q-25 0 -47.5 -14.5t-34.5 -49.5t-12 -74q0 -65 26.5 -103.5t75.5 -38.5q34 0 63 9t60.5 27t42.5 18q13 0 31.5 -25t38.5 -75t20 -67q0 -20 -18 -38t-53 -34
t-97.5 -29.5t-115.5 -13.5q-81 0 -148.5 24t-115.5 71t-74 117.5t-26 158.5t25.5 156.5t74 113.5t119 68t158.5 23zM544 834q-33 -20 -129 -72q-56 -29 -80 -29q-16 0 -38 15t-32.5 34.5t-10.5 34.5q0 7 6.5 17.5t26.5 29.5t21 20q24 24 111 94q40 34 72 34q20 0 47.5 -28.5
t41.5 -56t14 -41.5q0 -11 -7 -20t-43 -32z" />
    <glyph glyph-name="cacute" unicode="&#x107;" horiz-adv-x="567" 
d="M357 341q-29 0 -48.5 -18.5t-19.5 -47.5t15.5 -45.5t34 -21t31.5 -4.5q18 0 37.5 6.5t47 21.5t36.5 15q11 0 28 -27t32.5 -70.5t15.5 -74.5q0 -8 -12.5 -22t-40 -28.5t-75 -24.5t-112.5 -10q-59 0 -117 19.5t-103.5 56.5t-72.5 91.5t-27 120.5q0 65 25 115t69.5 82.5
t104.5 48t130 15.5q54 0 102 -11t79 -28q18 -9 29 -17t11 -21t-19.5 -61.5t-38 -73t-32.5 -24.5q-7 0 -45.5 19t-64.5 19zM503 658q-33 -20 -129 -72q-56 -29 -80 -29q-16 0 -38 15t-32.5 34.5t-10.5 34.5q0 7 6.5 17.5t26.5 29.5t21 20q24 24 111 94q40 34 72 34
q20 0 47.5 -28.5t41.5 -56t14 -41.5q0 -11 -7 -20t-43 -32z" />
    <glyph glyph-name="Ccaron" unicode="&#x10c;" horiz-adv-x="656" 
d="M384 706q131 0 206 -46q66 -41 66 -65q0 -20 -31 -67.5t-60 -70.5t-49 -23q-8 0 -33 16.5t-47.5 24t-44.5 7.5q-25 0 -47.5 -14.5t-34.5 -49.5t-12 -74q0 -65 26.5 -103.5t75.5 -38.5q34 0 63 9t60.5 27t42.5 18q13 0 31.5 -25t38.5 -75t20 -67q0 -20 -18 -38t-53 -34
t-97.5 -29.5t-115.5 -13.5q-81 0 -148.5 24t-115.5 71t-74 117.5t-26 158.5t25.5 156.5t74 113.5t119 68t158.5 23zM377 737q-26 0 -59 6t-62 33q-93 90 -93 108q0 16 17.5 34t51 33t53.5 15q50 0 71 -44l21 -41l23 41q10 18 24.5 31t42.5 13q13 0 41 -9t56 -30t28 -43
q0 -11 -32.5 -47.5t-60.5 -60.5q-25 -22 -53.5 -30.5t-68.5 -8.5z" />
    <glyph glyph-name="ccaron" unicode="&#x10d;" horiz-adv-x="567" 
d="M357 341q-29 0 -48.5 -18.5t-19.5 -47.5t15.5 -45.5t34 -21t31.5 -4.5q18 0 37.5 6.5t47 21.5t36.5 15q11 0 28 -27t32.5 -70.5t15.5 -74.5q0 -8 -12.5 -22t-40 -28.5t-75 -24.5t-112.5 -10q-59 0 -117 19.5t-103.5 56.5t-72.5 91.5t-27 120.5q0 65 25 115t69.5 82.5
t104.5 48t130 15.5q54 0 102 -11t79 -28q18 -9 29 -17t11 -21t-19.5 -61.5t-38 -73t-32.5 -24.5q-7 0 -45.5 19t-64.5 19zM313 562q-26 0 -59 6t-62 33q-93 90 -93 108q0 16 17.5 34t51 33t53.5 15q50 0 71 -44l21 -41l23 41q10 18 24.5 31t42.5 13q13 0 41 -9t56 -30
t28 -43q0 -11 -32.5 -47.5t-60.5 -60.5q-25 -22 -53.5 -30.5t-68.5 -8.5z" />
    <glyph glyph-name="Dcaron" unicode="&#x10e;" horiz-adv-x="744" 
d="M333 490h-16l-3 -4v-272l3 -2h13q37 0 63 9.5t40 36.5t14 98q0 53 -9.5 80t-34 40.5t-70.5 13.5zM330 0h-257q-50 0 -50 63v561q0 65 50 65h264q89 0 162.5 -20.5t126.5 -62.5t81.5 -107t28.5 -150q0 -90 -31 -157.5t-86 -109.5t-129 -62t-160 -20zM276 714q-26 0 -59 6
t-62 33q-93 90 -93 108q0 16 17.5 34t51 33t53.5 15q50 0 71 -44l21 -41l23 41q10 18 24.5 31t42.5 13q13 0 41 -9t56 -30t28 -43q0 -11 -32.5 -47.5t-60.5 -60.5q-25 -22 -53.5 -30.5t-68.5 -8.5z" />
    <glyph glyph-name="dcaron" unicode="&#x10f;" horiz-adv-x="839" 
d="M240 -14q-40 0 -81.5 17t-75.5 51.5t-55 88.5t-21 123q0 134 59 204t171 70q11 0 39.5 -2t43.5 -5v118q0 22 34 32.5t110 10.5q71 0 103.5 -10.5t32.5 -32.5v-629q0 -18 -21 -27t-92 -9q-26 0 -48 5.5t-28 15.5l-13 22q-6 13 -17 13q-9 0 -22 -11q-54 -45 -119 -45z
M330 197q9 0 14 15t5 55q0 43 -4.5 54t-14.5 11t-15 -13.5t-5 -51.5q0 -35 4 -52.5t16 -17.5zM617 405q0 26 8.5 101t14.5 108q12 74 69 74q19 0 48.5 -5.5t50.5 -11.5q55 -18 74 -35.5t19 -41.5q0 -6 -3.5 -24.5t-15.5 -42.5q-31 -70 -46.5 -101t-29.5 -53t-23 -24l-19 -2
q-21 0 -59 9t-63 21.5t-25 27.5z" />
    <glyph glyph-name="Dcroat" unicode="&#x110;" horiz-adv-x="788" 
d="M374 0h-257q-50 0 -50 63v217h-34q-28 0 -28 62q0 30 6 46t22 16h34v220q0 65 50 65h264q89 0 162.5 -20.5t126.5 -62.5t81.5 -107t28.5 -150q0 -90 -31 -157.5t-86 -109.5t-129 -62t-160 -20zM377 490h-16l-3 -4v-82h36q30 0 30 -62q0 -26 -7 -44t-23 -18h-36v-66l3 -2
h13q37 0 63 9.5t40 36.5t14 98q0 53 -9.5 80t-34 40.5t-70.5 13.5z" />
    <glyph glyph-name="dcroat" unicode="&#x111;" horiz-adv-x="615" 
d="M240 -14q-40 0 -81.5 17t-75.5 51.5t-55 88.5t-21 123q0 134 59 204t171 70q11 0 39.5 -2t43.5 -5v32h-42q-11 0 -16.5 6.5t-5.5 26.5q0 17 3.5 26.5t18.5 9.5h42v17q0 22 34 32.5t110 10.5q71 0 103.5 -10.5t32.5 -32.5v-17h41q11 0 15 -6t4 -28q0 -15 -3.5 -25
t-15.5 -10h-41v-543q0 -18 -21 -27t-92 -9q-26 0 -48 5.5t-28 15.5l-13 22q-6 13 -17 13q-9 0 -22 -11q-54 -45 -119 -45zM330 197q9 0 14 15t5 55q0 43 -4.5 54t-14.5 11t-15 -13.5t-5 -51.5q0 -35 4 -52.5t16 -17.5z" />
    <glyph glyph-name="Emacron" unicode="&#x112;" horiz-adv-x="617" 
d="M503 255l-186 -27q-4 0 -4 -5v-8q0 -3 3 -3h265q9 0 17 -15.5t13.5 -46t5.5 -52.5q0 -19 -5.5 -45.5t-14 -39.5t-16.5 -13h-510q-51 0 -51 63v561q0 31 13.5 47.5t37.5 16.5h482q8 0 16.5 -12t14 -37t5.5 -46q0 -19 -5.5 -50.5t-13.5 -48.5t-17 -17h-236q-3 0 -4 -3v-9
q0 -3 6 -5l184 -24q8 -1 16 -13.5t13 -36.5t5 -44q0 -22 -5 -44t-13.5 -32t-15.5 -11zM100 879h406q17 0 26 -22.5t9 -51.5q0 -19 -5 -39t-13.5 -29.5t-16.5 -9.5h-406q-8 0 -16.5 9.5t-14 30t-5.5 38.5q0 20 5.5 39t14 27t16.5 8z" />
    <glyph glyph-name="emacron" unicode="&#x113;" horiz-adv-x="605" 
d="M284 336h49q2 0 5.5 1.5t3.5 10.5t-7.5 15t-21.5 6q-10 0 -19.5 -10t-9.5 -23zM364 171q40 0 101 11.5t77 11.5q18 0 33 -41.5t15 -93.5q0 -13 -36 -31.5t-95.5 -28t-122.5 -9.5q-73 0 -134 18t-104.5 54t-67 88.5t-23.5 119.5q0 66 23.5 117.5t66 85t99 50t121.5 16.5
q54 0 105 -16.5t90.5 -49.5t62.5 -81t23 -108q0 -38 -7.5 -53t-25.5 -18t-42 -3h-229q0 -18 20 -28.5t50 -10.5zM113 725h406q17 0 26 -22.5t9 -51.5q0 -19 -5 -39t-13.5 -29.5t-16.5 -9.5h-406q-8 0 -16.5 9.5t-14 30t-5.5 38.5q0 20 5.5 39t14 27t16.5 8z" />
    <glyph glyph-name="Edotaccent" unicode="&#x116;" horiz-adv-x="617" 
d="M503 255l-186 -27q-4 0 -4 -5v-8q0 -3 3 -3h265q9 0 17 -15.5t13.5 -46t5.5 -52.5q0 -19 -5.5 -45.5t-14 -39.5t-16.5 -13h-510q-51 0 -51 63v561q0 31 13.5 47.5t37.5 16.5h482q8 0 16.5 -12t14 -37t5.5 -46q0 -19 -5.5 -50.5t-13.5 -48.5t-17 -17h-236q-3 0 -4 -3v-9
q0 -3 6 -5l184 -24q8 -1 16 -13.5t13 -36.5t5 -44q0 -22 -5 -44t-13.5 -32t-15.5 -11zM162 816q0 30 10 50t38 29t105 9q58 0 89 -6.5t46.5 -26t15.5 -55.5q0 -46 -30.5 -64.5t-120.5 -18.5q-53 0 -87.5 5.5t-50 24.5t-15.5 53z" />
    <glyph glyph-name="edotaccent" unicode="&#x117;" horiz-adv-x="605" 
d="M284 336h49q2 0 5.5 1.5t3.5 10.5t-7.5 15t-21.5 6q-10 0 -19.5 -10t-9.5 -23zM364 171q40 0 101 11.5t77 11.5q18 0 33 -41.5t15 -93.5q0 -13 -36 -31.5t-95.5 -28t-122.5 -9.5q-73 0 -134 18t-104.5 54t-67 88.5t-23.5 119.5q0 66 23.5 117.5t66 85t99 50t121.5 16.5
q54 0 105 -16.5t90.5 -49.5t62.5 -81t23 -108q0 -38 -7.5 -53t-25.5 -18t-42 -3h-229q0 -18 20 -28.5t50 -10.5zM158 644q0 30 10 50t38 29t105 9q58 0 89 -6.5t46.5 -26t15.5 -55.5q0 -46 -30.5 -64.5t-120.5 -18.5q-53 0 -87.5 5.5t-50 24.5t-15.5 53z" />
    <glyph glyph-name="Eogonek" unicode="&#x118;" horiz-adv-x="616" 
d="M503 255l-186 -27q-4 0 -4 -5v-8q0 -3 3 -3h265q9 0 17 -15.5t13.5 -46t5.5 -52.5q0 -19 -5.5 -45.5t-14 -39.5t-16.5 -13h-80l-3 -18q0 -20 27 -20q13 0 38.5 8t28.5 8q15 0 15 -49q0 -56 -9 -75q-4 -8 -26 -20t-53 -18t-59 -6q-97 0 -139 30.5t-42 87.5q0 43 47 72
h-255q-51 0 -51 63v561q0 31 13.5 47.5t37.5 16.5h482q8 0 16.5 -12t14 -37t5.5 -46q0 -19 -5.5 -50.5t-13.5 -48.5t-17 -17h-236q-3 0 -4 -3v-9q0 -3 6 -5l184 -24q8 -1 16 -13.5t13 -36.5t5 -44q0 -22 -5 -44t-13.5 -32t-15.5 -11z" />
    <glyph glyph-name="eogonek" unicode="&#x119;" horiz-adv-x="605" 
d="M364 171q40 0 101 11.5t77 11.5q18 0 33 -41.5t15 -93.5q0 -8 -19 -21.5t-53 -24.5q-6 -18 -6 -31q0 -9 9.5 -14.5t25.5 -5.5q13 0 37 8t27 8q15 0 15 -49q0 -56 -9 -75q-7 -14 -50.5 -29t-92.5 -15q-64 0 -102.5 11t-58.5 37t-20 65q0 15 9.5 34.5t23.5 32.5
q-72 1 -131 20t-101 54.5t-64.5 88t-22.5 117.5q0 66 23.5 117.5t66 85t99 50t121.5 16.5q54 0 105 -16.5t90.5 -49.5t62.5 -81t23 -108q0 -38 -7.5 -53t-25.5 -18t-42 -3h-229q0 -18 20 -28.5t50 -10.5zM290 340h42q2 0 5 1t3 10q0 8 -6.5 13t-18.5 5q-9 0 -17 -8.5
t-8 -20.5z" />
    <glyph glyph-name="Ecaron" unicode="&#x11a;" horiz-adv-x="617" 
d="M503 255l-186 -27q-4 0 -4 -5v-8q0 -3 3 -3h265q9 0 17 -15.5t13.5 -46t5.5 -52.5q0 -19 -5.5 -45.5t-14 -39.5t-16.5 -13h-510q-51 0 -51 63v561q0 31 13.5 47.5t37.5 16.5h482q8 0 16.5 -12t14 -37t5.5 -46q0 -19 -5.5 -50.5t-13.5 -48.5t-17 -17h-236q-3 0 -4 -3v-9
q0 -3 6 -5l184 -24q8 -1 16 -13.5t13 -36.5t5 -44q0 -22 -5 -44t-13.5 -32t-15.5 -11zM307 727q-26 0 -59 6t-62 33q-93 90 -93 108q0 16 17.5 34t51 33t53.5 15q50 0 71 -44l21 -41l23 41q10 18 24.5 31t42.5 13q13 0 41 -9t56 -30t28 -43q0 -11 -32.5 -47.5t-60.5 -60.5
q-25 -22 -53.5 -30.5t-68.5 -8.5z" />
    <glyph glyph-name="ecaron" unicode="&#x11b;" horiz-adv-x="605" 
d="M284 336h49q2 0 5.5 1.5t3.5 10.5t-7.5 15t-21.5 6q-10 0 -19.5 -10t-9.5 -23zM364 171q40 0 101 11.5t77 11.5q18 0 33 -41.5t15 -93.5q0 -13 -36 -31.5t-95.5 -28t-122.5 -9.5q-73 0 -134 18t-104.5 54t-67 88.5t-23.5 119.5q0 66 23.5 117.5t66 85t99 50t121.5 16.5
q54 0 105 -16.5t90.5 -49.5t62.5 -81t23 -108q0 -38 -7.5 -53t-25.5 -18t-42 -3h-229q0 -18 20 -28.5t50 -10.5zM313 562q-26 0 -59 6t-62 33q-93 90 -93 108q0 16 17.5 34t51 33t53.5 15q50 0 71 -44l21 -41l23 41q10 18 24.5 31t42.5 13q13 0 41 -9t56 -30t28 -43
q0 -11 -32.5 -47.5t-60.5 -60.5q-25 -22 -53.5 -30.5t-68.5 -8.5z" />
    <glyph glyph-name="Gcommaaccent" unicode="&#x122;" horiz-adv-x="695" 
d="M297 344q0 -82 19 -117.5t58 -35.5q21 0 39 6v33h-50q-33 0 -33 73q0 106 33 106h265q24 0 39 -11.5t15 -34.5v-262q0 -18 -16.5 -38t-62.5 -43q-93 -46 -222 -46q-86 0 -155.5 24t-118.5 71t-74.5 117.5t-25.5 160.5q0 177 99 268t291 91q120 0 194 -39q27 -14 46 -34
t19 -33q0 -19 -31 -65.5t-59.5 -69.5t-48.5 -23q-8 0 -30.5 13.5t-44.5 20t-50 6.5q-25 0 -47.5 -14.5t-35 -50t-12.5 -73.5zM218 -328q0 29 9 103t15 107q12 73 69 73q20 0 51.5 -5.5t47.5 -11.5q3 -1 22 -7.5t35.5 -15.5t26 -22.5t9.5 -30.5q0 -26 -19 -67
q-1 -2 -17 -35.5t-31.5 -64t-29.5 -53t-22 -26.5q-9 -5 -19 -5q-32 0 -89.5 19.5t-57.5 41.5z" />
    <glyph glyph-name="gcommaaccent" unicode="&#x123;" horiz-adv-x="622" 
d="M622 467q0 -96 -29 -96l-43 4q-11 0 -11 -7q0 -8 8 -12q16 -8 24.5 -22.5t8.5 -29.5q0 -121 -256 -121l-63 1q-2 -1 -3 -13q0 -9 37 -9h109q102 0 157.5 -41.5t55.5 -119.5q0 -101 -83.5 -144t-243.5 -43q-91 0 -156.5 12.5t-99.5 40t-34 72.5q0 33 22 54.5t65 26.5
q-35 12 -57 39t-22 51q0 27 21.5 60t77.5 62q-39 19 -59.5 51.5t-20.5 68.5q0 96 68.5 142t212.5 46q23 0 66.5 -4t59.5 -4q27 0 73 3.5t76 3.5q18 0 28.5 -10.5t10.5 -61.5zM367 -20q0 9 -24 9h-90q-7 -7 -7 -13t9 -10.5t51 -4.5q29 0 45 3t16 16zM275 360q0 -7 5.5 -11.5
t33.5 -4.5q36 0 36 17q0 19 -39 19q-16 0 -26 -4t-10 -16zM143 657q-30 19 -40 28.5t-10 23.5q0 29 38 77.5t64 48.5q34 0 72 -34q83 -65 112 -94q1 -1 17.5 -16.5t26.5 -27.5t10 -23q0 -15 -10.5 -34.5t-32.5 -34.5t-38 -15q-10 0 -32 7.5t-48 21.5q-96 52 -129 72z" />
    <glyph glyph-name="Imacron" unicode="&#x12a;" horiz-adv-x="331" 
d="M312 649v-610q0 -23 -34 -34t-110 -11t-112.5 11t-36.5 34v610q0 19 30 32t119 13q76 0 110 -11t34 -34zM-41 881h406q17 0 26 -22.5t9 -51.5q0 -19 -5 -39t-13.5 -29.5t-16.5 -9.5h-406q-8 0 -16.5 9.5t-14 30t-5.5 38.5q0 20 5.5 39t14 27t16.5 8z" />
    <glyph glyph-name="imacron" unicode="&#x12b;" horiz-adv-x="319" 
d="M307 489v-450q0 -23 -34 -34t-110 -11t-112.5 11t-36.5 34v450q0 19 30 32t119 13q76 0 110 -11t34 -34zM-42 722h406q17 0 26 -22.5t9 -51.5q0 -19 -5 -39t-13.5 -29.5t-16.5 -9.5h-406q-8 0 -16.5 9.5t-14 30t-5.5 38.5q0 20 5.5 39t14 27t16.5 8z" />
    <glyph glyph-name="Iogonek" unicode="&#x12e;" horiz-adv-x="331" 
d="M312 649v-610q0 -11 -10.5 -21.5t-34.5 -16t-54 -6.5l-1 -13q0 -9 9.5 -14.5t25.5 -5.5q13 0 37 8t27 8q15 0 15 -49q0 -56 -9 -75q-7 -14 -50.5 -29t-92.5 -15q-97 0 -139 30.5t-42 87.5q0 49 58 78q-32 12 -32 33v610q0 19 30 32t119 13q76 0 110 -11t34 -34z" />
    <glyph glyph-name="iogonek" unicode="&#x12f;" horiz-adv-x="319" 
d="M307 489v-450q0 -38 -93 -44l-2 -13q0 -9 9.5 -14.5t25.5 -5.5q13 0 37 8t27 8q15 0 15 -49q0 -56 -9 -75q-7 -14 -50.5 -29t-92.5 -15q-97 0 -139 30.5t-42 87.5q0 47 56 77q-15 4 -25 13t-10 21v450q0 19 30 32t119 13q76 0 110 -11t34 -34zM-1 654q0 22 7.5 43t35 33
t115.5 12q59 0 91 -6.5t48.5 -26t16.5 -55.5q0 -27 -12 -45.5t-42.5 -28t-101.5 -9.5q-54 0 -89.5 5.5t-52 25t-16.5 52.5z" />
    <glyph glyph-name="dotlessi" unicode="&#x131;" horiz-adv-x="321" 
d="M307 489v-450q0 -23 -34 -34t-110 -11t-112.5 11t-36.5 34v450q0 19 30 32t119 13q76 0 110 -11t34 -34z" />
    <glyph glyph-name="Kcommaaccent" unicode="&#x136;" horiz-adv-x="710" 
d="M567 362l116 -110q13 -12 20 -30t7 -37v-138q0 -47 -57 -47h-113q-30 0 -54.5 7.5t-37.5 31.5l-79 171q-1 3 -6.5 9t-15.5 8.5t-35 4.5v-193q0 -23 -34 -34t-110 -11t-112.5 11t-36.5 34v609q0 24 36.5 35t112.5 11t110 -11t34 -35v-154q42 0 58 28l64 125q9 19 24.5 31
t64.5 12h115q26 0 42.5 -9.5t16.5 -37.5v-118q0 -59 -11.5 -81.5t-31.5 -28.5l-85 -27q-9 -4 -9 -13q0 -6 7 -13zM245 -318q0 29 9 103t15 107q12 73 69 73q20 0 51.5 -5.5t47.5 -11.5q3 -1 22 -7.5t35.5 -15.5t26 -22.5t9.5 -30.5q0 -26 -19 -67q-1 -2 -17 -35.5t-31.5 -64
t-29.5 -53t-22 -26.5q-9 -5 -19 -5q-32 0 -89.5 19.5t-57.5 41.5z" />
    <glyph glyph-name="kcommaaccent" unicode="&#x137;" horiz-adv-x="663" 
d="M611 301l-94 -15q-12 -1 -12 -9q0 -5 10 -8l110 -24q25 -7 25 -56v-139q0 -29 -8.5 -39.5t-33.5 -10.5h-172q-50 0 -58 26l-36 118q-10 32 -48 32v-140q0 -18 -26.5 -30t-113.5 -12q-72 0 -106 10t-34 31v617q0 18 27 30t114 12q139 0 139 -42v-245q26 1 34 5t14 14
l45 73q8 13 20 20t37 7h155q22 0 33.5 -10t11.5 -39v-122q0 -24 -8.5 -38t-24.5 -16zM190 -308q0 29 9 103t15 107q12 73 69 73q20 0 51.5 -5.5t47.5 -11.5q3 -1 22 -7.5t35.5 -15.5t26 -22.5t9.5 -30.5q0 -26 -19 -67q-1 -2 -17 -35.5t-31.5 -64t-29.5 -53t-22 -26.5
q-9 -5 -19 -5q-32 0 -89.5 19.5t-57.5 41.5z" />
    <glyph glyph-name="Lacute" unicode="&#x139;" horiz-adv-x="592" 
d="M313 648v-432q0 -3 6 -3h238q9 0 17 -15t13 -44t5 -51q0 -30 -7.5 -58t-14.5 -36.5t-13 -8.5h-486q-24 0 -37.5 16t-13.5 47v585q0 19 30 32t119 13q77 0 110.5 -11t33.5 -34zM352 814q-33 -20 -129 -72q-56 -29 -80 -29q-16 0 -38 15t-32.5 34.5t-10.5 34.5
q0 7 6.5 17.5t26.5 29.5t21 20q24 24 111 94q40 34 72 34q20 0 47.5 -28.5t41.5 -56t14 -41.5q0 -11 -7 -20t-43 -32z" />
    <glyph glyph-name="lacute" unicode="&#x13a;" horiz-adv-x="296" 
d="M283 652v-616q0 -18 -26 -30t-112 -12q-72 0 -106.5 10t-34.5 31v617q0 18 27.5 30t114.5 12q73 0 105 -10t32 -32zM328 814q-33 -20 -129 -72q-56 -29 -80 -29q-16 0 -38 15t-32.5 34.5t-10.5 34.5q0 7 6.5 17.5t26.5 29.5t21 20q24 24 111 94q40 34 72 34
q20 0 47.5 -28.5t41.5 -56t14 -41.5q0 -11 -7 -20t-43 -32z" />
    <glyph glyph-name="Lcommaaccent" unicode="&#x13b;" horiz-adv-x="592" 
d="M313 648v-432q0 -3 6 -3h238q9 0 17 -15t13 -44t5 -51q0 -30 -7.5 -58t-14.5 -36.5t-13 -8.5h-486q-24 0 -37.5 16t-13.5 47v585q0 19 30 32t119 13q77 0 110.5 -11t33.5 -34zM172 -318q0 29 9 103t15 107q12 73 69 73q20 0 51.5 -5.5t47.5 -11.5q3 -1 22 -7.5
t35.5 -15.5t26 -22.5t9.5 -30.5q0 -26 -19 -67q-1 -2 -17 -35.5t-31.5 -64t-29.5 -53t-22 -26.5q-9 -5 -19 -5q-32 0 -89.5 19.5t-57.5 41.5z" />
    <glyph glyph-name="lcommaaccent" unicode="&#x13c;" horiz-adv-x="307" 
d="M293 652v-616q0 -18 -26 -30t-112 -12q-72 0 -106.5 10t-34.5 31v617q0 18 27.5 30t114.5 12q73 0 105 -10t32 -32zM-4 -308q0 29 9 103t15 107q12 73 69 73q20 0 51.5 -5.5t47.5 -11.5q3 -1 22 -7.5t35.5 -15.5t26 -22.5t9.5 -30.5q0 -26 -19 -67q-1 -2 -17 -35.5
t-31.5 -64t-29.5 -53t-22 -26.5q-9 -5 -19 -5q-32 0 -89.5 19.5t-57.5 41.5z" />
    <glyph glyph-name="Lcaron" unicode="&#x13d;" horiz-adv-x="647" 
d="M313 648v-432q0 -3 6 -3h238q9 0 17 -15t13 -44t5 -51q0 -30 -7.5 -58t-14.5 -36.5t-13 -8.5h-486q-24 0 -37.5 16t-13.5 47v585q0 19 30 32t119 13q77 0 110.5 -11t33.5 -34zM363 417q0 26 8.5 101t14.5 108q12 74 69 74q19 0 48.5 -5.5t50.5 -11.5q55 -18 74 -35.5
t19 -41.5q0 -6 -3.5 -24.5t-15.5 -42.5q-31 -70 -46.5 -101t-29.5 -53t-23 -24l-19 -2q-21 0 -59 9t-63 21.5t-25 27.5z" />
    <glyph glyph-name="lcaron" unicode="&#x13e;" horiz-adv-x="533" 
d="M293 652v-616q0 -18 -26 -30t-112 -12q-72 0 -106.5 10t-34.5 31v617q0 18 27.5 30t114.5 12q73 0 105 -10t32 -32zM311 417q0 26 8.5 101t14.5 108q12 74 69 74q19 0 48.5 -5.5t50.5 -11.5q55 -18 74 -35.5t19 -41.5q0 -6 -3.5 -24.5t-15.5 -42.5q-31 -70 -46.5 -101
t-29.5 -53t-23 -24l-19 -2q-21 0 -59 9t-63 21.5t-25 27.5z" />
    <glyph glyph-name="Lslash" unicode="&#x141;" horiz-adv-x="651" 
d="M372 647v-151q57 18 62 18q11 0 18.5 -17t7.5 -50q0 -40 -10 -46l-78 -26v-160q0 -3 6 -3h238q9 0 17 -15t13 -44t5 -51q0 -30 -7.5 -58t-14.5 -36.5t-13 -8.5h-486q-24 0 -37.5 16t-13.5 47v223l-48 -14q-12 0 -21.5 18.5t-9.5 53.5q0 32 9 35l70 23v246q0 19 30 32
t119 13q77 0 110.5 -11t33.5 -34z" />
    <glyph glyph-name="lslash" unicode="&#x142;" horiz-adv-x="393" 
d="M337 652v-151l36 12q9 0 14.5 -20t5.5 -36q0 -42 -11 -47l-45 -18v-356q0 -18 -26 -30t-112 -12q-72 0 -106.5 10t-34.5 31v251l-26 -9q-13 0 -22.5 15t-9.5 47q0 30 10 34l48 18v261q0 18 27.5 30t114.5 12q73 0 105 -10t32 -32z" />
    <glyph glyph-name="Nacute" unicode="&#x143;" horiz-adv-x="816" 
d="M795 648l1 -581q0 -30 -9.5 -44t-30.5 -18.5t-73 -4.5h-128q-68 0 -88 11.5t-32 33.5l-104 192q-8 16 -18 16q-13 0 -13 -11v-203q0 -23 -32 -34t-107 -11q-73 0 -107 11t-34 34v584q0 30 8.5 44t28 18.5t68.5 4.5h153q59 0 83.5 -10t38.5 -42l85 -189q6 -12 15 -12
q14 0 14 9v202q0 23 34.5 34t107.5 11q75 0 107 -11t32 -34zM618 811q-33 -20 -129 -72q-56 -29 -80 -29q-16 0 -38 15t-32.5 34.5t-10.5 34.5q0 7 6.5 17.5t26.5 29.5t21 20q24 24 111 94q40 34 72 34q20 0 47.5 -28.5t41.5 -56t14 -41.5q0 -11 -7 -20t-43 -32z" />
    <glyph glyph-name="nacute" unicode="&#x144;" horiz-adv-x="615" 
d="M256 496q54 42 103 42q59 0 104 -13t76.5 -41t47.5 -74.5t16 -112.5v-262q0 -18 -26.5 -30t-111.5 -12q-73 0 -107.5 10t-34.5 32v214q0 32 -2 50t-14 18q-4 0 -7.5 -3t-4.5 -22t-1 -42v-215q0 -18 -26.5 -30t-112.5 -12q-72 0 -106.5 10t-34.5 32v469q0 18 21 27.5
t92 9.5q26 0 49 -6t28 -15l11 -23q7 -12 18 -12q9 0 23 11zM483 658q-33 -20 -129 -72q-56 -29 -80 -29q-16 0 -38 15t-32.5 34.5t-10.5 34.5q0 7 6.5 17.5t26.5 29.5t21 20q24 24 111 94q40 34 72 34q20 0 47.5 -28.5t41.5 -56t14 -41.5q0 -11 -7 -20t-43 -32z" />
    <glyph glyph-name="Ncommaaccent" unicode="&#x145;" horiz-adv-x="816" 
d="M795 648l1 -581q0 -30 -9.5 -44t-30.5 -18.5t-73 -4.5h-128q-68 0 -88 11.5t-32 33.5l-104 192q-8 16 -18 16q-13 0 -13 -11v-203q0 -23 -32 -34t-107 -11q-73 0 -107 11t-34 34v584q0 30 8.5 44t28 18.5t68.5 4.5h153q59 0 83.5 -10t38.5 -42l85 -189q6 -12 15 -12
q14 0 14 9v202q0 23 34.5 34t107.5 11q75 0 107 -11t32 -34zM279 -318q0 29 9 103t15 107q12 73 69 73q20 0 51.5 -5.5t47.5 -11.5q3 -1 22 -7.5t35.5 -15.5t26 -22.5t9.5 -30.5q0 -26 -19 -67q-1 -2 -17 -35.5t-31.5 -64t-29.5 -53t-22 -26.5q-9 -5 -19 -5
q-32 0 -89.5 19.5t-57.5 41.5z" />
    <glyph glyph-name="ncommaaccent" unicode="&#x146;" horiz-adv-x="615" 
d="M256 496q54 42 103 42q59 0 104 -13t76.5 -41t47.5 -74.5t16 -112.5v-262q0 -18 -26.5 -30t-111.5 -12q-73 0 -107.5 10t-34.5 32v214q0 32 -2 50t-14 18q-4 0 -7.5 -3t-4.5 -22t-1 -42v-215q0 -18 -26.5 -30t-112.5 -12q-72 0 -106.5 10t-34.5 32v469q0 18 21 27.5
t92 9.5q26 0 49 -6t28 -15l11 -23q7 -12 18 -12q9 0 23 11zM179 -308q0 29 9 103t15 107q12 73 69 73q20 0 51.5 -5.5t47.5 -11.5q3 -1 22 -7.5t35.5 -15.5t26 -22.5t9.5 -30.5q0 -26 -19 -67q-1 -2 -17 -35.5t-31.5 -64t-29.5 -53t-22 -26.5q-9 -5 -19 -5q-32 0 -89.5 19.5
t-57.5 41.5z" />
    <glyph glyph-name="Ncaron" unicode="&#x147;" horiz-adv-x="816" 
d="M795 648l1 -581q0 -30 -9.5 -44t-30.5 -18.5t-73 -4.5h-128q-68 0 -88 11.5t-32 33.5l-104 192q-8 16 -18 16q-13 0 -13 -11v-203q0 -23 -32 -34t-107 -11q-73 0 -107 11t-34 34v584q0 30 8.5 44t28 18.5t68.5 4.5h153q59 0 83.5 -10t38.5 -42l85 -189q6 -12 15 -12
q14 0 14 9v202q0 23 34.5 34t107.5 11q75 0 107 -11t32 -34zM430 716q-26 0 -59 6t-62 33q-93 90 -93 108q0 16 17.5 34t51 33t53.5 15q50 0 71 -44l21 -41l23 41q10 18 24.5 31t42.5 13q13 0 41 -9t56 -30t28 -43q0 -11 -32.5 -47.5t-60.5 -60.5q-25 -22 -53.5 -30.5
t-68.5 -8.5z" />
    <glyph glyph-name="ncaron" unicode="&#x148;" horiz-adv-x="615" 
d="M256 496q54 42 103 42q59 0 104 -13t76.5 -41t47.5 -74.5t16 -112.5v-262q0 -18 -26.5 -30t-111.5 -12q-73 0 -107.5 10t-34.5 32v214q0 32 -2 50t-14 18q-4 0 -7.5 -3t-4.5 -22t-1 -42v-215q0 -18 -26.5 -30t-112.5 -12q-72 0 -106.5 10t-34.5 32v469q0 18 21 27.5
t92 9.5q26 0 49 -6t28 -15l11 -23q7 -12 18 -12q9 0 23 11zM313 562q-26 0 -59 6t-62 33q-93 90 -93 108q0 16 17.5 34t51 33t53.5 15q50 0 71 -44l21 -41l23 41q10 18 24.5 31t42.5 13q13 0 41 -9t56 -30t28 -43q0 -11 -32.5 -47.5t-60.5 -60.5q-25 -22 -53.5 -30.5
t-68.5 -8.5z" />
    <glyph glyph-name="Omacron" unicode="&#x14c;" horiz-adv-x="760" 
d="M380 -26q-85 0 -155 24t-118.5 71t-74 117t-25.5 158t25.5 157t74 114.5t118 68.5t155.5 23q85 0 154.5 -23t118 -69t74.5 -114.5t26 -156.5t-26 -158t-74.5 -117t-118 -71t-154.5 -24zM380 493q-43 0 -63 -33.5t-20 -113.5q0 -76 18 -113t65 -37q44 0 64 35.5t20 114.5
q0 75 -18 111t-66 36zM177 884h406q17 0 26 -22.5t9 -51.5q0 -19 -5 -39t-13.5 -29.5t-16.5 -9.5h-406q-8 0 -16.5 9.5t-14 30t-5.5 38.5q0 20 5.5 39t14 27t16.5 8z" />
    <glyph glyph-name="omacron" unicode="&#x14d;" horiz-adv-x="658" 
d="M330 -9q-64 0 -122 15t-103 47.5t-71.5 86t-26.5 125.5q0 53 18 104t59 89t103 60t143 22q64 0 122 -15.5t102.5 -48.5t70.5 -86.5t26 -124.5q0 -54 -17.5 -105t-58 -88.5t-102 -59t-143.5 -21.5zM330 197q9 0 14 15t5 55q0 43 -4.5 54t-14.5 11t-15 -13.5t-5 -51.5
q0 -35 4 -52.5t16 -17.5zM129 723h406q17 0 26 -22.5t9 -51.5q0 -19 -5 -39t-13.5 -29.5t-16.5 -9.5h-406q-8 0 -16.5 9.5t-14 30t-5.5 38.5q0 20 5.5 39t14 27t16.5 8z" />
    <glyph glyph-name="Ohungarumlaut" unicode="&#x150;" horiz-adv-x="760" 
d="M380 -26q-85 0 -155 24t-118.5 71t-74 117t-25.5 158t25.5 157t74 114.5t118 68.5t155.5 23q85 0 154.5 -23t118 -69t74.5 -114.5t26 -156.5t-26 -158t-74.5 -117t-118 -71t-154.5 -24zM380 493q-43 0 -63 -33.5t-20 -113.5q0 -76 18 -113t65 -37q44 0 64 35.5t20 114.5
q0 75 -18 111t-66 36zM692 813q-33 -20 -129 -72q-56 -29 -80 -29q-16 0 -38 15t-32.5 34.5t-10.5 34.5q0 7 6.5 17.5t26.5 29.5t21 20q24 24 111 94q40 34 72 34q20 0 47.5 -28.5t41.5 -56t14 -41.5q0 -11 -7 -20t-43 -32zM372 813q-33 -20 -129 -72q-56 -29 -80 -29
q-16 0 -38 15t-32.5 34.5t-10.5 34.5q0 7 6.5 17.5t26.5 29.5t21 20q24 24 111 94q40 34 72 34q20 0 47.5 -28.5t41.5 -56t14 -41.5q0 -11 -7 -20t-43 -32z" />
    <glyph glyph-name="ohungarumlaut" unicode="&#x151;" horiz-adv-x="658" 
d="M330 -9q-64 0 -122 15t-103 47.5t-71.5 86t-26.5 125.5q0 53 18 104t59 89t103 60t143 22q64 0 122 -15.5t102.5 -48.5t70.5 -86.5t26 -124.5q0 -54 -17.5 -105t-58 -88.5t-102 -59t-143.5 -21.5zM330 197q9 0 14 15t5 55q0 43 -4.5 54t-14.5 11t-15 -13.5t-5 -51.5
q0 -35 4 -52.5t16 -17.5zM679 659q-33 -20 -129 -72q-56 -29 -80 -29q-16 0 -38 15t-32.5 34.5t-10.5 34.5q0 7 6.5 17.5t26.5 29.5t21 20q24 24 111 94q40 34 72 34q20 0 47.5 -28.5t41.5 -56t14 -41.5q0 -11 -7 -20t-43 -32zM350 659q-33 -20 -129 -72q-56 -29 -80 -29
q-16 0 -38 15t-32.5 34.5t-10.5 34.5q0 7 6.5 17.5t26.5 29.5t21 20q24 24 111 94q40 34 72 34q20 0 47.5 -28.5t41.5 -56t14 -41.5q0 -11 -7 -20t-43 -32z" />
    <glyph glyph-name="OE" unicode="&#x152;" horiz-adv-x="891" 
d="M400 484q-32 0 -54.5 -8t-35.5 -33.5t-13 -97.5q0 -70 23.5 -105t79.5 -35q3 1 3 4v270q0 4 -3 5zM864 0h-471q-79 0 -149.5 21.5t-123.5 64.5t-82.5 109t-29.5 149t27 148.5t77.5 109t121 65.5t155.5 22h447q8 0 16.5 -11.5t14 -36t5.5 -45.5q0 -19 -5.5 -51.5
t-13.5 -50t-17 -17.5h-148l-3 -4v-8q0 -2 0.5 -5t6.5 -3l95 -21q7 -2 15 -14t13 -35.5t5 -42.5q0 -22 -5 -44t-13 -33t-15 -12l-97 -25q-4 -1 -4.5 -2.5t-0.5 -2.5v-11q0 -3 3 -3h176q16 0 25.5 -39.5t9.5 -74.5q0 -29 -9.5 -63t-25.5 -34z" />
    <glyph glyph-name="oe" unicode="&#x153;" horiz-adv-x="829" 
d="M407 23q-38 -14 -68.5 -22t-63.5 -8q-54 0 -102.5 17.5t-86 52.5t-58.5 87t-21 117q0 56 18.5 105.5t54 86t85.5 57t110 20.5q80 0 141 -14q68 17 145 17q51 0 98.5 -17.5t84 -51t57.5 -81.5t21 -105q0 -38 -8 -53t-25.5 -18t-41.5 -3h-229q0 -18 18 -28.5t43 -10.5
q40 0 105.5 11.5t81.5 11.5q13 0 25.5 -24t17.5 -55.5t5 -55.5q0 -12 -29.5 -29t-79 -28.5t-115.5 -11.5q-50 0 -92 4.5t-91 28.5zM276 197q19 0 19 81q0 49 -4.5 65t-14.5 16q-19 0 -19 -81q0 -48 5 -64.5t14 -16.5zM513 336h49q2 0 5.5 1.5t3.5 10.5t-7.5 15t-21.5 6
q-10 0 -19.5 -10t-9.5 -23z" />
    <glyph glyph-name="Racute" unicode="&#x154;" horiz-adv-x="664" 
d="M383 29l-64 162h-6v-153q0 -24 -37 -35t-116 -11q-72 0 -106 11t-34 35v585q0 32 13.5 48.5t37.5 16.5h218q189 0 278 -53.5t89 -172.5q0 -132 -103 -181l66 -29q35 -15 35 -69v-134q0 -49 -58 -49h-109q-45 0 -70 5.5t-34 23.5zM315 488q-3 0 -3 -4v-86q29 0 44 10.5
t15 43.5q0 17 -7.5 26.5t-48.5 9.5zM442 814q-33 -20 -129 -72q-56 -29 -80 -29q-16 0 -38 15t-32.5 34.5t-10.5 34.5q0 7 6.5 17.5t26.5 29.5t21 20q24 24 111 94q40 34 72 34q20 0 47.5 -28.5t41.5 -56t14 -41.5q0 -11 -7 -20t-43 -32z" />
    <glyph glyph-name="racute" unicode="&#x155;" horiz-adv-x="463" 
d="M393 541l20 -1q13 0 19.5 -15t6.5 -64q0 -66 -9.5 -113t-27.5 -47h-33q-41 0 -55 -13t-14 -39v-214q0 -18 -26.5 -30t-112.5 -12q-72 0 -106.5 10t-34.5 32v469q0 18 21 27.5t93 9.5q26 0 49 -5.5t27 -15.5l18 -30q5 -12 15 -12q7 0 21 12q45 36 72.5 43.5t56.5 7.5z
M393 658q-33 -20 -129 -72q-56 -29 -80 -29q-16 0 -38 15t-32.5 34.5t-10.5 34.5q0 7 6.5 17.5t26.5 29.5t21 20q24 24 111 94q40 34 72 34q20 0 47.5 -28.5t41.5 -56t14 -41.5q0 -11 -7 -20t-43 -32z" />
    <glyph glyph-name="Rcommaaccent" unicode="&#x156;" horiz-adv-x="664" 
d="M383 29l-64 162h-6v-153q0 -24 -37 -35t-116 -11q-72 0 -106 11t-34 35v585q0 32 13.5 48.5t37.5 16.5h218q189 0 278 -53.5t89 -172.5q0 -132 -103 -181l66 -29q35 -15 35 -69v-134q0 -49 -58 -49h-109q-45 0 -70 5.5t-34 23.5zM315 488q-3 0 -3 -4v-86q29 0 44 10.5
t15 43.5q0 17 -7.5 26.5t-48.5 9.5zM217 -318q0 29 9 103t15 107q12 73 69 73q20 0 51.5 -5.5t47.5 -11.5q3 -1 22 -7.5t35.5 -15.5t26 -22.5t9.5 -30.5q0 -26 -19 -67q-1 -2 -17 -35.5t-31.5 -64t-29.5 -53t-22 -26.5q-9 -5 -19 -5q-32 0 -89.5 19.5t-57.5 41.5z" />
    <glyph glyph-name="rcommaaccent" unicode="&#x157;" horiz-adv-x="441" 
d="M387 541l20 -1q13 0 19.5 -15t6.5 -64q0 -66 -9.5 -113t-27.5 -47h-33q-41 0 -55 -13t-14 -39v-214q0 -18 -26.5 -30t-112.5 -12q-72 0 -106.5 10t-34.5 32v469q0 18 21 27.5t93 9.5q26 0 49 -5.5t27 -15.5l18 -30q5 -12 15 -12q7 0 21 12q45 36 72.5 43.5t56.5 7.5z
M-2 -308q0 29 9 103t15 107q12 73 69 73q20 0 51.5 -5.5t47.5 -11.5q3 -1 22 -7.5t35.5 -15.5t26 -22.5t9.5 -30.5q0 -26 -19 -67q-1 -2 -17 -35.5t-31.5 -64t-29.5 -53t-22 -26.5q-9 -5 -19 -5q-32 0 -89.5 19.5t-57.5 41.5z" />
    <glyph glyph-name="Rcaron" unicode="&#x158;" horiz-adv-x="664" 
d="M383 29l-64 162h-6v-153q0 -24 -37 -35t-116 -11q-72 0 -106 11t-34 35v585q0 32 13.5 48.5t37.5 16.5h218q189 0 278 -53.5t89 -172.5q0 -132 -103 -181l66 -29q35 -15 35 -69v-134q0 -49 -58 -49h-109q-45 0 -70 5.5t-34 23.5zM315 488q-3 0 -3 -4v-86q29 0 44 10.5
t15 43.5q0 17 -7.5 26.5t-48.5 9.5zM296 715q-26 0 -59 6t-62 33q-93 90 -93 108q0 16 17.5 34t51 33t53.5 15q50 0 71 -44l21 -41l23 41q10 18 24.5 31t42.5 13q13 0 41 -9t56 -30t28 -43q0 -11 -32.5 -47.5t-60.5 -60.5q-25 -22 -53.5 -30.5t-68.5 -8.5z" />
    <glyph glyph-name="rcaron" unicode="&#x159;" horiz-adv-x="441" 
d="M387 541l20 -1q13 0 19.5 -15t6.5 -64q0 -66 -9.5 -113t-27.5 -47h-33q-41 0 -55 -13t-14 -39v-214q0 -18 -26.5 -30t-112.5 -12q-72 0 -106.5 10t-34.5 32v469q0 18 21 27.5t93 9.5q26 0 49 -5.5t27 -15.5l18 -30q5 -12 15 -12q7 0 21 12q45 36 72.5 43.5t56.5 7.5z
M237 552q-26 0 -59 6t-62 33q-93 90 -93 108q0 16 17.5 34t51 33t53.5 15q50 0 71 -44l21 -41l23 41q10 18 24.5 31t42.5 13q13 0 41 -9t56 -30t28 -43q0 -11 -32.5 -47.5t-60.5 -60.5q-25 -22 -53.5 -30.5t-68.5 -8.5z" />
    <glyph glyph-name="Sacute" unicode="&#x15a;" horiz-adv-x="629" 
d="M321 706q35 0 84.5 -5.5t101 -24t82 -44t30.5 -41.5q0 -26 -17 -63.5t-37.5 -61t-40.5 -23.5q-2 0 -11 1.5t-91 27t-124 25.5q-5 0 -9.5 -3t-4.5 -8q0 -6 13 -11.5t87 -20.5q125 -25 183.5 -79t58.5 -147q0 -67 -24 -116t-67 -79t-102 -44t-130 -14q-68 0 -126 11
t-98 28.5t-61 37.5t-21 37q0 19 19 61.5t41.5 70t42.5 27.5q4 0 11 -2t31 -15q44 -24 91 -38.5t78 -14.5t40.5 3t9.5 10q0 4 -7.5 7.5t-56.5 10.5q-88 13 -146.5 44.5t-91.5 84t-33 129.5q0 115 75.5 177t219.5 62zM510 841q-33 -20 -129 -72q-56 -29 -80 -29q-16 0 -38 15
t-32.5 34.5t-10.5 34.5q0 7 6.5 17.5t26.5 29.5t21 20q24 24 111 94q40 34 72 34q20 0 47.5 -28.5t41.5 -56t14 -41.5q0 -11 -7 -20t-43 -32z" />
    <glyph glyph-name="sacute" unicode="&#x15b;" horiz-adv-x="536" 
d="M263 -10q-34 0 -80.5 3.5t-91.5 16t-68 30.5t-23 31q0 36 21.5 87.5t43.5 51.5q2 0 20.5 -9t35.5 -16t37 -13t40 -8.5t35 -2.5q24 0 24 9q0 13 -24 17q-95 12 -127 27t-52 47.5t-20 86.5q0 62 30.5 103.5t88 64.5t142.5 23q123 0 200 -43q28 -15 28 -33q0 -12 -9 -40.5
t-28.5 -58.5t-37.5 -30q-1 0 -5.5 0.5t-63.5 15t-80 14.5q-16 0 -16 -9q0 -11 25 -14q108 -17 151.5 -41t60 -51.5t16.5 -58.5q0 -62 -31.5 -105.5t-92 -69t-149.5 -25.5zM456 658q-33 -20 -129 -72q-56 -29 -80 -29q-16 0 -38 15t-32.5 34.5t-10.5 34.5q0 7 6.5 17.5
t26.5 29.5t21 20q24 24 111 94q40 34 72 34q20 0 47.5 -28.5t41.5 -56t14 -41.5q0 -11 -7 -20t-43 -32z" />
    <glyph glyph-name="Scaron" unicode="&#x160;" horiz-adv-x="629" 
d="M321 706q35 0 84.5 -5.5t101 -24t82 -44t30.5 -41.5q0 -26 -17 -63.5t-37.5 -61t-40.5 -23.5q-2 0 -11 1.5t-91 27t-124 25.5q-5 0 -9.5 -3t-4.5 -8q0 -6 13 -11.5t87 -20.5q125 -25 183.5 -79t58.5 -147q0 -67 -24 -116t-67 -79t-102 -44t-130 -14q-68 0 -126 11
t-98 28.5t-61 37.5t-21 37q0 19 19 61.5t41.5 70t42.5 27.5q4 0 11 -2t31 -15q44 -24 91 -38.5t78 -14.5t40.5 3t9.5 10q0 4 -7.5 7.5t-56.5 10.5q-88 13 -146.5 44.5t-91.5 84t-33 129.5q0 115 75.5 177t219.5 62zM329 720q-26 0 -59 6t-62 33q-93 90 -93 108q0 16 17.5 34
t51 33t53.5 15q50 0 71 -44l21 -41l23 41q10 18 24.5 31t42.5 13q13 0 41 -9t56 -30t28 -43q0 -11 -32.5 -47.5t-60.5 -60.5q-25 -22 -53.5 -30.5t-68.5 -8.5z" />
    <glyph glyph-name="scaron" unicode="&#x161;" horiz-adv-x="536" 
d="M263 -25q-34 0 -80.5 3.5t-91.5 16t-68 30.5t-23 31q0 36 21.5 87.5t43.5 51.5q2 0 20.5 -9t35.5 -16t37 -13t40 -8.5t35 -2.5q24 0 24 9q0 13 -24 17q-95 12 -127 27t-52 47.5t-20 86.5q0 62 30.5 103.5t88 64.5t142.5 23q123 0 200 -43q28 -15 28 -33q0 -12 -9 -40.5
t-28.5 -58.5t-37.5 -30q-1 0 -5.5 0.5t-63.5 15t-80 14.5q-16 0 -16 -9q0 -11 25 -14q108 -17 151.5 -41t60 -51.5t16.5 -58.5q0 -62 -31.5 -105.5t-92 -69t-149.5 -25.5zM266 552q-26 0 -59 6t-62 33q-93 90 -93 108q0 16 17.5 34t51 33t53.5 15q50 0 71 -44l21 -41l23 41
q10 18 24.5 31t42.5 13q13 0 41 -9t56 -30t28 -43q0 -11 -32.5 -47.5t-60.5 -60.5q-25 -22 -53.5 -30.5t-68.5 -8.5z" />
    <glyph glyph-name="Tcaron" unicode="&#x164;" horiz-adv-x="675" 
d="M36 688h603q8 0 17 -11.5t14 -35.5t5 -45q0 -30 -10 -73t-26 -43h-148q-7 0 -7 -5v-436q0 -23 -34 -34t-110 -11t-112.5 11t-36.5 34v436q0 5 -7 5h-148q-16 0 -26 43t-10 73q0 21 5 45t14 35.5t17 11.5zM331 715q-26 0 -59 6t-62 33q-93 90 -93 108q0 16 17.5 34t51 33
t53.5 15q50 0 71 -44l21 -41l23 41q10 18 24.5 31t42.5 13q13 0 41 -9t56 -30t28 -43q0 -11 -32.5 -47.5t-60.5 -60.5q-25 -22 -53.5 -30.5t-68.5 -8.5z" />
    <glyph glyph-name="tcaron" unicode="&#x165;" horiz-adv-x="577" 
d="M601 601q-70 -32 -124 -41q-8 -2 -25 -2q-10 0 -28 12.5t-27 28.5t-9 30q0 12 43 48.5t62 47.5q17 10 30.5 16.5t27.5 6.5q9 0 26 -12q10 -8 22.5 -24.5t22 -38.5t9.5 -32q0 -6 -2.5 -17.5t-27.5 -22.5zM97 231v117l-70 25q-13 1 -20 23.5t-7 58.5q0 34 9.5 54.5
t25.5 22.5l63 20v34q0 18 30.5 35t91.5 29.5t94 12.5q36 0 49.5 -8.5t13.5 -23.5v-75l134 -23q20 -4 30 -18.5t10 -50.5q0 -79 -39 -88l-134 -29v-55q0 -22 8.5 -39t24 -25t29.5 -8q15 0 41 4.5t32 4.5q12 0 27.5 -21.5t29.5 -67.5t14 -74q0 -16 -14.5 -28.5t-41.5 -23
t-77.5 -18.5t-99.5 -8q-82 0 -140.5 30.5t-86 85t-27.5 127.5z" />
    <glyph glyph-name="Umacron" unicode="&#x16a;" horiz-adv-x="711" 
d="M698 648v-326q0 -90 -23 -155t-67 -105t-108 -58t-148 -18q-124 0 -196.5 37t-107.5 109t-35 185v331q0 24 36.5 35t112.5 11q77 0 110.5 -11t33.5 -35v-295q0 -58 3.5 -85t14 -40t32.5 -13q18 0 30 11t15.5 40t3.5 87v295q0 24 36.5 35t111.5 11q77 0 111 -11t34 -35z
M153 868h406q17 0 26 -22.5t9 -51.5q0 -19 -5 -39t-13.5 -29.5t-16.5 -9.5h-406q-8 0 -16.5 9.5t-14 30t-5.5 38.5q0 20 5.5 39t14 27t16.5 8z" />
    <glyph glyph-name="umacron" unicode="&#x16b;" horiz-adv-x="615" 
d="M359 31q-23 -19 -47 -30.5t-56 -11.5q-59 0 -104 13t-76.5 41t-47.5 74.5t-16 112.5v262q0 18 26.5 30t111.5 12q73 0 107.5 -10t34.5 -32v-214q0 -33 2 -50.5t14 -17.5q4 0 7.5 3t4.5 22t1 42v215q0 18 26.5 30t112.5 12q72 0 106.5 -10t34.5 -32v-469q0 -18 -21 -27.5
t-92 -9.5q-26 0 -49 6t-28 15l-11 23q-6 12 -18 12q-10 0 -23 -11zM118 735h406q17 0 26 -22.5t9 -51.5q0 -19 -5 -39t-13.5 -29.5t-16.5 -9.5h-406q-8 0 -16.5 9.5t-14 30t-5.5 38.5q0 20 5.5 39t14 27t16.5 8z" />
    <glyph glyph-name="Uring" unicode="&#x16e;" horiz-adv-x="711" 
d="M698 648v-326q0 -90 -23 -155t-67 -105t-108 -58t-148 -18q-124 0 -196.5 37t-107.5 109t-35 185v331q0 24 36.5 35t112.5 11q77 0 110.5 -11t33.5 -35v-295q0 -58 3.5 -85t14 -40t32.5 -13q18 0 30 11t15.5 40t3.5 87v295q0 24 36.5 35t111.5 11q77 0 111 -11t34 -35z
M199 829q0 41 19 70.5t55 45.5t82 16q31 0 61 -8t51.5 -24t34 -41.5t12.5 -58.5q0 -24 -8.5 -48.5t-30.5 -45.5t-56 -31t-64 -10t-67 11.5t-63 43.5t-26 80zM309 829q0 -24 13.5 -37t34.5 -13q22 0 35.5 13t13.5 37t-13.5 36t-35.5 12q-21 0 -34.5 -12t-13.5 -36z" />
    <glyph glyph-name="uring" unicode="&#x16f;" horiz-adv-x="615" 
d="M359 31q-23 -19 -47 -30.5t-56 -11.5q-59 0 -104 13t-76.5 41t-47.5 74.5t-16 112.5v262q0 18 26.5 30t111.5 12q73 0 107.5 -10t34.5 -32v-214q0 -33 2 -50.5t14 -17.5q4 0 7.5 3t4.5 22t1 42v215q0 18 26.5 30t112.5 12q72 0 106.5 -10t34.5 -32v-469q0 -18 -21 -27.5
t-92 -9.5q-26 0 -49 6t-28 15l-11 23q-6 12 -18 12q-10 0 -23 -11zM151 688q0 41 19 70.5t55 45.5t82 16q31 0 61 -8t51.5 -24t34 -41.5t12.5 -58.5q0 -24 -8.5 -48.5t-30.5 -45.5t-56 -31t-64 -10t-67 11.5t-63 43.5t-26 80zM261 688q0 -24 13.5 -37t34.5 -13q22 0 35.5 13
t13.5 37t-13.5 36t-35.5 12q-21 0 -34.5 -12t-13.5 -36z" />
    <glyph glyph-name="Uhungarumlaut" unicode="&#x170;" horiz-adv-x="746" 
d="M698 648v-326q0 -90 -23 -155t-67 -105t-108 -58t-148 -18q-124 0 -196.5 37t-107.5 109t-35 185v331q0 24 36.5 35t112.5 11q77 0 110.5 -11t33.5 -35v-295q0 -58 3.5 -85t14 -40t32.5 -13q18 0 30 11t15.5 40t3.5 87v295q0 24 36.5 35t111.5 11q77 0 111 -11t34 -35z
M683 815q-33 -20 -129 -72q-56 -29 -80 -29q-16 0 -38 15t-32.5 34.5t-10.5 34.5q0 7 6.5 17.5t26.5 29.5t21 20q24 24 111 94q40 34 72 34q20 0 47.5 -28.5t41.5 -56t14 -41.5q0 -11 -7 -20t-43 -32zM348 815q-33 -20 -129 -72q-56 -29 -80 -29q-16 0 -38 15t-32.5 34.5
t-10.5 34.5q0 7 6.5 17.5t26.5 29.5t21 20q24 24 111 94q40 34 72 34q20 0 47.5 -28.5t41.5 -56t14 -41.5q0 -11 -7 -20t-43 -32z" />
    <glyph glyph-name="uhungarumlaut" unicode="&#x171;" horiz-adv-x="615" 
d="M359 31q-23 -19 -47 -30.5t-56 -11.5q-59 0 -104 13t-76.5 41t-47.5 74.5t-16 112.5v262q0 18 26.5 30t111.5 12q73 0 107.5 -10t34.5 -32v-214q0 -33 2 -50.5t14 -17.5q4 0 7.5 3t4.5 22t1 42v215q0 18 26.5 30t112.5 12q72 0 106.5 -10t34.5 -32v-469q0 -18 -21 -27.5
t-92 -9.5q-26 0 -49 6t-28 15l-11 23q-6 12 -18 12q-10 0 -23 -11zM659 659q-33 -20 -129 -72q-56 -29 -80 -29q-16 0 -38 15t-32.5 34.5t-10.5 34.5q0 7 6.5 17.5t26.5 29.5t21 20q24 24 111 94q40 34 72 34q20 0 47.5 -28.5t41.5 -56t14 -41.5q0 -11 -7 -20t-43 -32z
M330 659q-33 -20 -129 -72q-56 -29 -80 -29q-16 0 -38 15t-32.5 34.5t-10.5 34.5q0 7 6.5 17.5t26.5 29.5t21 20q24 24 111 94q40 34 72 34q20 0 47.5 -28.5t41.5 -56t14 -41.5q0 -11 -7 -20t-43 -32z" />
    <glyph glyph-name="Uogonek" unicode="&#x172;" horiz-adv-x="711" 
d="M698 648v-326q0 -80 -18 -140t-52 -100t-84.5 -62.5t-115.5 -29.5l-1 -8q0 -9 9.5 -14.5t25.5 -5.5q13 0 37 8t27 8q15 0 15 -49q0 -56 -9 -75q-7 -14 -50.5 -29t-92.5 -15q-97 0 -139 30.5t-42 87.5q0 40 39 67q-116 19 -175 96t-59 226v331q0 24 36.5 35t112.5 11
q77 0 110.5 -11t33.5 -35v-295q0 -58 3.5 -85t14 -40t32.5 -13q18 0 30 11t15.5 40t3.5 87v295q0 24 36.5 35t111.5 11q77 0 111 -11t34 -35z" />
    <glyph glyph-name="uogonek" unicode="&#x173;" horiz-adv-x="615" 
d="M359 31q-23 -19 -47 -30.5t-56 -11.5q-59 0 -104 13t-76.5 41t-47.5 74.5t-16 112.5v262q0 18 26.5 30t111.5 12q73 0 107.5 -10t34.5 -32v-214q0 -33 2 -50.5t14 -17.5q4 0 7.5 3t4.5 22t1 42v215q0 18 26.5 30t112.5 12q72 0 106.5 -10t34.5 -32v-469q0 -28 -52 -35
q0 -12 9.5 -19.5t25.5 -7.5q13 0 37 8t27 8q15 0 15 -49q0 -56 -9 -75q-7 -14 -50.5 -29t-92.5 -15q-97 0 -139 30.5t-42 87.5q0 28 21 51t57 37q-14 27 -26 27q-10 0 -23 -11z" />
    <glyph glyph-name="Ydieresis" unicode="&#x178;" horiz-adv-x="658" 
d="M469 282v-243q0 -19 -27.5 -32t-117.5 -13q-74 0 -109 11t-35 34v247l-156 172q-22 30 -22 81v97q0 53 60 53h106q30 0 51 -8t40 -40l56 -96q8 -8 12 -8q2 0 6.5 3t6.5 6l54 95q15 25 34.5 36.5t57.5 11.5h112q26 0 42 -9t16 -37v-105q0 -22 -5.5 -43.5t-14.5 -34.5z
M116 803q0 35 10 49.5t31.5 17.5t55.5 3q45 0 65 -6.5t25.5 -23.5t5.5 -40q0 -26 -6 -43t-25.5 -23t-64.5 -6q-47 0 -66.5 6t-25 22.5t-5.5 43.5zM349 803q0 35 10 49.5t31.5 17.5t54.5 3q71 0 84 -17.5t13 -52.5q0 -26 -6 -43t-25.5 -23t-65.5 -6q-47 0 -66 6t-24.5 22.5
t-5.5 43.5z" />
    <glyph glyph-name="Zacute" unicode="&#x179;" horiz-adv-x="603" 
d="M552 464l-209 -238q-1 -1 -3.5 -4t-3.5 -5t-1 -3q2 -3 7 -3h226q16 0 25.5 -38.5t9.5 -71.5q0 -29 -9 -65t-25 -36h-488q-37 0 -54 7t-22 24.5t-5 39.5q0 86 3.5 120.5t18.5 51.5l194 219l5 7l-7 2h-169q-9 0 -16.5 17t-12.5 48.5t-5 50.5q0 21 5 48t13.5 39.5t16.5 12.5
h494q20 0 31 -11.5t11 -64.5q0 -76 -5 -100.5t-25 -46.5zM471 814q-33 -20 -129 -72q-56 -29 -80 -29q-16 0 -38 15t-32.5 34.5t-10.5 34.5q0 7 6.5 17.5t26.5 29.5t21 20q24 24 111 94q40 34 72 34q20 0 47.5 -28.5t41.5 -56t14 -41.5q0 -11 -7 -20t-43 -32z" />
    <glyph glyph-name="zacute" unicode="&#x17a;" horiz-adv-x="559" 
d="M362 201h164q28 0 28 -101q0 -100 -28 -100h-455q-31 0 -48.5 10t-17.5 59q0 46 2 70t18 38l169 146h-143q-28 0 -28 96q0 107 28 107h423q24 0 40 -6t20.5 -21.5t4.5 -49.5q0 -59 -4 -77t-17 -30zM463 658q-33 -20 -129 -72q-56 -29 -80 -29q-16 0 -38 15t-32.5 34.5
t-10.5 34.5q0 7 6.5 17.5t26.5 29.5t21 20q24 24 111 94q40 34 72 34q20 0 47.5 -28.5t41.5 -56t14 -41.5q0 -11 -7 -20t-43 -32z" />
    <glyph glyph-name="Zdotaccent" unicode="&#x17b;" horiz-adv-x="603" 
d="M552 464l-209 -238q-1 -1 -3.5 -4t-3.5 -5t-1 -3q2 -3 7 -3h226q16 0 25.5 -38.5t9.5 -71.5q0 -29 -9 -65t-25 -36h-488q-37 0 -54 7t-22 24.5t-5 39.5q0 86 3.5 120.5t18.5 51.5l194 219l5 7l-7 2h-169q-9 0 -16.5 17t-12.5 48.5t-5 50.5q0 21 5 48t13.5 39.5t16.5 12.5
h494q20 0 31 -11.5t11 -64.5q0 -76 -5 -100.5t-25 -46.5zM157 816q0 30 10 50t38 29t105 9q58 0 89 -6.5t46.5 -26t15.5 -55.5q0 -46 -30.5 -64.5t-120.5 -18.5q-53 0 -87.5 5.5t-50 24.5t-15.5 53z" />
    <glyph glyph-name="zdotaccent" unicode="&#x17c;" horiz-adv-x="559" 
d="M362 201h164q28 0 28 -101q0 -100 -28 -100h-455q-31 0 -48.5 10t-17.5 59q0 46 2 70t18 38l169 146h-143q-28 0 -28 96q0 107 28 107h423q24 0 40 -6t20.5 -21.5t4.5 -49.5q0 -59 -4 -77t-17 -30zM129 644q0 30 10 50t38 29t105 9q58 0 89 -6.5t46.5 -26t15.5 -55.5
q0 -46 -30.5 -64.5t-120.5 -18.5q-53 0 -87.5 5.5t-50 24.5t-15.5 53z" />
    <glyph glyph-name="Zcaron" unicode="&#x17d;" horiz-adv-x="603" 
d="M552 464l-209 -238q-1 -1 -3.5 -4t-3.5 -5t-1 -3q2 -3 7 -3h226q16 0 25.5 -38.5t9.5 -71.5q0 -29 -9 -65t-25 -36h-488q-37 0 -54 7t-22 24.5t-5 39.5q0 86 3.5 120.5t18.5 51.5l194 219l5 7l-7 2h-169q-9 0 -16.5 17t-12.5 48.5t-5 50.5q0 21 5 48t13.5 39.5t16.5 12.5
h494q20 0 31 -11.5t11 -64.5q0 -76 -5 -100.5t-25 -46.5zM303 720q-26 0 -59 6t-62 33q-93 90 -93 108q0 16 17.5 34t51 33t53.5 15q50 0 71 -44l21 -41l23 41q10 18 24.5 31t42.5 13q13 0 41 -9t56 -30t28 -43q0 -11 -32.5 -47.5t-60.5 -60.5q-25 -22 -53.5 -30.5
t-68.5 -8.5z" />
    <glyph glyph-name="zcaron" unicode="&#x17e;" horiz-adv-x="559" 
d="M362 201h164q28 0 28 -101q0 -100 -28 -100h-455q-31 0 -48.5 10t-17.5 59q0 46 2 70t18 38l169 146h-143q-28 0 -28 96q0 107 28 107h423q24 0 40 -6t20.5 -21.5t4.5 -49.5q0 -59 -4 -77t-17 -30zM285 551q-26 0 -59 6t-62 33q-93 90 -93 108q0 16 17.5 34t51 33
t53.5 15q50 0 71 -44l21 -41l23 41q10 18 24.5 31t42.5 13q13 0 41 -9t56 -30t28 -43q0 -11 -32.5 -47.5t-60.5 -60.5q-25 -22 -53.5 -30.5t-68.5 -8.5z" />
    <glyph glyph-name="florin" unicode="&#x192;" 
d="M108 447l52 6l6 57q2 22 13 49t35.5 52t61 45.5t84 32.5t89.5 12q46 0 87.5 -7.5t56.5 -16.5q53 -26 53 -51q0 -21 -13.5 -62t-32 -61t-37.5 -20q-2 0 -36 6.5t-54 6.5q-15 0 -23.5 -7.5t-10.5 -32.5l91 -6q10 -1 20 -6t15 -17t5 -27q0 -86 -53 -94l-104 -17l-34 -388
q-2 -23 -34 -34t-104 -11q-69 0 -100.5 10t-31.5 32q0 13 14 172.5t19 219.5l-57 11q-10 2 -16.5 13.5t-6.5 35.5q0 43 13.5 68.5t32.5 28.5z" />
    <glyph glyph-name="circumflex" unicode="&#x2c6;" horiz-adv-x="411" 
d="M193 722q26 0 59 -6t62 -33q93 -90 93 -108q0 -16 -17.5 -34t-51 -33t-53.5 -15q-50 0 -71 44l-21 41l-23 -41q-10 -18 -24.5 -31t-42.5 -13q-13 0 -41 9t-56 30t-28 43q0 18 93 108q23 22 52.5 30.5t69.5 8.5z" />
    <glyph glyph-name="caron" unicode="&#x2c7;" horiz-adv-x="414" 
d="M202 513q-26 0 -59 6t-62 33q-93 90 -93 108q0 16 17.5 34t51 33t53.5 15q50 0 71 -44l21 -41l23 41q10 18 24.5 31t42.5 13q13 0 41 -9t56 -30t28 -43q0 -11 -32.5 -47.5t-60.5 -60.5q-25 -22 -53.5 -30.5t-68.5 -8.5z" />
    <glyph glyph-name="breve" unicode="&#x2d8;" horiz-adv-x="466" 
d="M234 456q-36 0 -74.5 11t-72.5 35.5t-57.5 58t-23.5 65.5q0 38 25 51t72 13q36 0 61.5 -7.5t32.5 -34.5q0 -7 10.5 -17.5t26.5 -10.5q8 0 16.5 10.5t10.5 19.5q8 27 27.5 33.5t51.5 6.5q121 0 121 -62q0 -26 -16.5 -56t-47 -56.5t-73 -43t-90.5 -16.5z" />
    <glyph glyph-name="dotaccent" unicode="&#x2d9;" horiz-adv-x="314" 
d="M5 612q0 30 10 50t38 29t105 9q58 0 89 -6.5t46.5 -26t15.5 -55.5q0 -46 -30.5 -64.5t-120.5 -18.5q-53 0 -87.5 5.5t-50 24.5t-15.5 53z" />
    <glyph glyph-name="ring" unicode="&#x2da;" horiz-adv-x="343" 
d="M14 568q0 41 19 70.5t55 45.5t82 16q31 0 61 -8t51.5 -24t34 -41.5t12.5 -58.5q0 -24 -8.5 -48.5t-30.5 -45.5t-56 -31t-64 -10t-67 11.5t-63 43.5t-26 80zM124 568q0 -24 13.5 -37t34.5 -13q22 0 35.5 13t13.5 37t-13.5 36t-35.5 12q-21 0 -34.5 -12t-13.5 -36z" />
    <glyph glyph-name="ogonek" unicode="&#x2db;" horiz-adv-x="302" 
d="M144 45l69 1q-9 -16 -15.5 -34.5t-6.5 -29.5q0 -9 9.5 -14.5t25.5 -5.5q13 0 37 8t27 8q15 0 15 -49q0 -56 -9 -75q-7 -14 -50.5 -29t-92.5 -15q-97 0 -139 30.5t-42 87.5q0 43 44.5 70t127.5 47z" />
    <glyph glyph-name="tilde" unicode="&#x2dc;" horiz-adv-x="457" 
d="M155 691q25 0 73 -19.5t72 -19.5q16 0 31 8.5t29.5 27t19.5 18.5q10 0 31.5 -22.5t32.5 -46t11 -38.5q0 -31 -40 -63.5t-97 -32.5q-27 0 -70.5 20.5t-66.5 20.5q-13 0 -27 -7t-31 -22.5t-23 -15.5q-12 0 -31 9.5t-36 26.5q-31 27 -31 64q0 24 27 47.5t62.5 34t63.5 10.5z
" />
    <glyph glyph-name="hungarumlaut" unicode="&#x2dd;" horiz-adv-x="585" 
d="M627 562q-33 -20 -129 -72q-56 -29 -80 -29q-16 0 -38 15t-32.5 34.5t-10.5 34.5q0 7 6.5 17.5t26.5 29.5t21 20q24 24 111 94q40 34 72 34q20 0 47.5 -28.5t41.5 -56t14 -41.5q0 -11 -7 -20t-43 -32zM292 562q-33 -20 -129 -72q-56 -29 -80 -29q-16 0 -38 15t-32.5 34.5
t-10.5 34.5q0 7 6.5 17.5t26.5 29.5t21 20q24 24 111 94q40 34 72 34q20 0 47.5 -28.5t41.5 -56t14 -41.5q0 -11 -7 -20t-43 -32z" />
    <glyph glyph-name="endash" unicode="&#x2013;" horiz-adv-x="570" 
d="M18 378h534q8 0 17 -11.5t14 -37t5 -47.5q0 -30 -10 -65.5t-26 -35.5h-534q-16 0 -25.5 35.5t-9.5 65.5q0 22 5 47.5t13.5 37t16.5 11.5z" />
    <glyph glyph-name="emdash" unicode="&#x2014;" horiz-adv-x="801" 
d="M18 376h765q8 0 17 -11.5t14 -36t5 -46.5q0 -30 -10 -66t-26 -36h-765q-16 0 -26 36t-10 66q0 22 5 46.5t14 36t17 11.5z" />
    <glyph glyph-name="quoteleft" unicode="&#x2018;" horiz-adv-x="314" 
d="M299 417q0 -12 -20.5 -25t-63 -23t-63.5 -10l-19 2q-11 2 -30.5 35.5t-44 87t-25.5 55.5q-18 41 -18 67q0 24 19 41.5t74 35.5q21 6 50.5 11.5t47.5 5.5q56 0 70 -74q6 -33 14.5 -108t8.5 -101z" />
    <glyph glyph-name="quoteright" unicode="&#x2019;" horiz-adv-x="314" 
d="M15 417q0 26 8.5 101t14.5 108q12 74 69 74q19 0 48.5 -5.5t50.5 -11.5q55 -18 74 -35.5t19 -41.5q0 -6 -3.5 -24.5t-15.5 -42.5q-31 -70 -46.5 -101t-29.5 -53t-23 -24l-19 -2q-21 0 -59 9t-63 21.5t-25 27.5z" />
    <glyph glyph-name="quotesinglbase" unicode="&#x201a;" horiz-adv-x="311" 
d="M11 -74q0 26 9 100t15 110q12 73 69 73q34 0 99 -17q37 -11 55.5 -21t28 -24t9.5 -31q0 -26 -19 -67q-1 -2 -2 -4.5t-24 -51.5t-43.5 -84.5t-30.5 -38.5q-11 -4 -24 -4q-31 0 -86.5 19t-55.5 41z" />
    <glyph glyph-name="quotedblleft" unicode="&#x201c;" horiz-adv-x="622" 
d="M607 417q0 -12 -20.5 -25t-63 -23t-63.5 -10l-19 2q-11 2 -30.5 35.5t-44 87t-25.5 55.5q-18 41 -18 67q0 24 19 41.5t74 35.5q21 6 50.5 11.5t47.5 5.5q56 0 70 -74q6 -33 14.5 -108t8.5 -101zM299 417q0 -12 -20.5 -25t-63 -23t-63.5 -10l-19 2q-11 2 -30.5 35.5
t-44 87t-25.5 55.5q-18 41 -18 67q0 24 19 41.5t74 35.5q21 6 50.5 11.5t47.5 5.5q56 0 70 -74q6 -33 14.5 -108t8.5 -101z" />
    <glyph glyph-name="quotedblright" unicode="&#x201d;" horiz-adv-x="612" 
d="M313 417q0 26 8.5 101t14.5 108q12 74 69 74q19 0 48.5 -5.5t50.5 -11.5q55 -18 74 -35.5t19 -41.5q0 -6 -3.5 -24.5t-15.5 -42.5q-31 -70 -46.5 -101t-29.5 -53t-23 -24l-19 -2q-21 0 -59 9t-63 21.5t-25 27.5zM15 417q0 26 8.5 101t14.5 108q12 74 69 74
q19 0 48.5 -5.5t50.5 -11.5q55 -18 74 -35.5t19 -41.5q0 -6 -3.5 -24.5t-15.5 -42.5q-31 -70 -46.5 -101t-29.5 -53t-23 -24l-19 -2q-21 0 -59 9t-63 21.5t-25 27.5z" />
    <glyph glyph-name="quotedblbase" unicode="&#x201e;" horiz-adv-x="640" 
d="M334 -74q0 26 9 100t15 110q12 73 69 73q34 0 99 -17q37 -11 55.5 -21t28 -24t9.5 -31q0 -26 -19 -67q-1 -2 -2 -4.5t-24 -51.5t-43.5 -84.5t-30.5 -38.5q-11 -4 -24 -4q-31 0 -86.5 19t-55.5 41zM21 -74q0 26 9 100t15 110q12 73 69 73q34 0 99 -17q37 -11 55.5 -21
t28 -24t9.5 -31q0 -26 -19 -67q-1 -2 -2 -4.5t-24 -51.5t-43.5 -84.5t-30.5 -38.5q-11 -4 -24 -4q-31 0 -86.5 19t-55.5 41z" />
    <glyph glyph-name="dagger" unicode="&#x2020;" horiz-adv-x="551" 
d="M276 700q56 0 82 -12.5t26 -31.5q0 -17 -17 -128q12 0 64.5 5t72.5 5q37 0 37 -103q0 -18 -5 -45.5t-14 -42.5t-19 -15q-18 0 -70 9.5t-67 10.5l33 -103l-52 -285q-3 -17 -15.5 -26.5t-55.5 -9.5q-35 0 -52 6.5t-21 29.5l-50 285l33 103q-14 -1 -67 -10.5t-70 -9.5
t-28 38.5t-11 64.5q0 50 9.5 76.5t28.5 26.5q21 0 71.5 -5t64.5 -5q-2 17 -9.5 64t-7.5 65t26.5 30.5t82.5 12.5z" />
    <glyph glyph-name="daggerdbl" unicode="&#x2021;" horiz-adv-x="539" 
d="M360 202l33 -77l-51 -164q-5 -16 -17.5 -24.5t-54.5 -8.5q-35 0 -47.5 4.5t-18 14t-7.5 14.5l-50 164l31 77q-12 -1 -64.5 -10.5t-70.5 -9.5q-9 0 -18 12.5t-15 37t-6 41.5q0 84 38 84q21 0 75 -5t68 -5v55q-14 -1 -69.5 -10.5t-72.5 -9.5q-9 0 -18 11.5t-15 34.5t-6 39
q0 91 38 91q21 0 71.5 -5t64.5 -5q-4 27 -10.5 63t-6.5 46q0 18 26.5 30.5t82.5 12.5t82 -12.5t26 -31.5q0 -12 -6.5 -47t-10.5 -61q12 0 64.5 5t72.5 5q37 0 37 -91q0 -16 -5 -39t-14.5 -34.5t-18.5 -11.5q-18 0 -73 9.5t-70 10.5v-55q15 0 69 5t75 5q37 0 37 -83
q0 -18 -5 -42.5t-14.5 -37t-18.5 -12.5q-18 0 -69 9.5t-68 10.5z" />
    <glyph glyph-name="bullet" unicode="&#x2022;" horiz-adv-x="409" 
d="M18 306q0 155 189 155q91 0 137.5 -41t46.5 -114t-46.5 -114t-137.5 -41q-189 0 -189 155z" />
    <glyph glyph-name="ellipsis" unicode="&#x2026;" horiz-adv-x="919" 
d="M13 89q0 61 32 84.5t110 23.5q74 0 107.5 -24.5t33.5 -83.5q0 -53 -28 -78.5t-113 -25.5q-50 0 -79.5 7.5t-46 28.5t-16.5 68zM318 89q0 61 32 84.5t110 23.5q74 0 107.5 -24.5t33.5 -83.5q0 -53 -28 -78.5t-113 -25.5q-50 0 -79.5 7.5t-46 28.5t-16.5 68zM623 89
q0 61 32 84.5t110 23.5q74 0 107.5 -24.5t33.5 -83.5q0 -53 -28 -78.5t-113 -25.5q-50 0 -79.5 7.5t-46 28.5t-16.5 68z" />
    <glyph glyph-name="perthousand" unicode="&#x2030;" horiz-adv-x="1557" 
d="M1283 382q53 0 100.5 -12.5t83.5 -37t56 -61.5t20 -84q0 -35 -13.5 -70.5t-46 -64t-83 -46.5t-117.5 -18q-75 0 -134 24q-60 -24 -136 -24q-52 0 -98.5 13t-82 38t-55.5 63t-20 85t20 84t55.5 61.5t82 37t98.5 12.5q76 0 136 -24q60 24 134 24zM912 661q0 -8 -4 -25.5
t-28 -71.5l-234 -528q-9 -21 -32.5 -31.5t-98.5 -10.5q-65 0 -101.5 11t-36.5 40q0 3 1.5 9t14.5 35l255 576q8 18 31.5 27t100.5 9q44 0 76 -5.5t44 -15t12 -19.5zM274 701q53 0 100.5 -12.5t83.5 -36.5t56 -61t20 -84q0 -35 -13.5 -70.5t-46 -64.5t-83 -47t-117.5 -18
q-52 0 -98.5 13t-82 38.5t-55.5 63.5t-20 85q0 35 13.5 70t45.5 62.5t81.5 44.5t115.5 17zM273 451q16 0 16 59q0 35 -4 44t-12 9t-12.5 -11.5t-4.5 -41.5q0 -29 3 -44t14 -15zM1012 132q16 0 16 59q0 35 -4 44t-12 9t-12.5 -11.5t-4.5 -41.5q0 -29 3 -44t14 -15zM1288 132
q16 0 16 59q0 35 -4 44t-12 9t-12.5 -11.5t-4.5 -41.5q0 -29 3 -44t14 -15z" />
    <glyph glyph-name="guilsinglleft" unicode="&#x2039;" horiz-adv-x="433" 
d="M296 277l2 -2t39.5 -40t69 -78t30.5 -56q0 -18 -38 -32.5t-96 -14.5q-42 0 -74.5 5.5t-53.5 25.5q-41 39 -124 137q-34 38 -34 55q0 7 8 21.5t26 33.5q86 97 124 137q15 16 43 23t85 7q43 0 76 -8t45.5 -19t12.5 -20q0 -16 -27 -50.5t-70 -78.5t-44 -46z" />
    <glyph glyph-name="guilsinglright" unicode="&#x203a;" horiz-adv-x="433" 
d="M141 277q-1 1 -4.5 5t-47 48.5t-66.5 76.5t-23 45q0 9 12.5 20t45.5 19t75 8q43 0 76 -5t52 -25q24 -26 74 -81t50 -56q12 -13 23 -29.5t11 -25.5q0 -7 -8 -21.5t-26 -33.5q-75 -85 -124 -137q-16 -16 -44 -23.5t-84 -7.5q-57 0 -95 14.5t-38 32.5q0 11 12.5 31
t34.5 45.5t39.5 44t35.5 36.5z" />
    <glyph glyph-name="fraction" unicode="&#x2044;" horiz-adv-x="657" 
d="M664 692q0 -19 -21 -49l-465 -662q-8 -12 -22 -16.5t-71 -4.5q-49 0 -71.5 4t-22.5 17q0 17 21 48l460 664q10 15 27 18.5t70 3.5t74 -7t21 -16z" />
    <glyph glyph-name="uni2070" unicode="&#x2070;" horiz-adv-x="445" 
d="M223 335q-94 0 -141 45t-47 131q0 175 188 175q187 0 187 -175q0 -176 -187 -176zM223 458q5 0 9.5 5.5t4.5 49.5q0 31 -2.5 42.5t-11.5 11.5q-7 0 -10.5 -8t-3.5 -46q0 -31 2.5 -43t11.5 -12z" />
    <glyph glyph-name="uni2074" unicode="&#x2074;" horiz-adv-x="433" 
d="M349 406v-45q0 -13 -18.5 -19.5t-65.5 -6.5q-86 0 -86 26v45h-125q-24 0 -32 6.5t-8 29.5q0 6 6.5 21.5t12.5 25.5l93 175q11 21 104 21q119 0 119 -37v-128h39q11 0 17 -21t6 -37q0 -15 -6 -35.5t-17 -20.5h-39zM199 502v41q0 3 -5 4q-4 -1 -5 -4l-15 -41h25z" />
    <glyph glyph-name="uni2075" unicode="&#x2075;" horiz-adv-x="396" 
d="M134 682h206q11 0 16.5 -17t5.5 -32q0 -12 -6 -31t-16 -19h-137l-1 -9q84 0 126 -24.5t42 -82.5q0 -43 -25 -71.5t-71 -44t-111 -15.5q-42 0 -76 12t-47.5 24t-13.5 18t6 26t18.5 37t21.5 21.5t16 4.5q6 0 22 -10.5t31 -15.5t31 -5q27 0 27 17q0 16 -31 16
q-13 0 -27 -2.5t-15 -2.5q-13 0 -50.5 26.5t-37.5 35.5l25 110q3 17 16 25.5t55 8.5z" />
    <glyph glyph-name="uni2076" unicode="&#x2076;" horiz-adv-x="427" 
d="M332 607q-5 -2 -27.5 -7.5t-34 -10t-16.5 -8.5q31 0 64.5 -10.5t57 -37.5t23.5 -67q0 -22 -9.5 -44.5t-32.5 -41.5t-60 -31.5t-85 -12.5q-34 0 -68.5 9t-61 27t-41.5 44.5t-15 59.5q0 25 12 55.5t40.5 61.5t74 58t105.5 39l49 6q8 0 17.5 -8t16.5 -25t7 -29
q0 -11 -3 -17.5t-13 -9.5zM243 469q0 10 -8 15t-18 5q-30 0 -30 -21q0 -20 27 -20q12 0 20.5 5.5t8.5 15.5z" />
    <glyph glyph-name="uni2077" unicode="&#x2077;" horiz-adv-x="358" 
d="M346 647q0 -19 -6 -35t-9 -22l-139 -228q-5 -8 -15.5 -15t-68.5 -7q-45 0 -66.5 6.5t-21.5 24.5q0 10 14 29l123 161h-115q-10 0 -16 25t-6 42q0 16 5.5 35t16.5 19h244q30 0 45 -7.5t15 -27.5z" />
    <glyph glyph-name="uni2078" unicode="&#x2078;" horiz-adv-x="425" 
d="M214 336q-35 0 -78.5 10t-74 39t-30.5 68q0 26 18 49.5t51 34.5q-13 4 -25.5 13.5t-18.5 22t-6 21.5q0 32 20.5 52t58 30.5t87.5 10.5q80 0 120 -24t40 -69q0 -14 -11.5 -30t-37.5 -27q33 -8 50 -32.5t17 -51.5q0 -26 -16.5 -53t-60.5 -45.5t-103 -18.5zM211 471
q-22 0 -22 -18q0 -19 23 -19t23 19q0 18 -24 18zM199 598q0 -9 14 -9q13 0 13 9q0 10 -13 10q-14 0 -14 -10z" />
    <glyph glyph-name="uni2079" unicode="&#x2079;" horiz-adv-x="413" 
d="M87 416q68 17 78 26q-65 0 -105 31.5t-40 82.5q0 22 9.5 45t32.5 42t60 31.5t85 12.5q34 0 68.5 -9t61 -27t41.5 -44.5t15 -59.5q0 -25 -12 -55.5t-44 -65.5t-80.5 -59.5t-95.5 -33.5l-49 -6q-8 0 -17.5 8t-16.5 25t-7 29q0 11 3 17.5t13 9.5zM176 554q0 -10 8 -15t18 -5
q30 0 30 21q0 9 -5.5 14t-21.5 5q-12 0 -20.5 -5t-8.5 -15z" />
    <glyph glyph-name="uni2080" unicode="&#x2080;" horiz-adv-x="530" 
d="M266 -8q-114 0 -168.5 59t-54.5 176q0 234 223 234q221 0 221 -234q0 -117 -54.5 -176t-166.5 -59zM266 126q13 0 23 9t13 30.5t3 61.5q0 54 -7.5 78.5t-31.5 24.5q-19 0 -30 -18.5t-11 -84.5q0 -41 2.5 -60t11.5 -30t27 -11z" />
    <glyph glyph-name="uni2081" unicode="&#x2081;" horiz-adv-x="436" 
d="M61 124l70 1v173q-15 -5 -41.5 -11.5t-30.5 -6.5q-8 0 -13.5 16.5t-5.5 41.5q0 19 8 36.5t22 26.5q14 10 46 23.5t59 20.5q61 16 81 16q25 0 39.5 -9t14.5 -37v-291h82q5 0 10.5 -9t8.5 -27.5t3 -26.5t-3 -25.5t-8.5 -26.5t-10.5 -9h-331q-10 0 -16 22t-6 39q0 28 7 45.5
t15 17.5z" />
    <glyph glyph-name="uni2082" unicode="&#x2082;" horiz-adv-x="455" 
d="M217 460q98 0 150.5 -39t52.5 -103q0 -89 -157 -188h144q10 0 17.5 -22t7.5 -47q0 -22 -7.5 -41.5t-17.5 -19.5h-313q-28 0 -45.5 8t-17.5 41v26q0 25 34 49q74 46 125 101.5t51 90.5q0 9 -9.5 14.5t-20.5 5.5t-26 -5.5t-38.5 -18.5t-27.5 -13q-15 0 -31.5 15t-30.5 42
t-14 37q0 13 22 29q23 16 64 27t88 11z" />
    <glyph glyph-name="uni2083" unicode="&#x2083;" horiz-adv-x="442" 
d="M189 125q16 0 28 8.5t12 24.5t-19.5 24t-83.5 8q-16 0 -16 56q0 53 17 53q14 0 36.5 3.5t34.5 10t12 13.5q0 18 -26 18q-13 0 -27 -4.5t-29 -15t-20 -10.5q-13 0 -30 12t-31.5 35t-14.5 33q0 14 28 32t67 27t79 9q44 0 86.5 -15t68 -43.5t25.5 -68.5q0 -28 -12.5 -48
t-34.5 -28v-6q19 -7 36 -23t26 -38.5t9 -40.5q0 -29 -11.5 -57.5t-39.5 -51t-70.5 -36t-98.5 -13.5q-38 0 -75.5 9t-62.5 26.5t-25 31.5q0 11 10.5 41.5t25 47.5t28.5 17q8 0 28 -14t36.5 -20.5t33.5 -6.5z" />
    <glyph glyph-name="uni2084" unicode="&#x2084;" horiz-adv-x="515" 
d="M237 218v74q0 4 -5 4q-6 -1 -7 -5l-28 -73h40zM412 98v-75q0 -14 -19.5 -21t-68.5 -7q-91 0 -91 28v75h-171q-19 0 -30.5 5t-11.5 34q0 14 23 56l131 239q15 25 113 25q125 0 125 -40v-196h55q11 0 17.5 -22.5t6.5 -40.5q0 -15 -6.5 -37.5t-17.5 -22.5h-55z" />
    <glyph glyph-name="uni2085" unicode="&#x2085;" horiz-adv-x="474" 
d="M155 452h252q10 0 16.5 -20.5t6.5 -36.5q0 -7 -3 -26.5t-9 -29.5t-11 -10h-179l-1 -9q213 0 213 -158q0 -54 -29.5 -91.5t-83.5 -58t-129 -20.5q-33 0 -70.5 8.5t-65.5 26.5t-28 32t10 43.5t24.5 46t28.5 16.5q7 0 28 -14.5t41 -21t41 -6.5q54 0 54 33q0 22 -13 30.5
t-43 8.5q-9 0 -44 -5q-13 -4 -17 -4q-7 0 -26.5 9.5t-43.5 27.5t-24 25l30 167q3 18 17.5 27.5t57.5 9.5z" />
    <glyph glyph-name="uni2086" unicode="&#x2086;" horiz-adv-x="509" 
d="M396 358q-67 -15 -122 -54q92 0 146.5 -36.5t54.5 -105.5q0 -37 -17 -69t-47 -54.5t-70.5 -34.5t-86.5 -12q-69 0 -118.5 24.5t-75.5 64t-26 93.5q0 45 20.5 91t58 85t89 67.5t109.5 41.5q48 9 59 9q9 0 18.5 -10.5t16.5 -32t7 -35.5q0 -13 -3 -21t-13 -11zM297 158
q0 35 -40 35q-46 0 -46 -37q0 -17 9 -26t33 -9q44 0 44 37z" />
    <glyph glyph-name="uni2087" unicode="&#x2087;" horiz-adv-x="432" 
d="M414 416q0 -12 -4 -31.5t-12 -33.5q-39 -73 -95.5 -173.5t-85.5 -154.5q-7 -13 -21.5 -19.5t-67.5 -6.5q-46 0 -69 8t-23 27q0 10 16 35l164 256h-166q-5 0 -10.5 10.5t-9 30.5t-3.5 31q0 9 3 26t9 25t11 8h302q31 0 46.5 -8.5t15.5 -29.5z" />
    <glyph glyph-name="uni2088" unicode="&#x2088;" horiz-adv-x="508" 
d="M255 -7q-47 0 -87 11t-69 32t-45 49.5t-16 61.5q0 34 21 63t62 51q-24 12 -40.5 33t-16.5 47q0 39 23 65t66 40t103 14q35 0 79.5 -8t76.5 -36t32 -75q0 -17 -12.5 -41t-44.5 -39q38 -17 60.5 -48.5t22.5 -65.5q0 -68 -59.5 -111t-155.5 -43zM253 191q-37 0 -37 -38
q0 -36 39 -36q16 0 27 9.5t11 26.5t-8 27.5t-32 10.5zM234 342q0 -12 22 -12q20 0 20 12q0 14 -20 14q-8 0 -15 -3.5t-7 -10.5z" />
    <glyph glyph-name="uni2089" unicode="&#x2089;" horiz-adv-x="509" 
d="M113 94q67 15 122 54q-38 0 -75.5 7.5t-65.5 24.5t-44 45t-16 65t17 69t47 54.5t70.5 34.5t86.5 12q69 0 118.5 -24.5t75.5 -64t26 -93.5q0 -45 -20.5 -91t-58 -85t-89 -67.5t-109.5 -41.5q-48 -9 -59 -9q-9 0 -18.5 10.5t-16.5 32t-7 35.5q0 13 3 21t13 11zM212 294
q0 -35 40 -35q46 0 46 37q0 17 -9 26t-33 9q-44 0 -44 -37z" />
    <glyph glyph-name="Euro" unicode="&#x20ac;" 
d="M59 321h36v14v24h-36q-13 0 -20 6.5t-7 33.5q0 21 5 29t22 8h44q22 128 103.5 195t208.5 67q30 0 71 -4.5t82.5 -21t64.5 -40t23 -41.5q0 -12 -20.5 -51.5t-48.5 -69.5t-49 -30q-1 0 -3.5 0.5t-18.5 10.5t-31.5 15t-30 6.5t-26.5 1.5q-39 0 -57 -38h89q13 0 20 -5t7 -32
q0 -22 -5 -31t-22 -9h-104v-17v-21h104q13 0 20 -5t7 -32q0 -22 -5 -31t-22 -9h-86q21 -38 62 -38q22 0 48.5 8t60.5 25.5t41 17.5q24 0 45 -46t36 -118q0 -24 -46.5 -52t-104.5 -41t-101 -13q-64 0 -117.5 15.5t-93.5 47t-66.5 80.5t-36.5 114h-42q-13 0 -20 6.5t-7 33.5
q0 21 5 29t22 8z" />
    <glyph glyph-name="trademark" unicode="&#x2122;" horiz-adv-x="912" 
d="M21 689h335q9 0 14.5 -20t5.5 -35q0 -13 -4.5 -32t-9 -23t-6.5 -4h-88l-5 -2v-253q0 -8 -11.5 -16.5t-62.5 -8.5q-77 0 -77 25v250l-2 5h-89q-7 0 -13 17.5t-6 41.5q0 25 6 40t13 15zM563 466v-146q0 -8 -11 -16.5t-61 -8.5q-74 0 -74 25v332q0 25 12.5 31t47.5 6h43
q27 0 41.5 -2.5t26.5 -21.5l51 -83q2 -4 8 -4l6 3l58 86q6 11 18 16.5t47 5.5h40q35 0 47.5 -6t12.5 -31v-332q0 -8 -11 -16.5t-60 -8.5q-40 0 -57 6.5t-17 18.5v145q0 3 -6 3q-4 0 -5 -3l-13 -30q-4 -18 -59 -18q-60 0 -62 18l-12 32l-5 2z" />
    <glyph glyph-name="glyph9" horiz-adv-x="922" 
 />
    <glyph glyph-name="glyph100" horiz-adv-x="0" 
 />
    <glyph glyph-name="zero.oldstyle" horiz-adv-x="700" 
d="M351 -10q-71 0 -134 18.5t-110 54t-73.5 88.5t-26.5 117t26.5 118t73.5 92t110.5 58t133.5 20t132.5 -20t109.5 -58t73.5 -92t26.5 -118t-26.5 -117t-73.5 -88.5t-109.5 -54t-132.5 -18.5zM351 182q30 0 45.5 23t15.5 65q0 24 -7 47.5t-21.5 35t-32.5 11.5
q-15 0 -30.5 -9t-24 -32t-8.5 -53q0 -24 7.5 -46t23 -32t32.5 -10z" />
    <glyph glyph-name="one.oldstyle" horiz-adv-x="559" 
d="M44 202h102v88q-21 -6 -58 -12.5t-46 -6.5q-11 0 -19 26.5t-8 66.5q0 35 12.5 61.5t34.5 41.5q43 28 134.5 57.5t142.5 29.5q40 0 61 -14.5t21 -56.5v-281h96q16 0 26 -36.5t10 -68.5q0 -19 -5.5 -45.5t-14 -39t-16.5 -12.5h-473q-12 0 -20.5 21t-11.5 43t-3 33
q0 22 5 49.5t13 41.5t17 14z" />
    <glyph glyph-name="two.oldstyle" horiz-adv-x="639" 
d="M323 336q0 9 -15 9q-25 0 -56.5 -6.5t-65.5 -20t-36 -13.5q-12 0 -29.5 8.5t-36.5 37t-30.5 63t-11.5 48.5q0 17 12 28q15 18 53 32.5t92 23.5t103 9q66 0 121 -12.5t95 -37.5t62 -63t22 -86q0 -66 -38 -104t-96 -47l-2 -4h127q9 0 17 -13.5t13 -41t5 -48.5q0 -18 -5 -44
t-13 -40t-17 -14h-484q-57 0 -77.5 19t-20.5 61v74q0 40 23 58.5t58 27.5q112 28 171.5 55.5t59.5 40.5z" />
    <glyph glyph-name="three.oldstyle" horiz-adv-x="584" 
d="M246 41q51 0 51 47q0 23 -43.5 35t-102.5 12q-11 0 -18.5 24t-7.5 66q0 86 26 86q41 0 68.5 4.5t38 15t10.5 21.5q0 18 -29 18q-20 0 -39.5 -5.5t-40.5 -18t-27 -12.5q-27 0 -49.5 21.5t-38.5 53.5t-16 50q0 13 15.5 30.5t46 33.5t78 26.5t105.5 10.5q41 0 88 -7.5
t87 -27.5t64.5 -55t24.5 -84q0 -46 -16.5 -83.5t-45.5 -57.5v-7q34 -15 55.5 -43t32 -62t10.5 -64q0 -48 -17.5 -93.5t-58 -78t-102 -50.5t-146.5 -18q-43 0 -80.5 6t-74.5 19.5t-62 36t-25 39.5q0 19 22 67.5t46 72.5t46 24q7 0 31.5 -18t47.5 -26.5t46 -8.5z" />
    <glyph glyph-name="four.oldstyle" horiz-adv-x="700" 
d="M315 195v89q0 7 -8 7t-9 -7l-26 -89h43zM583 0v-149q0 -19 -25 -32t-110 -13q-72 0 -106 11t-34 34v149h-243q-41 0 -53 17t-12 46q0 8 8.5 32t25.5 57l184 359q22 41 175 41q190 0 190 -66v-289h80q8 0 16.5 -12.5t13.5 -39.5t5 -49q0 -19 -5 -45t-13.5 -38.5
t-16.5 -12.5h-80z" />
    <glyph glyph-name="five.oldstyle" horiz-adv-x="618" 
d="M190 543h370q8 0 16.5 -11.5t14 -36.5t5.5 -46q0 -18 -5.5 -46.5t-13.5 -43.5t-17 -15h-258l-2 -22q113 0 182 -28t99 -77t30 -114q0 -67 -29 -119.5t-79.5 -86.5t-116 -50.5t-136.5 -16.5q-50 0 -105.5 13.5t-96.5 41.5t-41 48q0 24 17 73.5t38.5 74t43.5 24.5
q10 0 40 -21t58 -31.5t60 -10.5q14 0 32.5 5.5t28 16.5t9.5 24q0 55 -73 55q-44 0 -62 -6q-4 -1 -12.5 -3.5t-12.5 -2.5q-16 0 -54 24t-63.5 46t-25.5 32l44 250q5 29 26.5 44.5t88.5 15.5z" />
    <glyph glyph-name="six.oldstyle" 
d="M549 518q-10 -3 -43 -12t-56.5 -17t-43.5 -18q57 0 105.5 -16t83 -45.5t53 -71t18.5 -90.5q0 -58 -25 -108.5t-69.5 -87.5t-105 -57.5t-127.5 -20.5q-31 0 -71.5 6.5t-83 25t-82 52t-65.5 88.5t-26 120q0 69 30.5 137.5t85.5 127t131.5 102t163.5 64.5q18 4 46.5 9.5
t39.5 5.5q14 0 29 -19.5t26.5 -59.5t11.5 -63q0 -27 -6.5 -37.5t-19.5 -14.5zM395 237q0 24 -16 36t-38 12q-10 0 -25.5 -5.5t-24 -18.5t-8.5 -29q0 -14 6.5 -27t21 -20t27.5 -7q22 0 39.5 15t17.5 44z" />
    <glyph glyph-name="seven.oldstyle" horiz-adv-x="553" 
d="M571 482q0 -20 -6.5 -50t-18.5 -52l-261 -487q-12 -22 -34 -32.5t-103 -10.5q-73 0 -112 13t-39 43q0 8 6 23.5t16 31.5l236 362h-224q-8 0 -16 17t-13.5 49.5t-5.5 50.5q0 31 10 67t25 36h445q48 0 71.5 -13t23.5 -48z" />
    <glyph glyph-name="eight.oldstyle" horiz-adv-x="659" 
d="M331 -26q-78 0 -139 19t-101.5 53t-60.5 79.5t-20 97.5q0 103 117 173q-35 19 -58 49t-23 72q0 60 35 101t99 64t153 23q56 0 106.5 -10.5t89.5 -33t61.5 -59t22.5 -85.5q0 -37 -22 -70t-58 -50q26 -13 53.5 -37.5t45 -62t17.5 -74.5q0 -52 -18.5 -97.5t-57 -79.5
t-100 -53t-142.5 -19zM329 270q-28 0 -37 -12t-9 -34q0 -20 10 -32.5t38 -12.5q22 0 34 9.5t12 35.5q0 21 -9.5 33.5t-38.5 12.5zM303 525q0 -10 8 -16t21 -6t21 6t8 16q0 24 -27 24q-31 0 -31 -24z" />
    <glyph glyph-name="nine.oldstyle" horiz-adv-x="677" 
d="M127 17q10 3 43 12t56.5 17t43.5 18q-57 0 -105.5 16t-83 45.5t-53 71t-18.5 90.5q0 58 25 108.5t69.5 87.5t105 57.5t127.5 20.5q31 0 71.5 -6.5t83 -25t82 -52t65.5 -88.5t26 -120q0 -69 -30.5 -137.5t-85.5 -127t-131.5 -102t-163.5 -64.5q-18 -4 -46.5 -9.5
t-39.5 -5.5q-14 0 -29 19.5t-26.5 59.5t-11.5 63q0 27 6.5 37.5t19.5 14.5zM281 298q0 -24 16 -36t38 -12q10 0 25.5 5.5t24 18.5t8.5 29q0 14 -6.5 27t-21 20t-27.5 7q-22 0 -39.5 -15t-17.5 -44z" />
    <glyph glyph-name="i.ss01" horiz-adv-x="390" 
d="M71 654q0 30 10 50t38 29t105 9q58 0 89 -6.5t46.5 -26t15.5 -55.5q0 -46 -30.5 -64.5t-120.5 -18.5q-53 0 -87.5 5.5t-50 24.5t-15.5 53zM84 318h-51q-13 0 -21 28t-8 80q0 48 8.5 74t21.5 26h292q22 0 36 -10.5t14 -30.5v-446q0 -23 -33.5 -34t-110.5 -11
q-75 0 -111.5 11t-36.5 34v279z" />
    <glyph glyph-name="j.ss01" horiz-adv-x="389" 
d="M374 485v-398q0 -52 -18 -100.5t-59.5 -87.5t-111.5 -62.5t-166 -23.5q-10 0 -20.5 12.5t-16.5 39.5t-6 51q0 31 6.5 41.5t26.5 18.5q48 19 66 44t18 72v226h-49q-9 0 -16 15t-10.5 43t-3.5 50t3.5 47.5t10.5 39t16 13.5h279q22 0 36.5 -10.5t14.5 -30.5zM71 654
q0 30 10 50t38 29t105 9q58 0 89 -6.5t46.5 -26t15.5 -55.5q0 -46 -30.5 -64.5t-120.5 -18.5q-53 0 -87.5 5.5t-50 24.5t-15.5 53z" />
    <glyph glyph-name="l.ss01" horiz-adv-x="436" 
d="M15 186v468q0 18 29 30t118 12q71 0 102 -10t31 -32v-381q0 -26 13.5 -38.5t32.5 -12.5l57 3q14 0 23.5 -44.5t9.5 -93.5q0 -28 -3 -46q-2 -15 -23.5 -27.5t-68.5 -19.5t-94 -7q-114 0 -170.5 48t-56.5 151z" />
    <glyph glyph-name="glyph294" horiz-adv-x="390" 
d="M84 318h-51q-13 0 -21 28t-8 80q0 48 8.5 74t21.5 26h292q22 0 36 -10.5t14 -30.5v-446q0 -23 -33.5 -34t-110.5 -11q-75 0 -111.5 11t-36.5 34v279z" />
    <glyph glyph-name="iacute.ss01" horiz-adv-x="390" 
d="M354 647q-33 -20 -129 -72q-56 -29 -80 -29q-16 0 -38 15t-32.5 34.5t-10.5 34.5q0 7 6.5 17.5t26.5 29.5t21 20q24 24 111 94q40 34 72 34q20 0 47.5 -28.5t41.5 -56t14 -41.5q0 -11 -7 -20t-43 -32zM84 318h-51q-13 0 -21 28t-8 80q0 48 8.5 74t21.5 26h292
q22 0 36 -10.5t14 -30.5v-446q0 -23 -33.5 -34t-110.5 -11q-75 0 -111.5 11t-36.5 34v279z" />
    <glyph glyph-name="igrave.ss01" horiz-adv-x="390" 
d="M51 648q-30 19 -40 28.5t-10 23.5q0 29 38 77.5t64 48.5q34 0 72 -34q83 -65 112 -94q1 -1 17.5 -16.5t26.5 -27.5t10 -23q0 -15 -10.5 -34.5t-32.5 -34.5t-38 -15q-10 0 -32 7.5t-48 21.5q-96 52 -129 72zM84 318h-51q-13 0 -21 28t-8 80q0 48 8.5 74t21.5 26h292
q22 0 36 -10.5t14 -30.5v-446q0 -23 -33.5 -34t-110.5 -11q-75 0 -111.5 11t-36.5 34v279z" />
    <glyph glyph-name="icircumflex.ss01" horiz-adv-x="390" 
d="M196 780q26 0 59 -6t62 -33q93 -90 93 -108q0 -16 -17.5 -34t-51 -33t-53.5 -15q-50 0 -71 44l-21 41l-23 -41q-10 -18 -24.5 -31t-42.5 -13q-13 0 -41 9t-56 30t-28 43q0 18 93 108q23 22 52.5 30.5t69.5 8.5zM84 318h-51q-13 0 -21 28t-8 80q0 48 8.5 74t21.5 26h292
q22 0 36 -10.5t14 -30.5v-446q0 -23 -33.5 -34t-110.5 -11q-75 0 -111.5 11t-36.5 34v279z" />
    <glyph glyph-name="idieresis.ss01" horiz-adv-x="390" 
d="M-18 638q0 35 10 49.5t31.5 17.5t55.5 3q45 0 65 -6.5t25.5 -23.5t5.5 -40q0 -26 -6 -43t-25.5 -23t-64.5 -6q-47 0 -66.5 6t-25 22.5t-5.5 43.5zM215 638q0 35 10 49.5t31.5 17.5t54.5 3q71 0 84 -17.5t13 -52.5q0 -26 -6 -43t-25.5 -23t-65.5 -6q-47 0 -66 6
t-24.5 22.5t-5.5 43.5zM84 318h-51q-13 0 -21 28t-8 80q0 48 8.5 74t21.5 26h292q22 0 36 -10.5t14 -30.5v-446q0 -23 -33.5 -34t-110.5 -11q-75 0 -111.5 11t-36.5 34v279z" />
    <glyph glyph-name="iogonek.ss01" horiz-adv-x="367" 
d="M61 318h-51q-13 0 -21 28t-8 80q0 48 8.5 74t21.5 26h292q22 0 36 -10.5t14 -30.5v-446q0 -23 -33.5 -34t-110.5 -11h-18l-1 -12q0 -9 9.5 -14.5t25.5 -5.5q13 0 37 8t27 8q15 0 15 -49q0 -56 -9 -75q-7 -14 -50.5 -29t-92.5 -15q-97 0 -139 30.5t-42 87.5q0 60 95 94
q-5 8 -5 17v279zM32 654q0 22 7.5 43t35 33t115.5 12q59 0 91 -6.5t48.5 -26t16.5 -55.5q0 -27 -12 -45.5t-42.5 -28t-101.5 -9.5q-54 0 -89.5 5.5t-52 25t-16.5 52.5z" />
    <glyph glyph-name="imacron.ss01" horiz-adv-x="390" 
d="M84 318h-51q-13 0 -21 28t-8 80q0 48 8.5 74t21.5 26h292q22 0 36 -10.5t14 -30.5v-446q0 -23 -33.5 -34t-110.5 -11q-75 0 -111.5 11t-36.5 34v279zM-8 723h406q17 0 26 -22.5t9 -51.5q0 -19 -5 -39t-13.5 -29.5t-16.5 -9.5h-406q-8 0 -16.5 9.5t-14 30t-5.5 38.5
q0 20 5.5 39t14 27t16.5 8z" />
    <glyph glyph-name="lcommaaccent.ss01" horiz-adv-x="432" 
d="M15 186v468q0 18 29 30t118 12q71 0 102 -10t31 -32v-381q0 -26 13.5 -38.5t32.5 -12.5l57 3q14 0 23.5 -44.5t9.5 -93.5q0 -28 -3 -46q-2 -15 -23.5 -27.5t-68.5 -19.5t-94 -7q-114 0 -170.5 48t-56.5 151zM69 -313q0 29 9 103t15 107q12 73 69 73q20 0 51.5 -5.5
t47.5 -11.5q3 -1 22 -7.5t35.5 -15.5t26 -22.5t9.5 -30.5q0 -26 -19 -67q-1 -2 -17 -35.5t-31.5 -64t-29.5 -53t-22 -26.5q-9 -5 -19 -5q-32 0 -89.5 19.5t-57.5 41.5z" />
    <glyph glyph-name="lcaron.ss01" horiz-adv-x="593" 
d="M15 186v468q0 18 29 30t118 12q71 0 102 -10t31 -32v-381q0 -26 13.5 -38.5t32.5 -12.5l57 3q14 0 23.5 -44.5t9.5 -93.5q0 -28 -3 -46q-2 -15 -23.5 -27.5t-68.5 -19.5t-94 -7q-114 0 -170.5 48t-56.5 151zM317 417q0 26 8.5 101t14.5 108q12 74 69 74q19 0 48.5 -5.5
t50.5 -11.5q55 -18 74 -35.5t19 -41.5q0 -6 -3.5 -24.5t-15.5 -42.5q-31 -70 -46.5 -101t-29.5 -53t-23 -24l-19 -2q-21 0 -59 9t-63 21.5t-25 27.5z" />
    <glyph glyph-name="lacute.ss01" horiz-adv-x="432" 
d="M15 186v468q0 18 29 30t118 12q71 0 102 -10t31 -32v-381q0 -26 13.5 -38.5t32.5 -12.5l57 3q14 0 23.5 -44.5t9.5 -93.5q0 -28 -3 -46q-2 -15 -23.5 -27.5t-68.5 -19.5t-94 -7q-114 0 -170.5 48t-56.5 151zM344 814q-33 -20 -129 -72q-56 -29 -80 -29q-16 0 -38 15
t-32.5 34.5t-10.5 34.5q0 7 6.5 17.5t26.5 29.5t21 20q24 24 111 94q40 34 72 34q20 0 47.5 -28.5t41.5 -56t14 -41.5q0 -11 -7 -20t-43 -32z" />
    <glyph glyph-name="f_l.ss01.ss01" horiz-adv-x="852" 
d="M723 652l-1 -379q0 -29 9.5 -40t28.5 -11l57 3q14 0 23.5 -44.5t9.5 -93.5q0 -28 -3 -46q-2 -15 -23.5 -27.5t-68.5 -19.5t-94 -7q-113 0 -165.5 47.5t-52.5 151.5v308q-33 7 -47 7q-13 0 -23.5 -4.5t-10.5 -15.5l31 -12q15 -6 22.5 -17.5t7.5 -49.5q0 -32 -4.5 -46
t-20.5 -23l-44 -23v-274q0 -18 -26 -30t-112 -12q-73 0 -107.5 10t-34.5 32v275l-44 22q-9 5 -17 15t-8 56q0 39 7.5 50.5t23.5 16.5l39 12v27q0 59 38 100t111 64.5t182 23.5q179 0 248 -10.5t69 -35.5z" />
    <glyph glyph-name="perthousand.pnum" 
d="M543 163q47 0 78 -22.5t31 -63.5q0 -42 -31 -65t-78 -23q-36 0 -66 20q-33 -20 -64 -20q-47 0 -78 23t-31 65q0 41 31 63.5t78 22.5q35 0 64 -21q13 9 31 15t35 6zM131 700q34 0 61 -12.5t38 -33.5t11 -41t-11 -40.5t-38 -33.5t-61 -13q-33 0 -60 13t-37.5 33.5
t-10.5 40.5q0 42 31 64.5t77 22.5zM131 590q6 0 10.5 8t4.5 17t-4 15.5t-11 6.5q-6 0 -10 -6.5t-4 -15.5t4 -17t10 -8zM407 54q6 0 11 8t5 17t-4.5 16t-11.5 7q-6 0 -9.5 -6.5t-3.5 -16.5q0 -9 3.5 -17t9.5 -8zM546 54q6 0 10.5 8t4.5 17t-4 16t-11 7q-6 0 -10 -6.5
t-4 -16.5q0 -9 4 -17t10 -8zM507 673q0 -7 -3 -21.5t-33 -83.5l-229 -532q-6 -14 -17.5 -25t-29.5 -14t-50 -3q-59 0 -80.5 10t-21.5 40q0 7 4 21l261 600q6 12 15.5 21.5t29.5 12t65 2.5q41 0 65 -7.5t24 -20.5z" />
    <glyph glyph-name="percent.pnum" 
d="M574 673q0 -13 -4 -26t-32 -79l-230 -532q-6 -14 -17.5 -25t-29 -14t-49.5 -3q-59 0 -81 10t-22 40q0 9 5 21l261 600q8 19 24 27.5t86 8.5q41 0 65 -7.5t24 -20.5zM517 199q57 0 95.5 -27.5t38.5 -77.5q0 -49 -38.5 -77.5t-95.5 -28.5q-55 0 -93 28.5t-38 77.5
q0 50 38 77.5t93 27.5zM517 65q8 0 13.5 10t5.5 22q0 10 -5 18.5t-14 8.5q-7 0 -11.5 -8t-4.5 -19q0 -12 4.5 -22t11.5 -10zM156 700q57 0 95.5 -28t38.5 -78q0 -49 -38.5 -77.5t-95.5 -28.5q-55 0 -93 28.5t-38 77.5q0 50 38 78t93 28zM156 565q8 0 13.5 10t5.5 22
q0 10 -5 18.5t-14 8.5q-7 0 -11.5 -8t-4.5 -19t4.5 -21.5t11.5 -10.5z" />
    <glyph glyph-name="zero.pnum" 
d="M339 -25q-83 0 -146 25t-104 72t-61 116t-20 156q0 176 82 269t249 93q166 0 247.5 -93t81.5 -269q0 -87 -20 -156t-60.5 -116t-103 -72t-145.5 -25zM339 191q25 0 36.5 27.5t11.5 126.5q0 97 -11.5 124t-36.5 27t-37.5 -28.5t-12.5 -122.5q0 -58 3.5 -88.5t14 -48
t32.5 -17.5z" />
    <glyph glyph-name="one.pnum" 
d="M97 212l114 1v221q-27 -7 -66 -16t-50 -9q-8 0 -15 15.5t-10.5 43t-3.5 44.5q0 34 12.5 62t34.5 42q35 22 164 59q27 8 67.5 17t59.5 9q41 0 62 -14.5t21 -59.5v-415h119q9 0 17 -13.5t13 -41t5 -49.5q0 -30 -7.5 -60t-14.5 -39t-13 -9h-509q-12 0 -20.5 24t-11.5 48
t-3 36q0 22 5 49.5t13 41t17 13.5z" />
    <glyph glyph-name="two.pnum" 
d="M327 706q73 0 131 -16.5t96 -46.5t57 -71t19 -88q0 -77 -51.5 -146t-154.5 -127h186q9 0 17 -15t13.5 -45t5.5 -53q0 -19 -5.5 -45.5t-14 -39.5t-16.5 -13h-459q-30 0 -53.5 6t-33.5 24t-10 50v41q0 45 53 80q65 40 124.5 95t91 105t31.5 79q0 13 -12 19.5t-22 6.5
q-15 0 -37.5 -8.5t-56 -28t-40.5 -19.5q-22 0 -47.5 22t-48.5 67t-23 63q0 17 37 45q33 25 93 42t130 17z" />
    <glyph glyph-name="three.pnum" 
d="M296 187q51 0 51 47q0 23 -43.5 35t-102.5 12q-11 0 -18.5 24t-7.5 66q0 86 26 86q41 0 68.5 4.5t38 15t10.5 21.5q0 18 -29 18q-20 0 -39.5 -5.5t-40.5 -18t-27 -12.5q-27 0 -49.5 21.5t-38.5 53.5t-16 50q0 13 15.5 30.5t46 33.5t78 26.5t105.5 10.5q41 0 88 -7.5
t87 -27.5t64.5 -55t24.5 -84q0 -46 -16.5 -83.5t-45.5 -57.5v-7q34 -15 55.5 -43t32 -62t10.5 -64q0 -48 -17.5 -93.5t-58 -78t-102 -50.5t-146.5 -18q-43 0 -80.5 6t-74.5 19.5t-62 36t-25 39.5q0 19 22 67.5t46 72.5t46 24q7 0 31.5 -18t47.5 -26.5t46 -8.5z" />
    <glyph glyph-name="four.pnum" 
d="M310 339v90q0 6 -8 6t-9 -6l-26 -90h43zM578 144v-108q0 -19 -25 -32t-110 -13q-72 0 -106 11t-34 34v108h-243q-41 0 -53 17t-12 46q0 11 11.5 39.5t22.5 49.5l184 359q10 19 49.5 30t125.5 11q190 0 190 -66v-289h80q8 0 16.5 -12.5t13.5 -39.5t5 -49q0 -28 -8 -56
t-15.5 -34t-11.5 -6h-80z" />
    <glyph glyph-name="five.pnum" 
d="M221 688h370q8 0 16.5 -11.5t14 -36.5t5.5 -46q0 -18 -5.5 -46.5t-13.5 -43.5t-17 -15h-258l-2 -22q113 0 182 -28t99 -77t30 -114q0 -67 -29 -119.5t-79.5 -86.5t-116 -50.5t-136.5 -16.5q-50 0 -105.5 13.5t-96.5 41.5t-41 48q0 24 17 73.5t38.5 74t43.5 24.5
q10 0 40 -21t58 -31.5t60 -10.5q14 0 32.5 5.5t28 16.5t9.5 24q0 55 -73 55q-44 0 -62 -6q-4 -1 -12.5 -3.5t-12.5 -2.5q-16 0 -54 24t-63.5 46t-25.5 32l44 250q5 29 26.5 44.5t88.5 15.5z" />
    <glyph glyph-name="six.pnum" 
d="M548 518q-10 -3 -43 -12t-56.5 -17t-43.5 -18q57 0 105.5 -16t83 -45.5t53 -71t18.5 -90.5q0 -58 -25 -108.5t-69.5 -87.5t-105 -57.5t-127.5 -20.5q-31 0 -71.5 6.5t-83 25t-82 52t-65.5 88.5t-26 120q0 69 30.5 137.5t85.5 127t131.5 102t163.5 64.5q18 4 46.5 9.5
t39.5 5.5q14 0 29 -19.5t26.5 -59.5t11.5 -63q0 -27 -6.5 -37.5t-19.5 -14.5zM394 237q0 24 -16 36t-38 12q-10 0 -25.5 -5.5t-24 -18.5t-8.5 -29q0 -14 6.5 -27t21 -20t27.5 -7q22 0 39.5 15t17.5 44z" />
    <glyph glyph-name="nine.pnum" 
d="M128 162q10 3 43 12t56.5 17t43.5 18q-57 0 -105.5 16t-83 45.5t-53 71t-18.5 90.5q0 58 25 108.5t69.5 87.5t105 57.5t127.5 20.5q31 0 71.5 -6.5t83 -25t82 -52t65.5 -88.5t26 -120q0 -69 -30.5 -137.5t-85.5 -127t-131.5 -102t-163.5 -64.5q-18 -4 -46.5 -9.5
t-39.5 -5.5q-14 0 -29 19.5t-26.5 59.5t-11.5 63q0 27 6.5 37.5t19.5 14.5zM282 443q0 -24 16 -36t38 -12q10 0 25.5 5.5t24 18.5t8.5 29q0 14 -6.5 27t-21 20t-27.5 7q-22 0 -39.5 -15t-17.5 -44z" />
    <glyph glyph-name="seven.pnum" 
d="M641 627q0 -20 -6.5 -50t-18.5 -52l-261 -487q-12 -22 -34 -32.5t-103 -10.5q-73 0 -112 13t-39 43q0 8 6 23.5t16 31.5l236 362h-224q-8 0 -16 17t-13.5 49.5t-5.5 50.5q0 31 10 67t25 36h445q48 0 71.5 -13t23.5 -48z" />
    <glyph glyph-name="eight.pnum" 
d="M340 -26q-78 0 -139 19t-101.5 53t-60.5 79.5t-20 97.5q0 103 117 173q-35 19 -58 49t-23 72q0 60 35 101t99 64t153 23q56 0 106.5 -10.5t89.5 -33t61.5 -59t22.5 -85.5q0 -37 -22 -70t-58 -50q26 -13 53.5 -37.5t45 -62t17.5 -74.5q0 -52 -18.5 -97.5t-57 -79.5
t-100 -53t-142.5 -19zM338 270q-28 0 -37 -12t-9 -34q0 -20 10 -32.5t38 -12.5q22 0 34 9.5t12 35.5q0 21 -9.5 33.5t-38.5 12.5zM312 525q0 -10 8 -16t21 -6t21 6t8 16q0 24 -27 24q-31 0 -31 -24z" />
    <glyph glyph-name="b.sc" horiz-adv-x="618" 
d="M293 0h-225q-23 0 -36 15.5t-13 45.5v463q0 60 50 60h220q148 0 213 -33t65 -116q0 -16 -8.5 -35.5t-28 -35.5t-39.5 -26q48 -18 77 -48t37 -53.5t8 -42.5q0 -60 -35 -102.5t-105 -67t-180 -24.5zM298 222h-15v-53q0 -7 5 -7q23 0 38.5 8t15.5 31q0 21 -44 21zM291 435
q-8 0 -8 -8v-39q13 0 20.5 5t7.5 23q0 19 -20 19z" />
    <glyph glyph-name="a.sc" horiz-adv-x="657" 
d="M657 156v-116q0 -19 -12.5 -29.5t-46.5 -10.5h-121q-22 0 -40 3t-26.5 12.5t-16.5 30.5l-32 82h-80l-30 -82q-7 -20 -17.5 -33t-37.5 -13h-161q-36 0 -36 36v124q0 27 20 76l156 321q7 15 31.5 23.5t116.5 8.5q117 0 135 -9.5t22 -19.5l163 -342q13 -33 13 -62zM341 290
l-6 33q-3 17 -16 17t-15 -17l-5 -33h42z" />
    <glyph glyph-name="o.sc" horiz-adv-x="736" 
d="M367 -13q-83 0 -149.5 19t-113.5 57.5t-71.5 96.5t-24.5 133t25 133t71.5 96t113.5 57t149 19t149 -19t114.5 -57t72.5 -96t25 -133t-25 -133t-72 -96.5t-114 -57.5t-150 -19zM368 396q-29 0 -45 -10t-23.5 -31.5t-7.5 -59.5q0 -55 16.5 -77t58.5 -22q41 0 59 21t18 78
q0 56 -16 78.5t-60 22.5z" />
    <glyph glyph-name="c.sc" horiz-adv-x="656" 
d="M372 598q127 0 198 -38q30 -16 47.5 -32.5t17.5 -29.5q0 -2 -2 -10t-17.5 -36.5t-52 -67.5t-65.5 -39q-2 0 -26 14.5t-51 22t-53 7.5q-34 0 -55 -27t-21 -69q0 -49 21 -74t55 -25q30 0 63.5 9.5t75.5 30t53 20.5q13 0 31 -23.5t37.5 -71t19.5 -63.5q0 -12 -13 -29.5
t-53 -35t-105 -32t-118 -14.5q-78 0 -143.5 19.5t-111.5 58t-71 97.5t-25 134t24.5 132.5t71.5 95.5t115 57t153 19z" />
    <glyph glyph-name="h.sc" horiz-adv-x="724" 
d="M705 548v-511q0 -22 -32 -32.5t-105 -10.5q-142 0 -142 43v164l-58 -27l-7 -2l-7 2l-56 27v-164q0 -22 -32 -32.5t-106 -10.5q-72 0 -106.5 10.5t-34.5 32.5v511q0 22 34.5 32.5t107.5 10.5t105 -10.5t32 -32.5v-143l60 26l8 1l7 -2l53 -25v143q0 22 34 32.5t107 10.5
t105.5 -10.5t32.5 -32.5z" />
    <glyph glyph-name="i.sc" horiz-adv-x="317" 
d="M298 548v-511q0 -22 -32 -32.5t-105 -10.5t-107.5 10.5t-34.5 32.5v511q0 22 35 32.5t108 10.5q72 0 104 -10.5t32 -32.5z" />
    <glyph glyph-name="m.sc" horiz-adv-x="847" 
d="M284 202v-165q0 -22 -30 -32.5t-101 -10.5q-70 0 -102 10.5t-32 32.5v487q0 32 13.5 45.5t37.5 15.5t56 2h131q47 0 75.5 -6t46.5 -36l35 -61q4 -5 10 -5q5 0 10 5l41 66q22 37 116 37h129q63 0 81 -8.5t22.5 -23t4.5 -31.5v-487q0 -22 -30.5 -32.5t-100.5 -10.5
t-102.5 10.5t-32.5 32.5v165q-1 3 -5 3l-10 -1l-24 -51q-11 -10 -33 -14t-74 -4t-67.5 3.5t-23.5 13.5l-25 50q-1 3 -11 3q-5 0 -5 -3z" />
    <glyph glyph-name="d.sc" horiz-adv-x="709" 
d="M310 397q-14 0 -14 -3v-190q0 -4 13 -4q67 0 87.5 21.5t20.5 82.5q0 38 -8.5 57t-31.5 27.5t-67 8.5zM309 0h-241q-23 0 -36 15.5t-13 45.5v464q0 29 13 44.5t36 15.5h246q86 0 157.5 -17.5t122.5 -52.5t79 -90.5t28 -127.5q0 -77 -30 -134.5t-83 -93t-124.5 -52.5
t-154.5 -17z" />
    <glyph glyph-name="e.sc" horiz-adv-x="586" 
d="M481 227l-180 -28q-3 0 -3 -3q0 -5 4 -5h250q8 0 16 -12.5t13 -38.5t5 -48q0 -18 -5 -43t-13 -37t-16 -12h-484q-49 0 -49 61v463q0 61 49 61h457q8 0 16.5 -11t13.5 -34.5t5 -43.5q0 -18 -5 -45t-13 -41.5t-17 -14.5h-222q-5 0 -5 -7q0 -3 7 -5l173 -23q27 -2 27 -63
q0 -31 -5 -49t-19 -21z" />
    <glyph glyph-name="f.sc" horiz-adv-x="564" 
d="M479 226l-177 -27q-3 0 -4 -3v-160q0 -19 -26 -31.5t-112 -12.5q-72 0 -106.5 10.5t-34.5 33.5v488q0 60 50 60h457q15 0 25 -30t10 -58q0 -27 -10 -64.5t-25 -37.5h-226l-2 -3v-3q0 -2 0.5 -4t4.5 -2l176 -22q27 -4 27 -63q0 -40 -7.5 -54.5t-19.5 -16.5z" />
    <glyph glyph-name="l.sc" horiz-adv-x="574" 
d="M298 547v-341q0 -5 6 -5h227q15 0 25 -36.5t10 -67.5q0 -17 -5.5 -44t-13.5 -40t-16 -13h-461q-30 0 -40.5 15t-10.5 45v487q0 22 35 32.5t108 10.5t104.5 -10.5t31.5 -32.5z" />
    <glyph glyph-name="k.sc" horiz-adv-x="679" 
d="M544 313l101 -57q12 -10 19 -26.5t7 -34.5v-150q0 -45 -56 -45h-102q-29 0 -52 7t-39 30l-70 130q-4 8 -15 13t-39 5v-148q0 -22 -32 -32.5t-106 -10.5q-72 0 -106.5 10.5t-34.5 32.5v511q0 22 34.5 32.5t107.5 10.5t105 -10.5t32 -32.5v-114q17 0 32 5.5t22 17.5l57 89
q14 22 24.5 29.5t25 9t20.5 1.5h122q25 0 41.5 -9t16.5 -36v-84q0 -40 -9 -64.5t-34 -33.5l-69 -25q-8 -3 -8 -10q0 -8 5 -11z" />
    <glyph glyph-name="g.sc" horiz-adv-x="680" 
d="M293 293q0 -78 16 -104t48 -26q22 0 39 6v18h-39q-14 0 -23 18t-9 57q0 73 32 73h249q25 0 40 -10.5t15 -32.5v-195q0 -38 -79 -74q-87 -39 -213 -39q-83 0 -150.5 19.5t-114 58t-71.5 97.5t-25 136q0 151 95.5 227t281.5 76q32 0 72.5 -5t68.5 -13t41 -15
q30 -15 49.5 -31.5t19.5 -28.5q0 -2 -2 -9.5t-17.5 -35.5t-52 -66.5t-65.5 -38.5q-1 0 -26 11.5t-51 17t-51 5.5q-36 0 -57 -26.5t-21 -69.5z" />
    <glyph glyph-name="j.sc" horiz-adv-x="406" 
d="M42 583h293q25 0 38.5 -15.5t13.5 -45.5v-360q0 -81 -43 -136t-122.5 -83t-178.5 -28q-9 0 -18 12.5t-15 38.5t-6 43q0 50 10.5 79.5t24.5 29.5q2 1 13.5 2.5t20 4t17 9t11.5 18t3 20.5v212h-62q-9 0 -17 16t-13 46t-5 49q0 20 5 43t13.5 34t16.5 11z" />
    <glyph glyph-name="p.sc" horiz-adv-x="623" 
d="M69 585h216q86 0 149.5 -14t103.5 -39.5t59 -62t19 -82.5q0 -51 -15.5 -98.5t-53 -82.5t-98.5 -54.5t-151 -19.5v-95q0 -22 -32 -32.5t-106 -10.5q-72 0 -106.5 10.5t-34.5 32.5v487q0 30 13 45.5t37 15.5zM300 411q-5 0 -5 -7v-74q27 0 36.5 12t9.5 35q0 17 -9 25.5
t-32 8.5z" />
    <glyph glyph-name="r.sc" horiz-adv-x="638" 
d="M377 27l-79 122v-113q0 -19 -26 -31.5t-112 -12.5q-141 0 -141 44v488q0 30 13 45.5t36 15.5h203q183 0 269 -46.5t86 -151.5q0 -113 -96 -153l63 -34q14 -8 24 -21.5t10 -41.5v-90q0 -47 -56 -47h-90q-43 0 -67.5 5.5t-36.5 21.5zM300 410q-6 0 -6 -6v-66q27 0 37 10
t10 29q0 11 -6 22t-35 11z" />
    <glyph glyph-name="s.sc" horiz-adv-x="628" 
d="M318 598q34 0 81 -4.5t95.5 -20.5t75.5 -38t27 -37q0 -9 -11.5 -36.5t-35.5 -59.5t-47 -32q-1 0 -4.5 1t-46 16.5t-85.5 24t-74 8.5q-11 0 -17.5 -3t-6.5 -8q0 -1 2 -3t19.5 -4t22.5 -3q163 -27 236 -75.5t73 -127.5q0 -212 -313 -212q-50 0 -102 6t-95 19t-71 31t-28 36
q0 27 28.5 85.5t49.5 58.5q8 0 24.5 -6t18.5 -6q51 -15 84.5 -20.5t94.5 -5.5q12 0 22 4t10 9q0 4 -31 5q-73 2 -125 12t-87 31t-52.5 57.5t-17.5 89.5q0 102 72.5 155t213.5 53z" />
    <glyph glyph-name="q.sc" horiz-adv-x="736" 
d="M367 -13q-83 0 -149.5 19t-113.5 57.5t-71.5 96.5t-24.5 133t25 133t71.5 96t113.5 57t149 19t149 -19t114.5 -57t72.5 -96t25 -133q0 -83 -30.5 -145t-86.5 -100l44 -54q11 -13 18.5 -28.5t7.5 -24.5q0 -14 -23 -36t-63.5 -43.5t-77.5 -21.5q-20 0 -47.5 50t-44.5 100
q-28 -3 -58 -3zM368 396q-29 0 -45 -10t-23.5 -31.5t-7.5 -59.5q0 -55 16.5 -77t58.5 -22q41 0 59 21t18 78q0 56 -16 78.5t-60 22.5z" />
    <glyph glyph-name="n.sc" horiz-adv-x="771" 
d="M751 546l1 -484q0 -23 -7.5 -38t-29.5 -19.5t-73 -4.5h-117q-55 0 -79.5 7t-42.5 33l-93 128q-3 4 -7 9t-11 5q-8 0 -8 -17v-128q0 -22 -30 -32.5t-101 -10.5q-70 0 -102 10.5t-32 32.5v486q0 33 12 46t36 15t55 2h142q40 0 70 -6.5t49 -38.5l77 -128q7 -13 16 -13t9 16
v130q0 19 26.5 31.5t108.5 12.5q70 0 100.5 -11t30.5 -33z" />
    <glyph glyph-name="t.sc" horiz-adv-x="655" 
d="M40 585h574q8 0 16.5 -12.5t14 -39t5.5 -47.5q0 -17 -5.5 -43.5t-13.5 -40.5t-17 -14h-140q-7 0 -7 -4v-347q0 -22 -32 -32.5t-105 -10.5t-107.5 10.5t-34.5 32.5v344q0 6 -5 7h-143q-15 0 -25 36t-10 62q0 30 10 64.5t25 34.5z" />
    <glyph glyph-name="u.sc" horiz-adv-x="678" 
d="M661 547v-278q0 -78 -20.5 -133t-61.5 -88.5t-101.5 -48.5t-142.5 -15q-78 0 -137 14.5t-99 46.5t-61 87t-21 133v282q0 22 34.5 32.5t107.5 10.5t105 -10.5t32 -32.5v-230q0 -48 3 -72t13.5 -34.5t26.5 -10.5q21 0 30.5 18.5t11 44t1.5 53.5v231q0 22 34.5 32.5
t106.5 10.5q73 0 105.5 -10.5t32.5 -32.5z" />
    <glyph glyph-name="x.sc" horiz-adv-x="713" 
d="M38 198l132 86l-108 50q-16 8 -26 24.5t-10 50.5v126q0 50 56 50h140q29 0 51.5 -8t40.5 -36l47 -70q1 -3 8 -3q6 0 9 4l40 68q14 24 36 34.5t68 10.5h114q26 0 42 -8.5t16 -34.5v-111q0 -60 -34 -81l-99 -61l106 -51q20 -9 20 -56v-135q0 -21 -12 -34t-44 -13h-143
q-33 0 -53 10t-34 36l-32 62q-3 4 -10 4q-6 0 -8 -4l-42 -63q-16 -24 -35 -34.5t-46 -10.5h-155q-20 0 -37 12t-17 37v74q0 55 19 75z" />
    <glyph glyph-name="v.sc" horiz-adv-x="665" 
d="M350 333l50 207q7 26 23.5 36t58.5 10h123q56 0 56 -43v-113q0 -32 -11 -60l-164 -346q-7 -15 -34.5 -22t-122.5 -7q-93 0 -117 7t-31 23l-156 325q-21 46 -21 76v112q0 26 16.5 37t41.5 11h139q18 0 32 -7t23 -39l62 -209q3 -13 16 -13q12 0 16 15z" />
    <glyph glyph-name="w.sc" horiz-adv-x="954" 
d="M679 368l18 172q2 19 12 32.5t42 13.5h143q56 0 56 -43v-112q0 -12 -2 -28.5t-15 -52.5l-123 -323q-6 -15 -30.5 -23.5t-114.5 -8.5q-94 0 -123.5 7.5t-33.5 21.5l-27 85l-24 -83q-4 -13 -34 -22t-121 -9q-73 0 -110 6t-44 24l-123 318q-21 50 -21 84v111q0 26 16.5 37
t40.5 11h144q17 0 31.5 -7.5t21.5 -36.5l40 -175q3 -14 14 -14q14 0 18 15l37 172q12 46 62 46h133q38 0 52 -46l31 -173q6 -14 16 -14q16 0 18 15z" />
    <glyph glyph-name="y.sc" horiz-adv-x="636" 
d="M453 236v-199q0 -22 -32.5 -32.5t-104.5 -10.5q-142 0 -142 43v203l-150 131q-20 22 -20 72v93q0 50 58 50h104q30 0 51 -7.5t41 -38.5l48 -74q10 -7 10.5 -7h1.5q4 0 12 6l48 76q19 29 41 37t51 8h104q25 0 41.5 -9t16.5 -36v-99q0 -51 -20 -71z" />
    <glyph glyph-name="z.sc" horiz-adv-x="596" 
d="M536 377l-194 -163l-6 -8q2 -3 6 -3h213q15 0 25 -38.5t10 -69.5q0 -25 -9.5 -60t-24.5 -35h-470q-57 0 -68.5 17t-11.5 49q0 81 4 114.5t20 47.5l177 145l6 7l-7 1h-156q-15 0 -24.5 42.5t-9.5 72.5q0 19 5.5 42.5t13.5 34.5t15 11h477q20 0 30.5 -10.5t10.5 -59.5
q0 -70 -5.5 -93t-26.5 -44z" />
    <glyph glyph-name="zcaron.sc" horiz-adv-x="596" 
d="M536 377l-194 -163l-6 -8q2 -3 6 -3h213q15 0 25 -38.5t10 -69.5q0 -25 -9.5 -60t-24.5 -35h-470q-57 0 -68.5 17t-11.5 49q0 81 4 114.5t20 47.5l177 145l6 7l-7 1h-156q-15 0 -24.5 42.5t-9.5 72.5q0 19 5.5 42.5t13.5 34.5t15 11h477q20 0 30.5 -10.5t10.5 -59.5
q0 -70 -5.5 -93t-26.5 -44zM294 616q-26 0 -59 6t-62 33q-93 90 -93 108q0 16 17.5 34t51 33t53.5 15q50 0 71 -44l21 -41l23 41q10 18 24.5 31t42.5 13q13 0 41 -9t56 -30t28 -43q0 -11 -32.5 -47.5t-60.5 -60.5q-25 -22 -53.5 -30.5t-68.5 -8.5z" />
    <glyph glyph-name="agrave.sc" horiz-adv-x="657" 
d="M657 156v-116q0 -19 -12.5 -29.5t-46.5 -10.5h-121q-22 0 -40 3t-26.5 12.5t-16.5 30.5l-32 82h-80l-30 -82q-7 -20 -17.5 -33t-37.5 -13h-161q-36 0 -36 36v124q0 27 20 76l156 321q7 15 31.5 23.5t116.5 8.5q117 0 135 -9.5t22 -19.5l163 -342q13 -33 13 -62zM341 290
l-6 33q-3 17 -16 17t-15 -17l-5 -33h42zM176 722q-30 19 -40 28.5t-10 23.5q0 29 38 77.5t64 48.5q34 0 72 -34q83 -65 112 -94q1 -1 17.5 -16.5t26.5 -27.5t10 -23q0 -15 -10.5 -34.5t-32.5 -34.5t-38 -15q-10 0 -32 7.5t-48 21.5q-96 52 -129 72z" />
    <glyph glyph-name="aacute.sc" horiz-adv-x="657" 
d="M657 156v-116q0 -19 -12.5 -29.5t-46.5 -10.5h-121q-22 0 -40 3t-26.5 12.5t-16.5 30.5l-32 82h-80l-30 -82q-7 -20 -17.5 -33t-37.5 -13h-161q-36 0 -36 36v124q0 27 20 76l156 321q7 15 31.5 23.5t116.5 8.5q117 0 135 -9.5t22 -19.5l163 -342q13 -33 13 -62zM341 290
l-6 33q-3 17 -16 17t-15 -17l-5 -33h42zM492 722q-33 -20 -129 -72q-56 -29 -80 -29q-16 0 -38 15t-32.5 34.5t-10.5 34.5q0 7 6.5 17.5t26.5 29.5t21 20q24 24 111 94q40 34 72 34q20 0 47.5 -28.5t41.5 -56t14 -41.5q0 -11 -7 -20t-43 -32z" />
    <glyph glyph-name="acircumflex.sc" horiz-adv-x="657" 
d="M657 156v-116q0 -19 -12.5 -29.5t-46.5 -10.5h-121q-22 0 -40 3t-26.5 12.5t-16.5 30.5l-32 82h-80l-30 -82q-7 -20 -17.5 -33t-37.5 -13h-161q-36 0 -36 36v124q0 27 20 76l156 321q7 15 31.5 23.5t116.5 8.5q117 0 135 -9.5t22 -19.5l163 -342q13 -33 13 -62zM341 290
l-6 33q-3 17 -16 17t-15 -17l-5 -33h42zM322 845q26 0 59 -6t62 -33q93 -90 93 -108q0 -16 -17.5 -34t-51 -33t-53.5 -15q-50 0 -71 44l-21 41l-23 -41q-10 -18 -24.5 -31t-42.5 -13q-13 0 -41 9t-56 30t-28 43q0 18 93 108q23 22 52.5 30.5t69.5 8.5z" />
    <glyph glyph-name="atilde.sc" horiz-adv-x="657" 
d="M657 156v-116q0 -19 -12.5 -29.5t-46.5 -10.5h-121q-22 0 -40 3t-26.5 12.5t-16.5 30.5l-32 82h-80l-30 -82q-7 -20 -17.5 -33t-37.5 -13h-161q-36 0 -36 36v124q0 27 20 76l156 321q7 15 31.5 23.5t116.5 8.5q117 0 135 -9.5t22 -19.5l163 -342q13 -33 13 -62zM341 290
l-6 33q-3 17 -16 17t-15 -17l-5 -33h42zM249 799q25 0 73 -19.5t72 -19.5q16 0 31 8.5t29.5 27t19.5 18.5q10 0 31.5 -22.5t32.5 -46t11 -38.5q0 -31 -40 -63.5t-97 -32.5q-27 0 -70.5 20.5t-66.5 20.5q-13 0 -27 -7t-31 -22.5t-23 -15.5q-12 0 -31 9.5t-36 26.5
q-31 27 -31 64q0 24 27 47.5t62.5 34t63.5 10.5z" />
    <glyph glyph-name="adieresis.sc" horiz-adv-x="657" 
d="M657 156v-116q0 -19 -12.5 -29.5t-46.5 -10.5h-121q-22 0 -40 3t-26.5 12.5t-16.5 30.5l-32 82h-80l-30 -82q-7 -20 -17.5 -33t-37.5 -13h-161q-36 0 -36 36v124q0 27 20 76l156 321q7 15 31.5 23.5t116.5 8.5q117 0 135 -9.5t22 -19.5l163 -342q13 -33 13 -62zM341 290
l-6 33q-3 17 -16 17t-15 -17l-5 -33h42zM112 696q0 35 10 49.5t31.5 17.5t55.5 3q45 0 65 -6.5t25.5 -23.5t5.5 -40q0 -26 -6 -43t-25.5 -23t-64.5 -6q-47 0 -66.5 6t-25 22.5t-5.5 43.5zM345 696q0 35 10 49.5t31.5 17.5t54.5 3q71 0 84 -17.5t13 -52.5q0 -26 -6 -43
t-25.5 -23t-65.5 -6q-47 0 -66 6t-24.5 22.5t-5.5 43.5z" />
    <glyph glyph-name="aring.sc" horiz-adv-x="657" 
d="M168 639q0 41 19 70.5t55 45.5t82 16q31 0 61 -8t51.5 -24t34 -41.5t12.5 -58.5q0 -35 -16 -64q9 -5 14 -15l163 -342q13 -33 13 -62v-116q0 -19 -12.5 -29.5t-46.5 -10.5h-121q-34 0 -53 6.5t-30 39.5l-32 82h-80l-30 -82q-7 -20 -17.5 -33t-37.5 -13h-161q-36 0 -36 36
v124q0 27 20 76l156 321q3 7 10 13q-18 29 -18 69zM278 639q0 -23 13 -36t33 -14h2q22 0 35.5 13t13.5 37t-13.5 36t-35.5 12q-21 0 -34.5 -12t-13.5 -36zM339 291l-5 26q-1 13 -12 13q-10 0 -12 -13l-4 -26h33z" />
    <glyph glyph-name="ccedilla.sc" horiz-adv-x="656" 
d="M372 598q127 0 198 -38q30 -16 47.5 -32.5t17.5 -29.5q0 -2 -2 -10t-17.5 -36.5t-52 -67.5t-65.5 -39q-2 0 -26 14.5t-51 22t-53 7.5q-34 0 -55 -27t-21 -69q0 -49 21 -74t55 -25q30 0 63.5 9.5t75.5 30t53 20.5q13 0 31 -23.5t37.5 -71t19.5 -63.5q0 -18 -20.5 -37.5
t-70.5 -37t-104 -26.5q60 -33 60 -76q0 -59 -53.5 -96t-138.5 -37q-53 0 -75 3.5t-28.5 16t-6.5 49.5q0 32 7.5 58t17.5 26q2 0 13 -2t21 -2q16 0 24 9t8 20t-15 26q-63 8 -115 31t-88.5 61t-56 91.5t-19.5 120.5q0 75 24.5 132.5t71.5 95.5t115 57t153 19z" />
    <glyph glyph-name="egrave.sc" horiz-adv-x="586" 
d="M481 227l-180 -28q-3 0 -3 -3q0 -5 4 -5h250q8 0 16 -12.5t13 -38.5t5 -48q0 -18 -5 -43t-13 -37t-16 -12h-484q-49 0 -49 61v463q0 61 49 61h457q8 0 16.5 -11t13.5 -34.5t5 -43.5q0 -18 -5 -45t-13 -41.5t-17 -14.5h-222q-5 0 -5 -7q0 -3 7 -5l173 -23q27 -2 27 -63
q0 -31 -5 -49t-19 -21zM141 722q-30 19 -40 28.5t-10 23.5q0 29 38 77.5t64 48.5q34 0 72 -34q83 -65 112 -94q1 -1 17.5 -16.5t26.5 -27.5t10 -23q0 -15 -10.5 -34.5t-32.5 -34.5t-38 -15q-10 0 -32 7.5t-48 21.5q-96 52 -129 72z" />
    <glyph glyph-name="eacute.sc" horiz-adv-x="586" 
d="M481 227l-180 -28q-3 0 -3 -3q0 -5 4 -5h250q8 0 16 -12.5t13 -38.5t5 -48q0 -18 -5 -43t-13 -37t-16 -12h-484q-49 0 -49 61v463q0 61 49 61h457q8 0 16.5 -11t13.5 -34.5t5 -43.5q0 -18 -5 -45t-13 -41.5t-17 -14.5h-222q-5 0 -5 -7q0 -3 7 -5l173 -23q27 -2 27 -63
q0 -31 -5 -49t-19 -21zM478 722q-33 -20 -129 -72q-56 -29 -80 -29q-16 0 -38 15t-32.5 34.5t-10.5 34.5q0 7 6.5 17.5t26.5 29.5t21 20q24 24 111 94q40 34 72 34q20 0 47.5 -28.5t41.5 -56t14 -41.5q0 -11 -7 -20t-43 -32z" />
    <glyph glyph-name="ecircumflex.sc" horiz-adv-x="586" 
d="M481 227l-180 -28q-3 0 -3 -3q0 -5 4 -5h250q8 0 16 -12.5t13 -38.5t5 -48q0 -18 -5 -43t-13 -37t-16 -12h-484q-49 0 -49 61v463q0 61 49 61h457q8 0 16.5 -11t13.5 -34.5t5 -43.5q0 -18 -5 -45t-13 -41.5t-17 -14.5h-222q-5 0 -5 -7q0 -3 7 -5l173 -23q27 -2 27 -63
q0 -31 -5 -49t-19 -21zM288 845q26 0 59 -6t62 -33q93 -90 93 -108q0 -16 -17.5 -34t-51 -33t-53.5 -15q-50 0 -71 44l-21 41l-23 -41q-10 -18 -24.5 -31t-42.5 -13q-13 0 -41 9t-56 30t-28 43q0 18 93 108q23 22 52.5 30.5t69.5 8.5z" />
    <glyph glyph-name="edieresis.sc" horiz-adv-x="586" 
d="M481 227l-180 -28q-3 0 -3 -3q0 -5 4 -5h250q8 0 16 -12.5t13 -38.5t5 -48q0 -18 -5 -43t-13 -37t-16 -12h-484q-49 0 -49 61v463q0 61 49 61h457q8 0 16.5 -11t13.5 -34.5t5 -43.5q0 -18 -5 -45t-13 -41.5t-17 -14.5h-222q-5 0 -5 -7q0 -3 7 -5l173 -23q27 -2 27 -63
q0 -31 -5 -49t-19 -21zM68 696q0 35 10 49.5t31.5 17.5t55.5 3q45 0 65 -6.5t25.5 -23.5t5.5 -40q0 -26 -6 -43t-25.5 -23t-64.5 -6q-47 0 -66.5 6t-25 22.5t-5.5 43.5zM301 696q0 35 10 49.5t31.5 17.5t54.5 3q71 0 84 -17.5t13 -52.5q0 -26 -6 -43t-25.5 -23t-65.5 -6
q-47 0 -66 6t-24.5 22.5t-5.5 43.5z" />
    <glyph glyph-name="iacute.sc" horiz-adv-x="317" 
d="M298 548v-511q0 -22 -32 -32.5t-105 -10.5t-107.5 10.5t-34.5 32.5v511q0 22 35 32.5t108 10.5q72 0 104 -10.5t32 -32.5zM339 722q-33 -20 -129 -72q-56 -29 -80 -29q-16 0 -38 15t-32.5 34.5t-10.5 34.5q0 7 6.5 17.5t26.5 29.5t21 20q24 24 111 94q40 34 72 34
q20 0 47.5 -28.5t41.5 -56t14 -41.5q0 -11 -7 -20t-43 -32z" />
    <glyph glyph-name="icircumflex.sc" horiz-adv-x="317" 
d="M298 548v-511q0 -22 -32 -32.5t-105 -10.5t-107.5 10.5t-34.5 32.5v511q0 22 35 32.5t108 10.5q72 0 104 -10.5t32 -32.5zM159 845q26 0 59 -6t62 -33q93 -90 93 -108q0 -16 -17.5 -34t-51 -33t-53.5 -15q-50 0 -71 44l-21 41l-23 -41q-10 -18 -24.5 -31t-42.5 -13
q-13 0 -41 9t-56 30t-28 43q0 18 93 108q23 22 52.5 30.5t69.5 8.5z" />
    <glyph glyph-name="idieresis.sc" horiz-adv-x="317" 
d="M298 548v-511q0 -22 -32 -32.5t-105 -10.5t-107.5 10.5t-34.5 32.5v511q0 22 35 32.5t108 10.5q72 0 104 -10.5t32 -32.5zM-54 696q0 35 10 49.5t31.5 17.5t55.5 3q45 0 65 -6.5t25.5 -23.5t5.5 -40q0 -26 -6 -43t-25.5 -23t-64.5 -6q-47 0 -66.5 6t-25 22.5t-5.5 43.5z
M179 696q0 35 10 49.5t31.5 17.5t54.5 3q71 0 84 -17.5t13 -52.5q0 -26 -6 -43t-25.5 -23t-65.5 -6q-47 0 -66 6t-24.5 22.5t-5.5 43.5z" />
    <glyph glyph-name="ntilde.sc" horiz-adv-x="771" 
d="M751 546l1 -484q0 -23 -7.5 -38t-29.5 -19.5t-73 -4.5h-117q-55 0 -79.5 7t-42.5 33l-93 128q-3 4 -7 9t-11 5q-8 0 -8 -17v-128q0 -22 -30 -32.5t-101 -10.5q-70 0 -102 10.5t-32 32.5v486q0 33 12 46t36 15t55 2h142q40 0 70 -6.5t49 -38.5l77 -128q7 -13 16 -13t9 16
v130q0 19 26.5 31.5t108.5 12.5q70 0 100.5 -11t30.5 -33zM313 799q25 0 73 -19.5t72 -19.5q16 0 31 8.5t29.5 27t19.5 18.5q10 0 31.5 -22.5t32.5 -46t11 -38.5q0 -31 -40 -63.5t-97 -32.5q-27 0 -70.5 20.5t-66.5 20.5q-13 0 -27 -7t-31 -22.5t-23 -15.5q-12 0 -31 9.5
t-36 26.5q-31 27 -31 64q0 24 27 47.5t62.5 34t63.5 10.5z" />
    <glyph glyph-name="ograve.sc" horiz-adv-x="736" 
d="M367 -13q-83 0 -149.5 19t-113.5 57.5t-71.5 96.5t-24.5 133t25 133t71.5 96t113.5 57t149 19t149 -19t114.5 -57t72.5 -96t25 -133t-25 -133t-72 -96.5t-114 -57.5t-150 -19zM368 396q-29 0 -45 -10t-23.5 -31.5t-7.5 -59.5q0 -55 16.5 -77t58.5 -22q41 0 59 21t18 78
q0 56 -16 78.5t-60 22.5zM234 722q-30 19 -40 28.5t-10 23.5q0 29 38 77.5t64 48.5q34 0 72 -34q83 -65 112 -94q1 -1 17.5 -16.5t26.5 -27.5t10 -23q0 -15 -10.5 -34.5t-32.5 -34.5t-38 -15q-10 0 -32 7.5t-48 21.5q-96 52 -129 72z" />
    <glyph glyph-name="oacute.sc" horiz-adv-x="736" 
d="M367 -13q-83 0 -149.5 19t-113.5 57.5t-71.5 96.5t-24.5 133t25 133t71.5 96t113.5 57t149 19t149 -19t114.5 -57t72.5 -96t25 -133t-25 -133t-72 -96.5t-114 -57.5t-150 -19zM368 396q-29 0 -45 -10t-23.5 -31.5t-7.5 -59.5q0 -55 16.5 -77t58.5 -22q41 0 59 21t18 78
q0 56 -16 78.5t-60 22.5zM561 722q-33 -20 -129 -72q-56 -29 -80 -29q-16 0 -38 15t-32.5 34.5t-10.5 34.5q0 7 6.5 17.5t26.5 29.5t21 20q24 24 111 94q40 34 72 34q20 0 47.5 -28.5t41.5 -56t14 -41.5q0 -11 -7 -20t-43 -32z" />
    <glyph glyph-name="ocircumflex.sc" horiz-adv-x="736" 
d="M367 -13q-83 0 -149.5 19t-113.5 57.5t-71.5 96.5t-24.5 133t25 133t71.5 96t113.5 57t149 19t149 -19t114.5 -57t72.5 -96t25 -133t-25 -133t-72 -96.5t-114 -57.5t-150 -19zM368 396q-29 0 -45 -10t-23.5 -31.5t-7.5 -59.5q0 -55 16.5 -77t58.5 -22q41 0 59 21t18 78
q0 56 -16 78.5t-60 22.5zM371 845q26 0 59 -6t62 -33q93 -90 93 -108q0 -16 -17.5 -34t-51 -33t-53.5 -15q-50 0 -71 44l-21 41l-23 -41q-10 -18 -24.5 -31t-42.5 -13q-13 0 -41 9t-56 30t-28 43q0 18 93 108q23 22 52.5 30.5t69.5 8.5z" />
    <glyph glyph-name="otilde.sc" horiz-adv-x="736" 
d="M367 -13q-83 0 -149.5 19t-113.5 57.5t-71.5 96.5t-24.5 133t25 133t71.5 96t113.5 57t149 19t149 -19t114.5 -57t72.5 -96t25 -133t-25 -133t-72 -96.5t-114 -57.5t-150 -19zM368 396q-29 0 -45 -10t-23.5 -31.5t-7.5 -59.5q0 -55 16.5 -77t58.5 -22q41 0 59 21t18 78
q0 56 -16 78.5t-60 22.5zM300 809q25 0 73 -19.5t72 -19.5q16 0 31 8.5t29.5 27t19.5 18.5q10 0 31.5 -22.5t32.5 -46t11 -38.5q0 -31 -40 -63.5t-97 -32.5q-27 0 -70.5 20.5t-66.5 20.5q-13 0 -27 -7t-31 -22.5t-23 -15.5q-12 0 -31 9.5t-36 26.5q-31 27 -31 64
q0 24 27 47.5t62.5 34t63.5 10.5z" />
    <glyph glyph-name="odieresis.sc" horiz-adv-x="736" 
d="M367 -13q-83 0 -149.5 19t-113.5 57.5t-71.5 96.5t-24.5 133t25 133t71.5 96t113.5 57t149 19t149 -19t114.5 -57t72.5 -96t25 -133t-25 -133t-72 -96.5t-114 -57.5t-150 -19zM368 396q-29 0 -45 -10t-23.5 -31.5t-7.5 -59.5q0 -55 16.5 -77t58.5 -22q41 0 59 21t18 78
q0 56 -16 78.5t-60 22.5zM159 696q0 35 10 49.5t31.5 17.5t55.5 3q45 0 65 -6.5t25.5 -23.5t5.5 -40q0 -26 -6 -43t-25.5 -23t-64.5 -6q-47 0 -66.5 6t-25 22.5t-5.5 43.5zM392 696q0 35 10 49.5t31.5 17.5t54.5 3q71 0 84 -17.5t13 -52.5q0 -26 -6 -43t-25.5 -23t-65.5 -6
q-47 0 -66 6t-24.5 22.5t-5.5 43.5z" />
    <glyph glyph-name="ugrave.sc" horiz-adv-x="678" 
d="M661 547v-278q0 -78 -20.5 -133t-61.5 -88.5t-101.5 -48.5t-142.5 -15q-78 0 -137 14.5t-99 46.5t-61 87t-21 133v282q0 22 34.5 32.5t107.5 10.5t105 -10.5t32 -32.5v-230q0 -48 3 -72t13.5 -34.5t26.5 -10.5q21 0 30.5 18.5t11 44t1.5 53.5v231q0 22 34.5 32.5
t106.5 10.5q73 0 105.5 -10.5t32.5 -32.5zM203 722q-30 19 -40 28.5t-10 23.5q0 29 38 77.5t64 48.5q34 0 72 -34q83 -65 112 -94q1 -1 17.5 -16.5t26.5 -27.5t10 -23q0 -15 -10.5 -34.5t-32.5 -34.5t-38 -15q-10 0 -32 7.5t-48 21.5q-96 52 -129 72z" />
    <glyph glyph-name="uacute.sc" horiz-adv-x="678" 
d="M661 547v-278q0 -78 -20.5 -133t-61.5 -88.5t-101.5 -48.5t-142.5 -15q-78 0 -137 14.5t-99 46.5t-61 87t-21 133v282q0 22 34.5 32.5t107.5 10.5t105 -10.5t32 -32.5v-230q0 -48 3 -72t13.5 -34.5t26.5 -10.5q21 0 30.5 18.5t11 44t1.5 53.5v231q0 22 34.5 32.5
t106.5 10.5q73 0 105.5 -10.5t32.5 -32.5zM540 722q-33 -20 -129 -72q-56 -29 -80 -29q-16 0 -38 15t-32.5 34.5t-10.5 34.5q0 7 6.5 17.5t26.5 29.5t21 20q24 24 111 94q40 34 72 34q20 0 47.5 -28.5t41.5 -56t14 -41.5q0 -11 -7 -20t-43 -32z" />
    <glyph glyph-name="ucircumflex.sc" horiz-adv-x="678" 
d="M661 547v-278q0 -78 -20.5 -133t-61.5 -88.5t-101.5 -48.5t-142.5 -15q-78 0 -137 14.5t-99 46.5t-61 87t-21 133v282q0 22 34.5 32.5t107.5 10.5t105 -10.5t32 -32.5v-230q0 -48 3 -72t13.5 -34.5t26.5 -10.5q21 0 30.5 18.5t11 44t1.5 53.5v231q0 22 34.5 32.5
t106.5 10.5q73 0 105.5 -10.5t32.5 -32.5zM341 845q26 0 59 -6t62 -33q93 -90 93 -108q0 -16 -17.5 -34t-51 -33t-53.5 -15q-50 0 -71 44l-21 41l-23 -41q-10 -18 -24.5 -31t-42.5 -13q-13 0 -41 9t-56 30t-28 43q0 18 93 108q23 22 52.5 30.5t69.5 8.5z" />
    <glyph glyph-name="udieresis.sc" horiz-adv-x="678" 
d="M661 547v-278q0 -78 -20.5 -133t-61.5 -88.5t-101.5 -48.5t-142.5 -15q-78 0 -137 14.5t-99 46.5t-61 87t-21 133v282q0 22 34.5 32.5t107.5 10.5t105 -10.5t32 -32.5v-230q0 -48 3 -72t13.5 -34.5t26.5 -10.5q21 0 30.5 18.5t11 44t1.5 53.5v231q0 22 34.5 32.5
t106.5 10.5q73 0 105.5 -10.5t32.5 -32.5zM135 696q0 35 10 49.5t31.5 17.5t55.5 3q45 0 65 -6.5t25.5 -23.5t5.5 -40q0 -26 -6 -43t-25.5 -23t-64.5 -6q-47 0 -66.5 6t-25 22.5t-5.5 43.5zM368 696q0 35 10 49.5t31.5 17.5t54.5 3q71 0 84 -17.5t13 -52.5q0 -26 -6 -43
t-25.5 -23t-65.5 -6q-47 0 -66 6t-24.5 22.5t-5.5 43.5z" />
    <glyph glyph-name="yacute.sc" horiz-adv-x="636" 
d="M453 236v-199q0 -22 -32.5 -32.5t-104.5 -10.5q-142 0 -142 43v203l-150 131q-20 22 -20 72v93q0 50 58 50h104q30 0 51 -7.5t41 -38.5l48 -74q10 -7 10.5 -7h1.5q4 0 12 6l48 76q19 29 41 37t51 8h104q25 0 41.5 -9t16.5 -36v-99q0 -51 -20 -71zM524 722
q-33 -20 -129 -72q-56 -29 -80 -29q-16 0 -38 15t-32.5 34.5t-10.5 34.5q0 7 6.5 17.5t26.5 29.5t21 20q24 24 111 94q40 34 72 34q20 0 47.5 -28.5t41.5 -56t14 -41.5q0 -11 -7 -20t-43 -32z" />
    <glyph glyph-name="scaron.sc" horiz-adv-x="628" 
d="M318 598q34 0 81 -4.5t95.5 -20.5t75.5 -38t27 -37q0 -9 -11.5 -36.5t-35.5 -59.5t-47 -32q-1 0 -4.5 1t-46 16.5t-85.5 24t-74 8.5q-11 0 -17.5 -3t-6.5 -8q0 -1 2 -3t19.5 -4t22.5 -3q163 -27 236 -75.5t73 -127.5q0 -212 -313 -212q-50 0 -102 6t-95 19t-71 31t-28 36
q0 27 28.5 85.5t49.5 58.5q8 0 24.5 -6t18.5 -6q51 -15 84.5 -20.5t94.5 -5.5q12 0 22 4t10 9q0 4 -31 5q-73 2 -125 12t-87 31t-52.5 57.5t-17.5 89.5q0 102 72.5 155t213.5 53zM326 616q-26 0 -59 6t-62 33q-93 90 -93 108q0 16 17.5 34t51 33t53.5 15q50 0 71 -44l21 -41
l23 41q10 18 24.5 31t42.5 13q13 0 41 -9t56 -30t28 -43q0 -11 -32.5 -47.5t-60.5 -60.5q-25 -22 -53.5 -30.5t-68.5 -8.5z" />
    <glyph glyph-name="igrave.sc" horiz-adv-x="317" 
d="M298 548v-511q0 -22 -32 -32.5t-105 -10.5t-107.5 10.5t-34.5 32.5v511q0 22 35 32.5t108 10.5q72 0 104 -10.5t32 -32.5zM-8 722q-30 19 -40 28.5t-10 23.5q0 29 38 77.5t64 48.5q34 0 72 -34q83 -65 112 -94q1 -1 17.5 -16.5t26.5 -27.5t10 -23q0 -15 -10.5 -34.5
t-32.5 -34.5t-38 -15q-10 0 -32 7.5t-48 21.5q-96 52 -129 72z" />
    <glyph glyph-name="eth.sc" horiz-adv-x="761" 
d="M361 0h-241q-23 0 -36 15.5t-13 45.5v172h-27q-12 0 -18.5 12t-6.5 47q0 36 6.5 46t18.5 10h27v177q0 29 13 44.5t36 15.5h246q86 0 157.5 -17.5t122.5 -52.5t79 -90.5t28 -127.5q0 -77 -30 -134.5t-83 -93t-124.5 -52.5t-154.5 -17zM362 397q-14 0 -14 -3v-46h42
q12 0 19 -10.5t7 -45.5q0 -59 -26 -59h-42v-29q0 -4 13 -4q67 0 87.5 21.5t20.5 82.5q0 38 -8.5 57t-31.5 27.5t-67 8.5z" />
    <glyph glyph-name="lslash.sc" horiz-adv-x="675" 
d="M380 547v-114l58 15q10 0 17 -16.5t7 -46.5q0 -39 -11 -43q-15 -6 -71 -22v-114q0 -5 6 -5h227q15 0 25 -36.5t10 -67.5q0 -17 -5.5 -44t-13.5 -40t-16 -13h-461q-30 0 -40.5 15t-10.5 45v184l-53 -13q-8 0 -16 8.5t-12 26.5t-4 34q0 27 10 31l75 23v193q0 22 35 32.5
t108 10.5t104.5 -10.5t31.5 -32.5z" />
    <glyph glyph-name="thorn.sc" horiz-adv-x="623" 
d="M298 548v-22h35q144 0 213.5 -50t69.5 -170q0 -44 -19.5 -86t-59 -75t-100.5 -52.5t-139 -19.5v-36q0 -22 -32 -32.5t-106 -10.5q-72 0 -106.5 10.5t-34.5 32.5v511q0 22 34.5 32.5t107.5 10.5t105 -10.5t32 -32.5zM300 352q-5 0 -5 -7v-74q26 0 36 12t10 35
q0 17 -9 25.5t-32 8.5z" />
    <glyph glyph-name="ae.sc" horiz-adv-x="822" 
d="M800 0h-311q-33 0 -51 5.5t-31 37.5l-46 86h-96l-28 -84q-7 -20 -17 -32.5t-39 -12.5h-157q-33 0 -33 33v127q0 32 21 74l156 319q7 15 23.5 23.5t81.5 8.5h347q8 0 16.5 -10.5t13.5 -33.5t5 -45q0 -25 -10 -63.5t-25 -38.5h-81q-4 0 -5 -4q0 -4 6 -12l143 -18
q8 -1 15.5 -9t12 -25.5t4.5 -36.5q0 -50 -30 -55l-91 -13l7 -16q2 -5 8 -5h187q9 0 18 -14.5t15 -43t6 -50.5q0 -23 -10 -57.5t-25 -34.5zM333 290l-6 33q-3 17 -16 17t-15 -17l-5 -33h42z" />
    <glyph glyph-name="oslash.sc" horiz-adv-x="736" 
d="M367 -13q-64 0 -114 10l-5 -11q-9 -19 -21.5 -31t-39.5 -12q-70 0 -70 20q0 2 1.5 10t13.5 30.5t16 29.5q-68 36 -104 102t-36 158q0 75 25 133t71.5 96t113.5 57t149 19q46 0 88 -6l8 17q9 19 21.5 31t39.5 12q70 0 70 -20q0 -2 -1.5 -9.5t-13.5 -30t-16 -29.5
q79 -34 122 -102.5t43 -167.5q0 -75 -25 -133t-72 -96.5t-114 -57.5t-150 -19zM368 396q-29 0 -45 -10t-23.5 -31.5t-7.5 -59.5q0 -55 16.5 -77t58.5 -22q41 0 59 21t18 78q0 56 -16 78.5t-60 22.5z" />
    <glyph glyph-name="oe.sc" horiz-adv-x="883" 
d="M399 392q-62 0 -76.5 -20.5t-14.5 -77.5q0 -51 21 -75.5t71 -24.5q4 0 4 4v190q0 4 -5 4zM823 395h-141q-6 0 -6 -7q0 -3 7 -5l93 -23q27 -2 27 -63q0 -31 -5 -49t-19 -21l-99 -28q-3 0 -4 -3q0 -5 5 -5h169q15 0 24.5 -33.5t9.5 -65.5q0 -17 -5.5 -42t-13.5 -37.5
t-16 -12.5h-454q-75 0 -143 19t-119 56t-80 92.5t-29 125.5q0 68 26 123.5t74.5 92.5t116.5 56.5t150 19.5h431q15 0 25.5 -30.5t10.5 -58.5q0 -26 -10 -63.5t-25 -37.5z" />
    <glyph glyph-name="amacron.sc" horiz-adv-x="657" 
d="M657 156v-116q0 -19 -12.5 -29.5t-46.5 -10.5h-121q-22 0 -40 3t-26.5 12.5t-16.5 30.5l-32 82h-80l-30 -82q-7 -20 -17.5 -33t-37.5 -13h-161q-36 0 -36 36v124q0 27 20 76l156 321q7 15 31.5 23.5t116.5 8.5q117 0 135 -9.5t22 -19.5l163 -342q13 -33 13 -62zM341 290
l-6 33q-3 17 -16 17t-15 -17l-5 -33h42zM122 779h406q17 0 26 -22.5t9 -51.5q0 -19 -5 -39t-13.5 -29.5t-16.5 -9.5h-406q-8 0 -16.5 9.5t-14 30t-5.5 38.5q0 20 5.5 39t14 27t16.5 8z" />
    <glyph glyph-name="aogonek.sc" horiz-adv-x="644" 
d="M651 156v-116q0 -19 -12.5 -29.5t-46.5 -10.5h-67l-2 -14q0 -9 9.5 -14.5t25.5 -5.5q13 0 37 8t27 8q15 0 15 -49q0 -56 -9 -75q-7 -14 -50.5 -29t-92.5 -15q-97 0 -139 30.5t-42 87.5q0 59 92 93l-8 21l-32 82h-80l-30 -82q-7 -20 -17.5 -33t-37.5 -13h-161
q-36 0 -36 36v124q0 27 20 76l156 321q7 15 31.5 23.5t116.5 8.5q117 0 135 -9.5t22 -19.5l163 -342q13 -33 13 -62zM333 291l-5 26q-1 13 -12 13q-10 0 -12 -13l-4 -26h33z" />
    <glyph glyph-name="ccaron.sc" horiz-adv-x="656" 
d="M372 598q127 0 198 -38q30 -16 47.5 -32.5t17.5 -29.5q0 -2 -2 -10t-17.5 -36.5t-52 -67.5t-65.5 -39q-2 0 -26 14.5t-51 22t-53 7.5q-34 0 -55 -27t-21 -69q0 -49 21 -74t55 -25q30 0 63.5 9.5t75.5 30t53 20.5q13 0 31 -23.5t37.5 -71t19.5 -63.5q0 -12 -13 -29.5
t-53 -35t-105 -32t-118 -14.5q-78 0 -143.5 19.5t-111.5 58t-71 97.5t-25 134t24.5 132.5t71.5 95.5t115 57t153 19zM345 616q-26 0 -59 6t-62 33q-93 90 -93 108q0 16 17.5 34t51 33t53.5 15q50 0 71 -44l21 -41l23 41q10 18 24.5 31t42.5 13q13 0 41 -9t56 -30t28 -43
q0 -11 -32.5 -47.5t-60.5 -60.5q-25 -22 -53.5 -30.5t-68.5 -8.5z" />
    <glyph glyph-name="cacute.sc" horiz-adv-x="656" 
d="M372 598q127 0 198 -38q30 -16 47.5 -32.5t17.5 -29.5q0 -2 -2 -10t-17.5 -36.5t-52 -67.5t-65.5 -39q-2 0 -26 14.5t-51 22t-53 7.5q-34 0 -55 -27t-21 -69q0 -49 21 -74t55 -25q30 0 63.5 9.5t75.5 30t53 20.5q13 0 31 -23.5t37.5 -71t19.5 -63.5q0 -12 -13 -29.5
t-53 -35t-105 -32t-118 -14.5q-78 0 -143.5 19.5t-111.5 58t-71 97.5t-25 134t24.5 132.5t71.5 95.5t115 57t153 19zM530 722q-33 -20 -129 -72q-56 -29 -80 -29q-16 0 -38 15t-32.5 34.5t-10.5 34.5q0 7 6.5 17.5t26.5 29.5t21 20q24 24 111 94q40 34 72 34
q20 0 47.5 -28.5t41.5 -56t14 -41.5q0 -11 -7 -20t-43 -32z" />
    <glyph glyph-name="emacron.sc" horiz-adv-x="586" 
d="M481 227l-180 -28q-3 0 -3 -3q0 -5 4 -5h250q8 0 16 -12.5t13 -38.5t5 -48q0 -18 -5 -43t-13 -37t-16 -12h-484q-49 0 -49 61v463q0 61 49 61h457q8 0 16.5 -11t13.5 -34.5t5 -43.5q0 -18 -5 -45t-13 -41.5t-17 -14.5h-222q-5 0 -5 -7q0 -3 7 -5l173 -23q27 -2 27 -63
q0 -31 -5 -49t-19 -21zM88 779h406q17 0 26 -22.5t9 -51.5q0 -19 -5 -39t-13.5 -29.5t-16.5 -9.5h-406q-8 0 -16.5 9.5t-14 30t-5.5 38.5q0 20 5.5 39t14 27t16.5 8z" />
    <glyph glyph-name="edotaccent.sc" horiz-adv-x="586" 
d="M481 227l-180 -28q-3 0 -3 -3q0 -5 4 -5h250q8 0 16 -12.5t13 -38.5t5 -48q0 -18 -5 -43t-13 -37t-16 -12h-484q-49 0 -49 61v463q0 61 49 61h457q8 0 16.5 -11t13.5 -34.5t5 -43.5q0 -18 -5 -45t-13 -41.5t-17 -14.5h-222q-5 0 -5 -7q0 -3 7 -5l173 -23q27 -2 27 -63
q0 -31 -5 -49t-19 -21zM143 715q0 30 10 50t38 29t105 9q58 0 89 -6.5t46.5 -26t15.5 -55.5q0 -46 -30.5 -64.5t-120.5 -18.5q-53 0 -87.5 5.5t-50 24.5t-15.5 53z" />
    <glyph glyph-name="ecaron.sc" horiz-adv-x="586" 
d="M481 227l-180 -28q-3 0 -3 -3q0 -5 4 -5h250q8 0 16 -12.5t13 -38.5t5 -48q0 -18 -5 -43t-13 -37t-16 -12h-484q-49 0 -49 61v463q0 61 49 61h457q8 0 16.5 -11t13.5 -34.5t5 -43.5q0 -18 -5 -45t-13 -41.5t-17 -14.5h-222q-5 0 -5 -7q0 -3 7 -5l173 -23q27 -2 27 -63
q0 -31 -5 -49t-19 -21zM288 616q-26 0 -59 6t-62 33q-93 90 -93 108q0 16 17.5 34t51 33t53.5 15q50 0 71 -44l21 -41l23 41q10 18 24.5 31t42.5 13q13 0 41 -9t56 -30t28 -43q0 -11 -32.5 -47.5t-60.5 -60.5q-25 -22 -53.5 -30.5t-68.5 -8.5z" />
    <glyph glyph-name="eogonek.sc" horiz-adv-x="584" 
d="M479 227l-180 -28q-3 0 -3 -3q0 -5 4 -5h250q8 0 16 -12.5t13 -38.5t5 -48q0 -18 -5 -43t-13 -37t-16 -12h-79l-2 -14q0 -9 9.5 -14.5t25.5 -5.5q13 0 37 8t27 8q15 0 15 -49q0 -56 -9 -75q-7 -14 -50.5 -29t-92.5 -15q-97 0 -139 30.5t-42 87.5q0 41 41 68h-225
q-49 0 -49 61v463q0 61 49 61h457q8 0 16.5 -11t13.5 -34.5t5 -43.5q0 -18 -5 -45t-13 -41.5t-17 -14.5h-222q-5 0 -5 -7q0 -3 7 -5l173 -23q27 -2 27 -63q0 -31 -5 -49t-19 -21z" />
    <glyph glyph-name="iogonek.sc" horiz-adv-x="317" 
d="M298 548v-511q0 -36 -88 -42l-1 -9q0 -9 9.5 -14.5t25.5 -5.5q13 0 37 8t27 8q15 0 15 -49q0 -56 -9 -75q-7 -14 -50.5 -29t-92.5 -15q-97 0 -139 30.5t-42 87.5q0 45 53 75q-24 11 -24 30v511q0 22 35 32.5t108 10.5q72 0 104 -10.5t32 -32.5z" />
    <glyph glyph-name="nacute.sc" horiz-adv-x="771" 
d="M751 546l1 -484q0 -23 -7.5 -38t-29.5 -19.5t-73 -4.5h-117q-55 0 -79.5 7t-42.5 33l-93 128q-3 4 -7 9t-11 5q-8 0 -8 -17v-128q0 -22 -30 -32.5t-101 -10.5q-70 0 -102 10.5t-32 32.5v486q0 33 12 46t36 15t55 2h142q40 0 70 -6.5t49 -38.5l77 -128q7 -13 16 -13t9 16
v130q0 19 26.5 31.5t108.5 12.5q70 0 100.5 -11t30.5 -33zM588 722q-33 -20 -129 -72q-56 -29 -80 -29q-16 0 -38 15t-32.5 34.5t-10.5 34.5q0 7 6.5 17.5t26.5 29.5t21 20q24 24 111 94q40 34 72 34q20 0 47.5 -28.5t41.5 -56t14 -41.5q0 -11 -7 -20t-43 -32z" />
    <glyph glyph-name="ncaron.sc" horiz-adv-x="771" 
d="M751 546l1 -484q0 -23 -7.5 -38t-29.5 -19.5t-73 -4.5h-117q-55 0 -79.5 7t-42.5 33l-93 128q-3 4 -7 9t-11 5q-8 0 -8 -17v-128q0 -22 -30 -32.5t-101 -10.5q-70 0 -102 10.5t-32 32.5v486q0 33 12 46t36 15t55 2h142q40 0 70 -6.5t49 -38.5l77 -128q7 -13 16 -13t9 16
v130q0 19 26.5 31.5t108.5 12.5q70 0 100.5 -11t30.5 -33zM380 616q-26 0 -59 6t-62 33q-93 90 -93 108q0 16 17.5 34t51 33t53.5 15q50 0 71 -44l21 -41l23 41q10 18 24.5 31t42.5 13q13 0 41 -9t56 -30t28 -43q0 -11 -32.5 -47.5t-60.5 -60.5q-25 -22 -53.5 -30.5
t-68.5 -8.5z" />
    <glyph glyph-name="ncommaaccent.sc" horiz-adv-x="771" 
d="M751 546l1 -484q0 -23 -7.5 -38t-29.5 -19.5t-73 -4.5h-117q-55 0 -79.5 7t-42.5 33l-93 128q-3 4 -7 9t-11 5q-8 0 -8 -17v-128q0 -22 -30 -32.5t-101 -10.5q-70 0 -102 10.5t-32 32.5v486q0 33 12 46t36 15t55 2h142q40 0 70 -6.5t49 -38.5l77 -128q7 -13 16 -13t9 16
v130q0 19 26.5 31.5t108.5 12.5q70 0 100.5 -11t30.5 -33zM208 -318q0 29 9 103t15 107q12 73 69 73q20 0 51.5 -5.5t47.5 -11.5q3 -1 22 -7.5t35.5 -15.5t26 -22.5t9.5 -30.5q0 -26 -19 -67q-1 -2 -17 -35.5t-31.5 -64t-29.5 -53t-22 -26.5q-9 -5 -19 -5q-32 0 -89.5 19.5
t-57.5 41.5z" />
    <glyph glyph-name="ohungarumlaut.sc" horiz-adv-x="786" 
d="M367 -13q-83 0 -149.5 19t-113.5 57.5t-71.5 96.5t-24.5 133t25 133t71.5 96t113.5 57t149 19t149 -19t114.5 -57t72.5 -96t25 -133t-25 -133t-72 -96.5t-114 -57.5t-150 -19zM368 396q-29 0 -45 -10t-23.5 -31.5t-7.5 -59.5q0 -55 16.5 -77t58.5 -22q41 0 59 21t18 78
q0 56 -16 78.5t-60 22.5zM728 721q-33 -20 -129 -72q-56 -29 -80 -29q-16 0 -38 15t-32.5 34.5t-10.5 34.5q0 7 6.5 17.5t26.5 29.5t21 20q24 24 111 94q40 34 72 34q20 0 47.5 -28.5t41.5 -56t14 -41.5q0 -11 -7 -20t-43 -32zM364 721q-33 -20 -129 -72q-56 -29 -80 -29
q-16 0 -38 15t-32.5 34.5t-10.5 34.5q0 7 6.5 17.5t26.5 29.5t21 20q24 24 111 94q40 34 72 34q20 0 47.5 -28.5t41.5 -56t14 -41.5q0 -11 -7 -20t-43 -32z" />
    <glyph glyph-name="omacron.sc" horiz-adv-x="736" 
d="M367 -13q-83 0 -149.5 19t-113.5 57.5t-71.5 96.5t-24.5 133t25 133t71.5 96t113.5 57t149 19t149 -19t114.5 -57t72.5 -96t25 -133t-25 -133t-72 -96.5t-114 -57.5t-150 -19zM368 396q-29 0 -45 -10t-23.5 -31.5t-7.5 -59.5q0 -55 16.5 -77t58.5 -22q41 0 59 21t18 78
q0 56 -16 78.5t-60 22.5zM168 779h406q17 0 26 -22.5t9 -51.5q0 -19 -5 -39t-13.5 -29.5t-16.5 -9.5h-406q-8 0 -16.5 9.5t-14 30t-5.5 38.5q0 20 5.5 39t14 27t16.5 8z" />
    <glyph glyph-name="sacute.sc" horiz-adv-x="628" 
d="M318 598q34 0 81 -4.5t95.5 -20.5t75.5 -38t27 -37q0 -9 -11.5 -36.5t-35.5 -59.5t-47 -32q-1 0 -4.5 1t-46 16.5t-85.5 24t-74 8.5q-11 0 -17.5 -3t-6.5 -8q0 -1 2 -3t19.5 -4t22.5 -3q163 -27 236 -75.5t73 -127.5q0 -212 -313 -212q-50 0 -102 6t-95 19t-71 31t-28 36
q0 27 28.5 85.5t49.5 58.5q8 0 24.5 -6t18.5 -6q51 -15 84.5 -20.5t94.5 -5.5q12 0 22 4t10 9q0 4 -31 5q-73 2 -125 12t-87 31t-52.5 57.5t-17.5 89.5q0 102 72.5 155t213.5 53zM486 722q-33 -20 -129 -72q-56 -29 -80 -29q-16 0 -38 15t-32.5 34.5t-10.5 34.5
q0 7 6.5 17.5t26.5 29.5t21 20q24 24 111 94q40 34 72 34q20 0 47.5 -28.5t41.5 -56t14 -41.5q0 -11 -7 -20t-43 -32z" />
    <glyph glyph-name="umacron.sc" horiz-adv-x="678" 
d="M661 547v-278q0 -78 -20.5 -133t-61.5 -88.5t-101.5 -48.5t-142.5 -15q-78 0 -137 14.5t-99 46.5t-61 87t-21 133v282q0 22 34.5 32.5t107.5 10.5t105 -10.5t32 -32.5v-230q0 -48 3 -72t13.5 -34.5t26.5 -10.5q21 0 30.5 18.5t11 44t1.5 53.5v231q0 22 34.5 32.5
t106.5 10.5q73 0 105.5 -10.5t32.5 -32.5zM140 779h406q17 0 26 -22.5t9 -51.5q0 -19 -5 -39t-13.5 -29.5t-16.5 -9.5h-406q-8 0 -16.5 9.5t-14 30t-5.5 38.5q0 20 5.5 39t14 27t16.5 8z" />
    <glyph glyph-name="uring.sc" horiz-adv-x="678" 
d="M661 547v-278q0 -78 -20.5 -133t-61.5 -88.5t-101.5 -48.5t-142.5 -15q-78 0 -137 14.5t-99 46.5t-61 87t-21 133v282q0 22 34.5 32.5t107.5 10.5t105 -10.5t32 -32.5v-230q0 -48 3 -72t13.5 -34.5t26.5 -10.5q21 0 30.5 18.5t11 44t1.5 53.5v231q0 22 34.5 32.5
t106.5 10.5q73 0 105.5 -10.5t32.5 -32.5zM182 767q0 41 19 70.5t55 45.5t82 16q31 0 61 -8t51.5 -24t34 -41.5t12.5 -58.5q0 -24 -8.5 -48.5t-30.5 -45.5t-56 -31t-64 -10t-67 11.5t-63 43.5t-26 80zM292 767q0 -24 13.5 -37t34.5 -13q22 0 35.5 13t13.5 37t-13.5 36
t-35.5 12q-21 0 -34.5 -12t-13.5 -36z" />
    <glyph glyph-name="uhungarumlaut.sc" horiz-adv-x="764" 
d="M661 547v-278q0 -78 -20.5 -133t-61.5 -88.5t-101.5 -48.5t-142.5 -15q-78 0 -137 14.5t-99 46.5t-61 87t-21 133v282q0 22 34.5 32.5t107.5 10.5t105 -10.5t32 -32.5v-230q0 -48 3 -72t13.5 -34.5t26.5 -10.5q21 0 30.5 18.5t11 44t1.5 53.5v231q0 22 34.5 32.5
t106.5 10.5q73 0 105.5 -10.5t32.5 -32.5zM697 721q-33 -20 -129 -72q-56 -29 -80 -29q-16 0 -38 15t-32.5 34.5t-10.5 34.5q0 7 6.5 17.5t26.5 29.5t21 20q24 24 111 94q40 34 72 34q20 0 47.5 -28.5t41.5 -56t14 -41.5q0 -11 -7 -20t-43 -32zM333 721q-33 -20 -129 -72
q-56 -29 -80 -29q-16 0 -38 15t-32.5 34.5t-10.5 34.5q0 7 6.5 17.5t26.5 29.5t21 20q24 24 111 94q40 34 72 34q20 0 47.5 -28.5t41.5 -56t14 -41.5q0 -11 -7 -20t-43 -32z" />
    <glyph glyph-name="uogonek.sc" horiz-adv-x="678" 
d="M661 547v-278q0 -137 -63 -203.5t-191 -78.5v-1q0 -9 9.5 -14.5t25.5 -5.5q13 0 37 8t27 8q15 0 15 -49q0 -56 -9 -75q-7 -14 -50.5 -29t-92.5 -15q-97 0 -139 30.5t-42 87.5q0 17 8.5 33.5t23.5 27.5q-102 18 -152.5 83t-50.5 189v282q0 22 34.5 32.5t107.5 10.5
t105 -10.5t32 -32.5v-230q0 -48 3 -72t13.5 -34.5t26.5 -10.5q21 0 30.5 18.5t11 44t1.5 53.5v231q0 22 34.5 32.5t106.5 10.5q73 0 105.5 -10.5t32.5 -32.5z" />
    <glyph glyph-name="zdotaccent.sc" horiz-adv-x="596" 
d="M536 377l-194 -163l-6 -8q2 -3 6 -3h213q15 0 25 -38.5t10 -69.5q0 -25 -9.5 -60t-24.5 -35h-470q-57 0 -68.5 17t-11.5 49q0 81 4 114.5t20 47.5l177 145l6 7l-7 1h-156q-15 0 -24.5 42.5t-9.5 72.5q0 19 5.5 42.5t13.5 34.5t15 11h477q20 0 30.5 -10.5t10.5 -59.5
q0 -70 -5.5 -93t-26.5 -44zM139 720q0 30 10 50t38 29t105 9q58 0 89 -6.5t46.5 -26t15.5 -55.5q0 -46 -30.5 -64.5t-120.5 -18.5q-53 0 -87.5 5.5t-50 24.5t-15.5 53z" />
    <glyph glyph-name="zacute.sc" horiz-adv-x="596" 
d="M536 377l-194 -163l-6 -8q2 -3 6 -3h213q15 0 25 -38.5t10 -69.5q0 -25 -9.5 -60t-24.5 -35h-470q-57 0 -68.5 17t-11.5 49q0 81 4 114.5t20 47.5l177 145l6 7l-7 1h-156q-15 0 -24.5 42.5t-9.5 72.5q0 19 5.5 42.5t13.5 34.5t15 11h477q20 0 30.5 -10.5t10.5 -59.5
q0 -70 -5.5 -93t-26.5 -44zM484 722q-33 -20 -129 -72q-56 -29 -80 -29q-16 0 -38 15t-32.5 34.5t-10.5 34.5q0 7 6.5 17.5t26.5 29.5t21 20q24 24 111 94q40 34 72 34q20 0 47.5 -28.5t41.5 -56t14 -41.5q0 -11 -7 -20t-43 -32z" />
    <glyph glyph-name="dcaron.sc" horiz-adv-x="709" 
d="M310 397q-14 0 -14 -3v-190q0 -4 13 -4q67 0 87.5 21.5t20.5 82.5q0 38 -8.5 57t-31.5 27.5t-67 8.5zM309 0h-241q-23 0 -36 15.5t-13 45.5v464q0 29 13 44.5t36 15.5h246q86 0 157.5 -17.5t122.5 -52.5t79 -90.5t28 -127.5q0 -77 -30 -134.5t-83 -93t-124.5 -52.5
t-154.5 -17zM268 616q-26 0 -59 6t-62 33q-93 90 -93 108q0 16 17.5 34t51 33t53.5 15q50 0 71 -44l21 -41l23 41q10 18 24.5 31t42.5 13q13 0 41 -9t56 -30t28 -43q0 -11 -32.5 -47.5t-60.5 -60.5q-25 -22 -53.5 -30.5t-68.5 -8.5z" />
    <glyph glyph-name="dcroat.sc" horiz-adv-x="761" 
d="M361 0h-241q-23 0 -36 15.5t-13 45.5v172h-27q-12 0 -18.5 12t-6.5 47q0 36 6.5 46t18.5 10h27v177q0 29 13 44.5t36 15.5h246q86 0 157.5 -17.5t122.5 -52.5t79 -90.5t28 -127.5q0 -77 -30 -134.5t-83 -93t-124.5 -52.5t-154.5 -17zM362 397q-14 0 -14 -3v-46h42
q12 0 19 -10.5t7 -45.5q0 -59 -26 -59h-42v-29q0 -4 13 -4q67 0 87.5 21.5t20.5 82.5q0 38 -8.5 57t-31.5 27.5t-67 8.5z" />
    <glyph glyph-name="racute.sc" horiz-adv-x="638" 
d="M377 27l-79 122v-113q0 -19 -26 -31.5t-112 -12.5q-141 0 -141 44v488q0 30 13 45.5t36 15.5h203q183 0 269 -46.5t86 -151.5q0 -113 -96 -153l63 -34q14 -8 24 -21.5t10 -41.5v-90q0 -47 -56 -47h-90q-43 0 -67.5 5.5t-36.5 21.5zM300 410q-6 0 -6 -6v-66q27 0 37 10
t10 29q0 11 -6 22t-35 11zM458 722q-33 -20 -129 -72q-56 -29 -80 -29q-16 0 -38 15t-32.5 34.5t-10.5 34.5q0 7 6.5 17.5t26.5 29.5t21 20q24 24 111 94q40 34 72 34q20 0 47.5 -28.5t41.5 -56t14 -41.5q0 -11 -7 -20t-43 -32z" />
    <glyph glyph-name="rcaron.sc" horiz-adv-x="638" 
d="M377 27l-79 122v-113q0 -19 -26 -31.5t-112 -12.5q-141 0 -141 44v488q0 30 13 45.5t36 15.5h203q183 0 269 -46.5t86 -151.5q0 -113 -96 -153l63 -34q14 -8 24 -21.5t10 -41.5v-90q0 -47 -56 -47h-90q-43 0 -67.5 5.5t-36.5 21.5zM300 410q-6 0 -6 -6v-66q27 0 37 10
t10 29q0 11 -6 22t-35 11zM281 616q-26 0 -59 6t-62 33q-93 90 -93 108q0 16 17.5 34t51 33t53.5 15q50 0 71 -44l21 -41l23 41q10 18 24.5 31t42.5 13q13 0 41 -9t56 -30t28 -43q0 -11 -32.5 -47.5t-60.5 -60.5q-25 -22 -53.5 -30.5t-68.5 -8.5z" />
    <glyph glyph-name="rcommaaccent.sc" horiz-adv-x="638" 
d="M377 27l-79 122v-113q0 -19 -26 -31.5t-112 -12.5q-141 0 -141 44v488q0 30 13 45.5t36 15.5h203q183 0 269 -46.5t86 -151.5q0 -113 -96 -153l63 -34q14 -8 24 -21.5t10 -41.5v-90q0 -47 -56 -47h-90q-43 0 -67.5 5.5t-36.5 21.5zM300 410q-6 0 -6 -6v-66q27 0 37 10
t10 29q0 11 -6 22t-35 11zM201 -318q0 29 9 103t15 107q12 73 69 73q20 0 51.5 -5.5t47.5 -11.5q3 -1 22 -7.5t35.5 -15.5t26 -22.5t9.5 -30.5q0 -26 -19 -67q-1 -2 -17 -35.5t-31.5 -64t-29.5 -53t-22 -26.5q-9 -5 -19 -5q-32 0 -89.5 19.5t-57.5 41.5z" />
    <glyph glyph-name="imacron.sc" horiz-adv-x="317" 
d="M298 548v-511q0 -22 -32 -32.5t-105 -10.5t-107.5 10.5t-34.5 32.5v511q0 22 35 32.5t108 10.5q72 0 104 -10.5t32 -32.5zM-46 779h406q17 0 26 -22.5t9 -51.5q0 -19 -5 -39t-13.5 -29.5t-16.5 -9.5h-406q-8 0 -16.5 9.5t-14 30t-5.5 38.5q0 20 5.5 39t14 27t16.5 8z" />
    </font>
</defs>
</svg>
